<svg width="24" height="24" viewBox="0 0 24 24" fill="none" xmlns="http://www.w3.org/2000/svg">
<path fill-rule="evenodd" clip-rule="evenodd" d="M11.3601 5H12.5095C12.708 5 12.8696 5.16164 12.8696 5.36009L12.8822 6.84986C12.8822 7.04831 12.7205 7.20995 12.5221 7.20995H11.3727C11.1742 7.20995 11.0126 7.04921 11.0126 6.84986L11 5.36009C11 5.16164 11.1616 5 11.3601 5ZM11.3601 8.67383H12.5095C12.708 8.67383 12.8696 8.83547 12.8696 9.03392L12.8822 19.1444C12.8822 19.3428 12.7205 19.5045 12.5221 19.5045H11.3727C11.1742 19.5045 11.0126 19.3428 11.0126 19.1444L11 9.03392C11 8.83547 11.1616 8.67383 11.3601 8.67383Z" fill="#0D0E36"/>
</svg>
