<svg width="24" height="24" viewBox="0 0 24 24" fill="none" xmlns="http://www.w3.org/2000/svg">
<path d="M21.6418 8.6235L9.45065 8.63159L6.90738 5.93273C6.62499 5.61527 6.26617 5.38504 5.87676 5.25824V4.30676C5.87676 4.07923 5.89475 3.96322 5.90824 3.90836C5.94781 3.89937 6.01795 3.88947 6.13037 3.88947H9.57746C9.7852 3.88947 9.95337 3.7213 9.95337 3.51356V2.37592C9.95337 2.16817 9.7852 2 9.57746 2H6.13037C5.15371 2 3.98819 2.4002 3.98819 4.30676V5.50825C3.40183 5.89226 3.02412 6.53617 2.99085 7.26013L2.98185 8.63609H2.5268C2.32895 8.63609 2.16797 8.79797 2.16797 8.99672V10.1478C2.16797 10.3475 2.32895 10.5085 2.5268 10.5085H2.87124L2.88203 20.1258H2.5277C2.32985 20.1258 2.16887 20.2877 2.16887 20.4873V21.6385C2.16887 21.8381 2.32985 21.9991 2.5277 21.9991L11.4813 21.9865C11.6792 21.9865 11.8401 21.8246 11.8401 21.6259V20.4747C11.8401 20.2751 11.6792 20.1141 11.4813 20.1141H11.1782C11.3374 18.5511 12.6612 17.3262 14.2665 17.3262V17.319C17.9681 17.176 20.9529 14.1957 21.104 10.4959H21.6436C21.8415 10.4959 22.0024 10.334 22.0024 10.1353V8.98413C22.0024 8.78448 21.8415 8.6235 21.6436 8.6235H21.6418ZM4.66987 7.33657C4.68426 7.01012 4.92528 6.88961 5.0278 6.85364C5.13033 6.81766 5.39293 6.75921 5.61056 7.00382L7.16369 8.63339L4.66178 8.63519L4.67077 7.33657H4.66987ZM13.9859 15.5285V15.5366C11.5155 15.676 9.52979 17.6518 9.37331 20.1177L4.75441 20.124L4.74362 10.5076L19.3027 10.4977C19.1489 13.2973 16.8233 15.5285 13.9859 15.5285Z" fill="#0D0E36"/>
</svg>
