<svg width="24" height="24" viewBox="0 0 24 24" fill="none" xmlns="http://www.w3.org/2000/svg">
<path d="M11.9336 7.06885C8.97065 7.06885 6.51562 9.48155 6.51562 12.4868C6.51562 15.4921 8.92832 17.9048 11.9336 17.9048C14.9389 17.9048 17.3516 15.4498 17.3516 12.4868C17.3516 9.52387 14.8966 7.06885 11.9336 7.06885ZM11.9336 15.9577C10.0289 15.9577 8.46272 14.3916 8.46272 12.4868C8.46272 10.5821 10.0289 9.01594 11.9336 9.01594C13.8384 9.01594 15.4045 10.5821 15.4045 12.4868C15.4045 14.3916 13.8384 15.9577 11.9336 15.9577Z" fill="#0D0E36"/>
<path d="M17.5635 8.16938C18.2414 8.16938 18.791 7.61981 18.791 6.94187C18.791 6.26393 18.2414 5.71436 17.5635 5.71436C16.8855 5.71436 16.3359 6.26393 16.3359 6.94187C16.3359 7.61981 16.8855 8.16938 17.5635 8.16938Z" fill="#0D0E36"/>
<path d="M20.7391 3.76719C19.6386 2.62433 18.0724 2.03174 16.2946 2.03174H7.57507C3.89253 2.03174 1.4375 4.48676 1.4375 8.1693V16.8466C1.4375 18.6667 2.03009 20.2328 3.21528 21.3757C4.35813 22.4762 5.88195 23.0264 7.61739 23.0264H16.2523C18.0724 23.0264 19.5962 22.4339 20.6968 21.3757C21.8396 20.2751 22.4322 18.709 22.4322 16.8889V8.1693C22.4322 6.39153 21.8396 4.86772 20.7391 3.76719ZM20.5698 16.8889C20.5698 18.2011 20.1042 19.2593 19.3423 19.9788C18.5804 20.6984 17.5222 21.0794 16.2523 21.0794H7.61739C6.34755 21.0794 5.28935 20.6984 4.52745 19.9788C3.76554 19.2169 3.38459 18.1587 3.38459 16.8466V8.1693C3.38459 6.89946 3.76554 5.84126 4.52745 5.07936C5.24702 4.35978 6.34755 3.97883 7.61739 3.97883H16.337C17.6068 3.97883 18.665 4.35978 19.4269 5.12169C20.1465 5.88359 20.5698 6.94179 20.5698 8.1693V16.8889Z" fill="#0D0E36"/>
</svg>
