<svg width="24" height="24" viewBox="0 0 24 24" fill="none" xmlns="http://www.w3.org/2000/svg">
<path fill-rule="evenodd" clip-rule="evenodd" d="M20.228 3.75877C20.4268 3.75877 20.5886 3.91972 20.5886 4.11934L20.5877 4.12023L20.6003 21.6297C20.6003 21.8284 20.4384 21.9903 20.2397 21.9903H19.444C19.426 21.9984 4.10058 22.0074 4.0754 21.9903H3.37315C3.17444 21.9903 3.01259 21.8293 3.01259 21.6297L3 4.12023C3 3.92152 3.16095 3.75967 3.36057 3.75967L5.81259 3.76147L5.8045 2.36057C5.8045 2.16185 5.96545 2 6.16507 2H7.316C7.51562 2 7.67747 2.16185 7.67747 2.36057L7.68556 3.76147H15.9732L15.9651 2.36057C15.9651 2.16185 16.1269 2 16.3257 2H17.4766C17.6762 2 17.838 2.16185 17.8372 2.35967L17.8452 3.76057L20.228 3.75877ZM18.7201 8.99372L18.7174 5.63353L4.87386 5.64612L4.87656 9.00631L18.7201 8.99372ZM4.87746 10.8802L4.88375 20.1443L18.7273 20.1317L18.721 10.8676L4.87746 10.8802ZM6.42188 15.5631C6.42188 13.9787 7.70589 12.6947 9.29022 12.6947C10.8745 12.6947 12.1586 13.9787 12.1586 15.5631C12.1586 17.1474 10.8745 18.4314 9.29022 18.4314C7.70589 18.4314 6.42188 17.1474 6.42188 15.5631ZM8.22021 15.564C8.22021 16.1538 8.70036 16.634 9.29022 16.634C9.88007 16.634 10.3602 16.1538 10.3602 15.564C10.3602 14.9741 9.88007 14.494 9.29022 14.494C8.70036 14.494 8.22021 14.9741 8.22021 15.564Z" fill="#0D0E36"/>
</svg>
