<svg width="24" height="24" viewBox="0 0 24 24" fill="none" xmlns="http://www.w3.org/2000/svg">
<path d="M21.8759 12.0793L14.9198 5.12226C14.7567 4.95925 14.4914 4.95925 14.3284 5.12226L13.6075 5.84314C13.4445 6.00616 13.4445 6.27151 13.6075 6.43452L18.5233 11.3503L2.36316 11.3612C2.16211 11.3612 2 11.5242 2 11.7243V12.8835C2 13.0846 2.16301 13.2467 2.36316 13.2467L18.6854 13.2358L13.7587 18.1634C13.5957 18.3264 13.5957 18.5917 13.7587 18.7548L14.4796 19.4756C14.6426 19.6387 14.908 19.6387 15.071 19.4756L21.8768 12.6698C22.0398 12.5068 22.0398 12.2414 21.8768 12.0784L21.8759 12.0793Z" fill="#0D0E36"/>
</svg>
