<svg width="24" height="24" viewBox="0 0 24 24" fill="none" xmlns="http://www.w3.org/2000/svg">
<path fill-rule="evenodd" clip-rule="evenodd" d="M21.8935 20.5386L3.44463 2.10693C3.30205 1.96436 3.07138 1.96436 2.92971 2.10693L2.10693 2.92971C1.96436 3.07229 1.96436 3.30296 2.10693 3.44463L20.5558 21.8754C20.6984 22.0179 20.9291 22.0179 21.0707 21.8754L21.8926 21.0535C22.0352 20.9109 22.0352 20.6802 21.8926 20.5386H21.8935ZM7.78691 4.54987C7.84593 4.6089 7.92494 4.64159 8.00849 4.64159H19.1686L19.1777 15.8408C19.1777 15.9053 19.2032 15.967 19.2486 16.0124L20.6553 17.4191C20.8078 17.5717 21.0694 17.4636 21.0694 17.2475L21.0585 3.11319C21.0585 2.91158 20.895 2.74902 20.6943 2.74902H19.5319C19.5283 2.74902 19.5246 2.74948 19.521 2.74993C19.5174 2.75039 19.5137 2.75084 19.5101 2.75084H6.74345C6.46465 2.75084 6.3248 3.08867 6.52186 3.28574L7.786 4.54987H7.78691ZM15.4711 18.9911C15.6255 18.9439 15.7935 18.9802 15.9079 19.0947L15.907 19.0956L16.678 19.8666C16.8742 20.0618 16.8351 20.3888 16.6008 20.535C16.2058 20.7811 15.7417 20.9164 15.2513 20.9109C14.2297 20.8991 13.3279 20.2362 12.9428 19.2899L12.6477 18.5816C12.496 18.3809 12.2735 18.3554 12.1727 18.3554C12.0583 18.3554 11.7895 18.3872 11.6415 18.6687L11.3745 19.3535C11.3627 19.3807 11.3499 19.408 11.3372 19.4352L11.2927 19.5496C11.2773 19.5887 11.2546 19.6214 11.2283 19.6514C10.7833 20.4342 9.95141 20.9209 9.03055 20.91C8.0089 20.8982 7.10711 20.2353 6.72206 19.289L6.42237 18.5698C6.27071 18.38 6.05457 18.3554 5.95559 18.3554C5.83299 18.3554 5.5333 18.3918 5.39436 18.7332L5.07469 19.5496C4.99841 19.7367 4.7859 19.8257 4.59973 19.7503L3.67524 19.3744H3.67252C3.51178 19.3744 3.37647 19.269 3.32833 19.1237C3.29564 19.0511 3.28747 18.9684 3.30835 18.8867L3.29927 7.18075C3.29927 6.92375 3.60986 6.79479 3.79149 6.97642L5.10738 8.29232C5.16187 8.3459 5.19184 8.41946 5.19184 8.49574L5.1982 16.5809C5.44794 16.5019 5.71311 16.4601 5.98646 16.4638C7.00812 16.4756 7.90991 17.1385 8.29496 18.0848L8.59465 18.8041C8.74631 18.9939 8.96244 19.0184 9.06143 19.0184C9.17586 19.0184 9.44467 18.9866 9.59269 18.7051L9.85969 18.0203C9.87148 17.9931 9.88418 17.9659 9.89688 17.9387L9.89692 17.9386L9.94142 17.8242C9.95686 17.7851 9.97956 17.7524 10.0059 17.7225C10.4509 16.9396 11.2827 16.4529 12.2036 16.4638C13.2253 16.4756 14.127 17.1385 14.5121 18.0848L14.8072 18.7932C14.9589 18.9939 15.1814 19.0193 15.2822 19.0193C15.3276 19.0193 15.3957 19.0138 15.4711 18.9911Z" fill="#0D0E36"/>
</svg>
