<svg width="24" height="24" viewBox="0 0 24 24" fill="none" xmlns="http://www.w3.org/2000/svg">
<path fill-rule="evenodd" clip-rule="evenodd" d="M21.9928 6.63412C21.9964 6.66312 21.9982 6.69211 21.9982 6.722H21.9991V6.72925V18.1915C21.9991 18.5865 21.7445 18.9353 21.3685 19.0548L12.279 21.9521V21.9539H12.2745C12.2651 21.9568 12.2556 21.9592 12.2466 21.9614C12.2444 21.9619 12.2422 21.9624 12.2401 21.963C12.2346 21.9643 12.2294 21.9659 12.2242 21.9675C12.219 21.9691 12.2138 21.9707 12.2084 21.972C12.1939 21.9757 12.1785 21.9784 12.164 21.9811C12.1599 21.9815 12.1558 21.9825 12.1517 21.9834C12.1477 21.9843 12.1436 21.9852 12.1395 21.9856C12.1214 21.9883 12.1042 21.9902 12.087 21.992C12.0838 21.992 12.0809 21.9924 12.0779 21.9929C12.075 21.9933 12.072 21.9938 12.0689 21.9938C12.0453 21.9956 12.0217 21.9965 11.9982 21.9965C11.9746 21.9965 11.9511 21.9956 11.9275 21.9938C11.9248 21.9938 11.9219 21.9933 11.9189 21.9929C11.916 21.9924 11.913 21.992 11.9103 21.992C11.8922 21.9902 11.875 21.9883 11.8578 21.9856C11.8487 21.9847 11.8406 21.9829 11.8324 21.9811L11.8324 21.9811C11.8179 21.9784 11.8034 21.9757 11.7889 21.972C11.778 21.9693 11.7663 21.9657 11.7554 21.963L11.7518 21.962C11.7428 21.9596 11.7333 21.957 11.7237 21.953H11.7201L2.63055 19.0558C2.25548 18.9362 2 18.5865 2 18.1924V6.72744V6.7211C2 6.6912 2.00272 6.6613 2.00544 6.63231L2.00815 6.60966C2.01631 6.54625 2.03171 6.48464 2.05255 6.42485C2.0539 6.42168 2.05504 6.41828 2.05617 6.41488C2.0573 6.41148 2.05843 6.40809 2.05979 6.40492C2.08244 6.34512 2.11053 6.28895 2.14495 6.23641C2.14722 6.23324 2.14926 6.23007 2.1513 6.2269C2.15333 6.22372 2.15537 6.22055 2.15764 6.21738C2.17485 6.19111 2.19388 6.16574 2.21381 6.14219C2.21471 6.14219 2.21562 6.14038 2.21562 6.14038C2.23555 6.11682 2.25639 6.09508 2.27904 6.07333C2.28447 6.0679 2.28991 6.06246 2.29534 6.05793C2.3189 6.0371 2.34336 6.01626 2.36963 5.99723H2.37054C2.37144 5.99678 2.37212 5.99633 2.3728 5.99588C2.37348 5.99542 2.37416 5.99497 2.37507 5.99452C2.39953 5.9773 2.4249 5.961 2.45117 5.94559L2.47019 5.93472C2.49737 5.91932 2.52636 5.90573 2.55535 5.89305C2.55671 5.8926 2.55785 5.89214 2.55898 5.89169C2.56011 5.89124 2.56124 5.89078 2.5626 5.89033C2.56706 5.88863 2.57157 5.88688 2.57612 5.88512C2.59097 5.87936 2.60623 5.87344 2.62149 5.86859L11.7563 2.86261C11.9411 2.801 12.1404 2.801 12.3252 2.86261L21.3776 5.86768C21.3957 5.87402 21.4138 5.88127 21.432 5.88852C21.4356 5.88942 21.4383 5.89033 21.4419 5.89214C21.4709 5.90483 21.4999 5.91842 21.5271 5.93382L21.5461 5.94469C21.5715 5.95918 21.5959 5.97459 21.6195 5.9918C21.6204 5.9927 21.6215 5.99338 21.6227 5.99406C21.6238 5.99474 21.6249 5.99542 21.6258 5.99633L21.6277 5.99814C21.653 6.01717 21.6775 6.0371 21.701 6.05884C21.7038 6.06156 21.7065 6.06405 21.7092 6.06654C21.7119 6.06903 21.7146 6.07152 21.7173 6.07424C21.7391 6.09508 21.7599 6.11591 21.7789 6.13856C21.7799 6.13947 21.7805 6.14038 21.7812 6.14128C21.7819 6.14219 21.7826 6.14309 21.7835 6.144C21.8034 6.16755 21.8224 6.19292 21.8396 6.21829C21.8419 6.22146 21.8439 6.22463 21.846 6.2278C21.848 6.23097 21.8501 6.23414 21.8523 6.23731C21.8695 6.26268 21.8849 6.28895 21.8985 6.31613C21.8994 6.31704 21.9003 6.31885 21.9003 6.31885C21.9148 6.34693 21.9275 6.37593 21.9384 6.40582C21.9398 6.40899 21.9409 6.41239 21.942 6.41579C21.9432 6.41919 21.9443 6.42258 21.9456 6.42575C21.9565 6.45474 21.9656 6.48464 21.9728 6.51454V6.51726C21.981 6.54806 21.9855 6.57977 21.99 6.61148C21.9903 6.61375 21.9907 6.61611 21.9911 6.61851C21.9919 6.62375 21.9928 6.62915 21.9928 6.63412ZM18.1651 6.71204L12.0381 4.67634L5.84399 6.71566L11.9982 8.67797L18.1651 6.71204ZM9.84472 9.89286L3.81102 7.96951V17.5328L11.0931 19.8539V10.2906L9.84472 9.89286ZM12.9051 19.8539L20.1872 17.5328V7.96951L14.1535 9.89286L12.9051 10.2906V19.8539ZM17.628 13.2105C18.3265 13.2105 18.8927 12.5692 18.8927 11.7781C18.8927 10.9871 18.3265 10.3458 17.628 10.3458C16.9295 10.3458 16.3633 10.9871 16.3633 11.7781C16.3633 12.5692 16.9295 13.2105 17.628 13.2105ZM8.81851 13.764C8.81851 14.555 8.25227 15.1963 7.55378 15.1963C6.8553 15.1963 6.28906 14.555 6.28906 13.764C6.28906 12.9729 6.8553 12.3317 7.55378 12.3317C8.25227 12.3317 8.81851 12.9729 8.81851 13.764ZM16.7287 16.2291C16.7287 17.0201 16.1624 17.6614 15.4639 17.6614C14.7655 17.6614 14.1992 17.0201 14.1992 16.2291C14.1992 15.438 14.7655 14.7968 15.4639 14.7968C16.1624 14.7968 16.7287 15.438 16.7287 16.2291Z" fill="#0D0E36"/>
</svg>
