<svg width="24" height="24" viewBox="0 0 24 24" fill="none" xmlns="http://www.w3.org/2000/svg">
<path fill-rule="evenodd" clip-rule="evenodd" d="M15.1572 5.21737C15.1572 6.96573 13.7407 8.38249 11.9927 8.38249C10.2446 8.38249 8.82812 6.96573 8.82812 5.21737C8.82812 3.46901 10.2446 2.05225 11.9927 2.05225C13.7407 2.05225 15.1572 3.46901 15.1572 5.21737ZM13.3505 5.21737C13.3505 4.46833 12.7416 3.85934 11.9927 3.85934C11.2438 3.85934 10.6349 4.46833 10.6349 5.21737C10.6349 5.96641 11.2438 6.5754 11.9927 6.5754C12.7416 6.5754 13.3505 5.96641 13.3505 5.21737ZM15.6719 8.79272C15.6719 7.04435 17.0884 5.62759 18.8364 5.62759C20.5845 5.62759 22.001 7.04435 22.001 8.79272C22.001 10.5411 20.5845 11.9578 18.8364 11.9578C17.0884 11.9578 15.6719 10.5411 15.6719 8.79272ZM17.4786 8.79272C17.4786 9.54176 18.0875 10.1507 18.8364 10.1507C19.5853 10.1507 20.1942 9.54176 20.1942 8.79272C20.1942 8.04368 19.5853 7.43469 18.8364 7.43469C18.0875 7.43469 17.4786 8.04368 17.4786 8.79272ZM8.32912 8.79271C8.32912 7.04435 6.91261 5.62759 5.16456 5.62759C3.41651 5.62759 2 7.04435 2 8.79271C2 10.5411 3.41651 11.9578 5.16456 11.9578C6.91261 11.9578 8.32912 10.5411 8.32912 8.79271ZM3.80677 8.79271C3.80677 8.04367 4.41565 7.43468 5.16456 7.43468C5.91346 7.43468 6.52235 8.04367 6.52235 8.79271C6.52235 9.54175 5.91346 10.1507 5.16456 10.1507C4.41565 10.1507 3.80677 9.54175 3.80677 8.79271ZM16.7936 12.8325L16.7818 12.8425V12.8434L20.1027 16.8009C20.801 17.5526 20.9663 18.6423 20.5209 19.5694C20.081 20.4856 19.1044 21.0205 18.089 20.9699L13.7989 20.9879C13.7727 20.9961 13.7447 21.0015 13.7157 21.0033L11.9975 20.9961L10.2793 21.0033C10.2504 21.0015 10.2233 20.9961 10.1962 20.9879L5.90598 20.9699C4.89058 21.0214 3.91492 20.4856 3.47407 19.5694C3.0287 18.6423 3.19402 17.5526 3.89234 16.8009L7.28997 12.7521L7.27551 12.7394C8.54658 11.2305 9.98747 9.83545 11.9045 9.83545H11.9126C13.5143 9.83906 15.1106 10.8194 16.7936 12.8325ZM18.2534 19.0923C18.6193 19.1113 18.7783 18.8556 18.8298 18.7453C18.8813 18.6351 18.9743 18.3487 18.725 18.0803L15.34 14.0469L15.3382 14.0487C14.0554 12.5136 12.9018 11.7338 11.909 11.732H11.9054C10.861 11.732 9.91611 12.5678 8.83295 13.8364L5.27181 18.0803C5.02247 18.3487 5.11552 18.6351 5.16701 18.7453C5.21851 18.8556 5.3775 19.1104 5.74337 19.0923L11.9984 19.1158L18.2534 19.0923Z" fill="#0D0E36"/>
</svg>
