<svg width="24" height="24" viewBox="0 0 24 24" fill="none" xmlns="http://www.w3.org/2000/svg">
<path fill-rule="evenodd" clip-rule="evenodd" d="M19.8354 2.36281L19.8481 17.4508L19.8463 17.4517C19.8463 17.5775 19.7078 17.7575 19.5558 17.8751C19.5034 17.9312 19.4427 17.9819 19.374 18.0244L13.5263 21.6426C13.1418 21.8806 12.7057 22 12.2696 22C11.8606 22 11.4507 21.895 11.0825 21.6842L4.71729 18.0398C4.63224 17.991 4.55895 17.9303 4.49652 17.8616C4.35266 17.7259 4.23142 17.5567 4.23142 17.4508L4.21875 2.36281C4.21875 2.16286 4.38161 2 4.58157 2H5.74061C5.77137 2 5.80032 2.00543 5.82928 2.01267L18.309 2H18.3145H19.4726C19.6726 2 19.8354 2.16195 19.8354 2.36281ZM11.9828 20.1126C12.1673 20.2185 12.3944 20.2149 12.5754 20.1027H12.5745L17.9625 16.7695L17.9517 3.88464L6.10433 3.8955L6.11519 16.7541L11.9828 20.1126ZM14.5836 7.7017L15.6603 8.13056L15.6594 8.12785C15.8458 8.20204 15.9363 8.41285 15.8621 8.59923L13.7892 13.7926C13.4092 14.7472 12.4944 15.366 11.4648 15.3606C10.4469 15.3561 9.54302 14.7019 9.15305 13.7619L8.20755 11.575C8.13064 11.3905 8.2184 11.1778 8.40389 11.1009L9.47425 10.6576C9.65883 10.5807 9.87145 10.6684 9.94836 10.8539L10.9201 13.105C11.0603 13.4443 11.3598 13.4778 11.482 13.4778C11.6041 13.4769 11.9027 13.4389 12.0384 13.0978L14.1122 7.90437C14.1864 7.71798 14.3972 7.62751 14.5836 7.7017Z" fill="#0D0E36"/>
</svg>
