<svg width="24" height="24" viewBox="0 0 24 24" fill="none" xmlns="http://www.w3.org/2000/svg">
<path d="M12 2C6.47691 2 2 6.47691 2 12C2 17.5231 6.47691 22 12 22C17.5231 22 22 17.5231 22 12C22 6.47691 17.5222 2 12 2ZM12 20.1962C7.4807 20.1962 3.80375 16.5193 3.80375 12C3.80375 7.4807 7.4807 3.80375 12 3.80375C16.5193 3.80375 20.1962 7.4807 20.1962 12C20.1962 16.5193 16.5193 20.1962 12 20.1962Z" fill="#0D0E36"/>
<path d="M12.5707 10.252H11.4163C11.217 10.252 11.0547 10.4143 11.0547 10.6136L11.0673 17.6113C11.0673 17.8106 11.2297 17.9729 11.429 17.9729H12.5834C12.7827 17.9729 12.945 17.8106 12.945 17.6113L12.9324 10.6136C12.9324 10.4143 12.7701 10.252 12.5707 10.252Z" fill="#0D0E36"/>
<path d="M12.5707 6.61328H11.4163C11.217 6.61328 11.0547 6.77562 11.0547 6.97493L11.0673 8.47115C11.0673 8.67136 11.2297 8.8328 11.429 8.8328H12.5834C12.7827 8.8328 12.945 8.67046 12.945 8.47115L12.9324 6.97493C12.9324 6.77562 12.7701 6.61328 12.5707 6.61328Z" fill="#0D0E36"/>
</svg>
