<svg width="24" height="24" viewBox="0 0 24 24" fill="none" xmlns="http://www.w3.org/2000/svg">
<path fill-rule="evenodd" clip-rule="evenodd" d="M3.20352 6.07833L4.17823 6.48225C4.34728 6.55204 4.54025 6.4724 4.61034 6.30492L5.11666 5.04718C5.2453 4.74013 5.51743 4.70893 5.62958 4.70975C5.74091 4.71058 6.01303 4.74588 6.13673 5.05539L6.6513 6.31641C6.65212 6.31888 6.65336 6.32093 6.65459 6.32298L6.6546 6.32298C6.65583 6.32504 6.65707 6.32709 6.65789 6.32955L6.67686 6.37635C7.01908 7.23509 7.83299 7.84097 8.7607 7.85986C9.69912 7.87874 10.5411 7.33115 10.9014 6.47076L10.9567 6.33283L10.961 6.32523C10.9647 6.31868 10.9686 6.31201 10.9715 6.30492L11.477 5.04718C11.6057 4.74013 11.8786 4.70893 11.9899 4.70975C12.1013 4.71058 12.3734 4.74588 12.4971 5.05539L13.0117 6.31641C13.0249 6.34925 13.0438 6.37717 13.0653 6.40344C13.4133 7.24741 14.2197 7.84097 15.1376 7.85986C16.076 7.87874 16.9179 7.33115 17.2783 6.47076L17.7838 5.21302C17.7882 5.20199 17.7913 5.19031 17.7943 5.17914L17.7953 5.17525L17.8465 5.048C17.9751 4.74095 18.2472 4.70975 18.3594 4.71058C18.4707 4.7114 18.7428 4.7467 18.8665 5.05621L19.3811 6.31723C19.4487 6.48636 19.6409 6.56928 19.8107 6.50196L20.792 6.11445C20.9619 6.04713 21.0452 5.85584 20.9776 5.68672L20.4861 4.48399C20.143 3.62524 19.3283 3.02018 18.4006 3.00047C17.4622 2.98159 16.6202 3.52918 16.2599 4.38957L15.7544 5.64731C15.7499 5.65834 15.7468 5.67002 15.7439 5.68119L15.7428 5.68508L15.6917 5.81233C15.5631 6.11938 15.2909 6.15058 15.1788 6.14975C15.0675 6.14893 14.7953 6.11363 14.6716 5.80412L14.1571 4.5431C14.1439 4.51026 14.1249 4.48234 14.1035 4.45607C13.7563 3.61292 12.9506 3.01936 12.032 3.00047C11.0936 2.98159 10.2516 3.52918 9.89126 4.38957L9.83601 4.5275L9.83172 4.5351C9.82796 4.54165 9.82414 4.54832 9.82117 4.55541L9.31485 5.81315C9.18621 6.1202 8.91408 6.1514 8.80193 6.15058C8.6906 6.14975 8.41848 6.11445 8.29478 5.80494L7.78021 4.54392C7.77939 4.54145 7.77815 4.5394 7.77691 4.53735C7.77568 4.5353 7.77444 4.53324 7.77362 4.53078L7.75465 4.48399C7.41325 3.62524 6.59934 3.02018 5.67164 3.00047C4.73321 2.98159 3.89126 3.53001 3.5309 4.39039L3.0254 5.64814C2.95531 5.81644 3.0353 6.00855 3.20352 6.07833ZM20.4853 11.0543C20.143 10.1955 19.3291 9.58967 18.4014 9.57078C17.463 9.5519 16.6211 10.0995 16.2607 10.9599L15.7552 12.2176C15.7508 12.2286 15.7477 12.2403 15.7447 12.2515L15.7447 12.2515L15.7437 12.2554L15.6925 12.3826C15.5639 12.6897 15.2918 12.7209 15.1796 12.7201C15.0683 12.7192 14.7962 12.6839 14.6725 12.3744L14.1579 11.1134C14.1447 11.0806 14.1257 11.0527 14.1043 11.0264C13.7563 10.1824 12.9498 9.58884 12.032 9.56996C11.0936 9.55108 10.2516 10.0987 9.89126 10.9591L9.83601 11.097L9.83171 11.1046C9.82796 11.1111 9.82414 11.1178 9.82117 11.1249L9.31485 12.3826C9.18621 12.6897 8.91408 12.7209 8.80193 12.7201C8.6906 12.7192 8.41848 12.6839 8.29478 12.3744L7.78021 11.1134C7.77939 11.1109 7.77815 11.1089 7.77691 11.1068C7.77568 11.1048 7.77444 11.1027 7.77362 11.1003L7.75465 11.0535C7.41243 10.1947 6.59852 9.58884 5.67081 9.56996C4.73238 9.55108 3.89044 10.0987 3.53008 10.9591L3.0254 12.2176C2.95531 12.3859 3.0353 12.578 3.20352 12.6478L4.17823 13.0517C4.34728 13.1215 4.54025 13.0419 4.61034 12.8744L5.11666 11.6167C5.2453 11.3096 5.51743 11.2784 5.62958 11.2792C5.74091 11.2801 6.01303 11.3154 6.13673 11.6249L6.6513 12.8859C6.65212 12.8884 6.65336 12.8904 6.65459 12.8925C6.65583 12.8945 6.65707 12.8966 6.65789 12.899L6.67686 12.9458C7.01908 13.8046 7.83299 14.4105 8.7607 14.4293C9.69912 14.4482 10.5411 13.9006 10.9014 13.0402L10.9567 12.9023L10.961 12.8947L10.961 12.8947C10.9647 12.8882 10.9686 12.8815 10.9715 12.8744L11.477 11.6167C11.6057 11.3096 11.8786 11.2784 11.9899 11.2792C12.1013 11.2801 12.3734 11.3154 12.4971 11.6249L13.0117 12.8859C13.0249 12.9187 13.0438 12.9467 13.0653 12.9729C13.4133 13.8169 14.2197 14.4105 15.1376 14.4293C16.076 14.4482 16.9179 13.9006 17.2783 13.0402L17.7838 11.7825C17.7882 11.7715 17.7913 11.7598 17.7943 11.7486L17.7953 11.7447L17.8465 11.6175C17.9751 11.3104 18.2472 11.2792 18.3594 11.2801C18.4707 11.2809 18.7428 11.3162 18.8665 11.6257L19.3811 12.8867C19.4487 13.0558 19.6409 13.1388 19.8107 13.0714L20.792 12.6839C20.9619 12.6166 21.0452 12.4253 20.9776 12.2562L20.4861 11.0535L20.4853 11.0543ZM18.4023 16.1403C19.33 16.1592 20.1439 16.7651 20.4861 17.6238V17.6222L20.9776 18.8249C21.0452 18.9941 20.9619 19.1854 20.792 19.2527L19.8107 19.6402C19.6409 19.7075 19.4487 19.6246 19.3811 19.4555L18.8665 18.1944C18.7428 17.8849 18.4707 17.8496 18.3594 17.8488C18.2472 17.848 17.9751 17.8792 17.8465 18.1862L17.7953 18.3135L17.7943 18.3174C17.7913 18.3285 17.7882 18.3402 17.7838 18.3512L17.2783 19.609C16.9179 20.4694 16.076 21.017 15.1376 20.9981C14.2197 20.9792 13.4133 20.3856 13.0653 19.5417C13.0438 19.5154 13.0249 19.4875 13.0117 19.4546L12.4971 18.1936C12.3734 17.8841 12.1013 17.8488 11.9899 17.848C11.8786 17.8472 11.6057 17.8783 11.477 18.1854L10.9715 19.4431C10.9674 19.453 10.9616 19.462 10.9567 19.4711L10.9014 19.609C10.5411 20.4694 9.69912 21.017 8.7607 20.9981C7.83299 20.9792 7.01908 20.3733 6.67686 19.5146L6.65789 19.4678C6.65707 19.4653 6.65583 19.4633 6.65459 19.4612C6.65336 19.4591 6.65212 19.4571 6.6513 19.4546L6.13673 18.1936C6.01303 17.8841 5.74091 17.8488 5.62958 17.848C5.51743 17.8472 5.2453 17.8783 5.11666 18.1854L4.61034 19.4431C4.54025 19.6106 4.34728 19.6903 4.17823 19.6205L3.20352 19.2165C3.0353 19.1468 2.95531 18.9547 3.0254 18.7864L3.5309 17.5286C3.89126 16.6682 4.73321 16.1206 5.67164 16.1395C6.59934 16.1584 7.41325 16.7643 7.75547 17.623L7.77444 17.6698C7.77609 17.6747 7.77939 17.678 7.78104 17.683L8.29561 18.944C8.4193 19.2535 8.69143 19.2888 8.80275 19.2896C8.9149 19.2904 9.18703 19.2592 9.31567 18.9522L9.82199 17.6944C9.82496 17.6874 9.82879 17.6807 9.83254 17.6741C9.834 17.6716 9.83545 17.6691 9.83684 17.6665L9.89209 17.5286C10.2525 16.6682 11.0944 16.1206 12.0328 16.1395C12.9506 16.1584 13.7571 16.752 14.1051 17.5959C14.1266 17.6222 14.1455 17.6501 14.1587 17.683L14.6733 18.944C14.797 19.2535 15.0691 19.2888 15.1804 19.2896C15.2926 19.2904 15.5647 19.2592 15.6934 18.9522L15.7445 18.8249L15.7455 18.8211C15.7485 18.8099 15.7516 18.7982 15.756 18.7872L16.2615 17.5294C16.6219 16.669 17.4638 16.1215 18.4023 16.1403Z" fill="#0D0E36"/>
</svg>
