<svg width="24" height="24" viewBox="0 0 24 24" fill="none" xmlns="http://www.w3.org/2000/svg">
<path d="M19.6031 10.9626L13.0294 10.9686L13.0235 4.39693C13.0235 4.17718 12.8453 4 12.6266 4H11.3596C11.1398 4 10.9626 4.17817 10.9626 4.39693L10.9686 10.9706L4.39693 10.9765C4.17718 10.9765 4 11.1547 4 11.3734V12.6404C4 12.8592 4.17817 13.0374 4.39693 13.0374L10.9706 13.0314L10.9765 19.6031C10.9765 19.8218 11.1547 20 11.3734 20H12.6404C12.8602 20 13.0374 19.8218 13.0374 19.6031L13.0314 13.0294L19.6031 13.0235C19.8228 13.0235 20 12.8453 20 12.6266V11.3596C20 11.1398 19.8218 10.9626 19.6031 10.9626Z" fill="#0D0E36"/>
</svg>
