<svg width="24" height="24" viewBox="0 0 24 24" fill="none" xmlns="http://www.w3.org/2000/svg">
<path d="M21.7036 3.6343C21.3584 2.68321 20.445 2.05663 19.4346 2.00719L13.0499 2C13.0499 2 13.0445 2 13.0418 2H12.8018H12.6112C12.6085 2 12.6067 2 12.6049 2L4.42041 2.00719C3.40994 2.05663 2.49656 2.68321 2.15045 3.6343C1.80074 4.59619 2.07313 5.65876 2.83818 6.33387L9.50694 12.8279L9.49525 21.6395C9.49525 21.8391 9.65707 22 9.85575 22H11.0065C11.0352 22 11.064 21.9955 11.091 21.9892L12.8899 22C12.8899 22 12.8926 22 12.8935 22H14.0442C14.2437 22 14.4047 21.8382 14.4047 21.6395L14.4164 12.756L21.0141 6.33297C21.78 5.65786 22.0515 4.59529 21.7018 3.63341L21.7036 3.6343ZM3.90799 4.28065C3.94844 4.16649 4.08059 3.8977 4.44469 3.87972L12.7919 3.86983L19.4112 3.87972C19.7753 3.8977 19.9074 4.16649 19.9479 4.28065C19.9883 4.39482 20.0513 4.68788 19.778 4.9288L19.4705 5.22816L4.39704 5.23984L4.0779 4.9288C3.8046 4.68788 3.86843 4.39572 3.90799 4.28065ZM12.6732 11.8427C12.5887 11.9173 12.5482 12.0234 12.5527 12.1286C12.55 12.1474 12.5464 12.1672 12.5464 12.187L12.5357 20.1248L11.3706 20.1176L11.3813 12.187C11.3813 12.0755 11.3301 11.9775 11.251 11.911L6.31909 7.10967L17.5458 7.10068L12.6732 11.8427Z" fill="#0D0E36"/>
</svg>
