<svg width="24" height="24" viewBox="0 0 24 24" fill="none" xmlns="http://www.w3.org/2000/svg">
<path d="M21.6385 11.0938H18.1849C17.9454 11.0281 17.8388 10.8346 17.8017 10.7419C17.7556 10.6294 17.677 10.3396 17.94 10.0859L20.4376 7.66415C20.5813 7.52466 20.584 7.29698 20.4448 7.15389L19.6379 6.32865C19.4978 6.18556 19.2692 6.18287 19.1255 6.32145L16.6279 8.74316C15.9909 9.36141 15.7406 10.2523 15.9457 11.0938H12.9212V8.03132C13.7661 8.2347 14.6607 7.98632 15.2815 7.35187L17.7132 4.86447C17.8532 4.72138 17.8496 4.4928 17.706 4.35421L16.8773 3.55058C16.7336 3.41109 16.5041 3.41469 16.365 3.55778L13.9333 6.04518C13.6776 6.30616 13.3875 6.22876 13.2746 6.18287C13.1815 6.14507 12.9881 6.03978 12.9212 5.8013V2.36087C12.9212 2.16109 12.7586 2 12.5589 2H11.3788C11.1781 2 11.0164 2.16199 11.0164 2.36087V5.8004C10.9504 6.03888 10.7562 6.14507 10.6631 6.18197C10.5501 6.22786 10.2592 6.30616 10.0043 6.04428L7.57267 3.55688C7.43261 3.41379 7.20399 3.41109 7.06031 3.54968L6.23169 4.35331C6.08801 4.4928 6.0853 4.72048 6.22446 4.86357L8.65612 7.35097C9.27691 7.98542 10.1715 8.2347 11.0164 8.03042V11.0929H8.05792C8.26214 10.2514 8.01274 9.36051 7.37568 8.74226L4.87805 6.32055C4.73438 6.18107 4.50486 6.18467 4.3657 6.32775L3.55876 7.15299C3.4187 7.29608 3.42231 7.52466 3.56599 7.66325L6.06361 10.085C6.32567 10.3396 6.24795 10.6285 6.20187 10.741C6.16392 10.8337 6.05819 11.0263 5.81873 11.0929H2.36235C2.16175 11.0929 2 11.2549 2 11.4537V12.629C2 12.8288 2.16265 12.9899 2.36235 12.9899H5.57204H5.81602C6.05548 13.0556 6.16211 13.2491 6.19916 13.3418C6.24524 13.4543 6.32386 13.7441 6.0609 13.9978L3.56328 16.4195C3.4196 16.559 3.41689 16.7867 3.55605 16.9298L4.36299 17.755C4.50305 17.8981 4.73167 17.9008 4.87534 17.7622L7.37297 15.3405C8.01003 14.7223 8.26033 13.8314 8.05521 12.9899H11.0137V15.9696C10.1688 15.7662 9.2742 16.0146 8.65341 16.649L6.22175 19.1364C6.08169 19.2795 6.0853 19.5081 6.22898 19.6467L7.0576 20.4503C7.20128 20.5898 7.4308 20.5862 7.56996 20.4431L10.0016 17.9557C10.2573 17.6947 10.5474 17.7721 10.6604 17.818C10.7534 17.8558 10.9468 17.9611 11.0137 18.1996V21.6391C11.0137 21.8389 11.1763 22 11.376 22H12.5562C12.7568 22 12.9185 21.838 12.9185 21.6391V18.1996C12.9845 17.9611 13.1788 17.8549 13.2719 17.818C13.3848 17.7721 13.6758 17.6938 13.9306 17.9557L16.3623 20.4431C16.5023 20.5862 16.7309 20.5889 16.8746 20.4503L17.7032 19.6467C17.8469 19.5072 17.8496 19.2795 17.7105 19.1364L15.2788 16.649C14.658 16.0146 13.7634 15.7653 12.9185 15.9696V12.9899H15.943C15.7388 13.8314 15.9882 14.7223 16.6252 15.3405L19.1228 17.7622C19.2665 17.9017 19.496 17.8981 19.6352 17.755L20.4421 16.9298C20.5822 16.7867 20.5786 16.5581 20.4349 16.4195L17.9373 13.9978C17.6752 13.7432 17.7529 13.4543 17.799 13.3418C17.837 13.2491 17.9427 13.0565 18.1822 12.9899H21.6358C21.8364 12.9899 21.9982 12.8279 21.9982 12.629V11.4537C21.9982 11.254 21.8355 11.0929 21.6358 11.0929L21.6385 11.0938Z" fill="#0D0E36"/>
</svg>
