<svg width="24" height="24" viewBox="0 0 24 24" fill="none" xmlns="http://www.w3.org/2000/svg">
<path fill-rule="evenodd" clip-rule="evenodd" d="M21.8942 2.36038V3.35616H21.8924L21.9041 21.6414C21.9041 21.8391 21.7432 22 21.5437 22H20.3933C20.3636 22 20.334 21.9955 20.3061 21.9883L3.53143 21.9991H3.52334H2.37297H2.35859C2.16087 21.9991 2 21.8382 2 21.6387V20.4884C2 20.4578 2.00449 20.429 2.01168 20.4012L2.0009 3.53141V3.52332V2.37297V2.35859C2.0009 2.15997 2.16267 2 2.36129 2H3.51255C3.54311 2 3.57187 2.00449 3.59973 2.01168L20.3753 2H20.3825H21.5356C21.7333 2 21.8942 2.16087 21.8942 2.36038ZM3.87654 8.69812L20.0257 8.68644L20.0221 3.87202L3.87294 3.88281L3.87654 8.69812ZM7.39684 16.6994L16.4254 16.6895L16.4155 10.5621L7.38695 10.5683L7.39684 16.6994ZM5.51581 10.5701H3.87833L3.87923 10.571L3.88552 20.128L20.0347 20.1172L20.0284 10.5603H18.2885L18.2993 17.0346C18.3002 17.04 18.3011 17.0445 18.3011 17.049V17.9171V18.1993C18.3011 18.398 18.1402 18.5597 17.9425 18.5597L5.8744 18.5723C5.67668 18.5723 5.51581 18.4114 5.51581 18.2119V17.0616C5.51581 17.0319 5.5203 17.0031 5.52659 16.9762L5.51581 10.5701ZM6.90813 7.31927C6.70951 7.31927 6.54774 7.1584 6.54774 6.95889L6.53516 5.85257C6.53516 5.65396 6.69603 5.49219 6.89554 5.49219H8.04591C8.24453 5.49219 8.4063 5.65306 8.4063 5.85257L8.41888 6.95889C8.41888 7.15751 8.25801 7.31927 8.05849 7.31927H6.90813ZM15.8925 7.31927H17.0429C17.2415 7.31927 17.4033 7.15751 17.4033 6.95889L17.3907 5.85257C17.3907 5.65306 17.2289 5.49219 17.0303 5.49219H15.8799C15.6813 5.49219 15.5195 5.65396 15.5195 5.85257L15.5321 6.95889C15.5321 7.1584 15.6939 7.31927 15.8925 7.31927ZM12.5311 7.31927H11.3808C11.1822 7.31927 11.0204 7.1584 11.0204 6.95889L11.0078 5.85257C11.0078 5.65396 11.1696 5.49219 11.3682 5.49219H12.5186C12.7172 5.49219 12.879 5.65306 12.879 5.85257L12.8915 6.95889C12.8915 7.15751 12.7298 7.31927 12.5311 7.31927Z" fill="#0D0E36"/>
</svg>
