<svg width="24" height="24" viewBox="0 0 24 24" fill="none" xmlns="http://www.w3.org/2000/svg">
<path fill-rule="evenodd" clip-rule="evenodd" d="M15.4425 2.3042C19.1913 2.3042 22.2422 5.35415 22.2422 9.10294L22.2431 9.10384C22.2431 12.8526 19.1922 15.9026 15.4434 15.9026C15.1897 15.9026 14.9369 15.8881 14.6859 15.8601C13.448 17.6217 11.4011 18.7747 9.08432 18.7747C5.30571 18.7747 2.24219 15.7112 2.24219 11.9326C2.24219 8.154 5.30571 5.09141 9.08432 5.09141C9.36602 5.09141 9.64321 5.11037 9.91588 5.14378C11.1835 3.37412 13.2322 2.3042 15.4425 2.3042ZM20.3353 8.10344C17.5941 7.47955 16.9196 5.32255 16.7544 4.28604C18.5575 4.77811 19.9579 6.25614 20.3353 8.10344ZM5.81133 15.7563C6.14359 16.0407 6.51197 16.2836 6.91015 16.475C10.1877 12.1294 8.89381 8.06913 8.42791 6.94143C8.12454 6.98115 7.8302 7.04706 7.54669 7.13826C7.71914 7.70075 7.91146 8.52328 7.95931 9.4984C8.03967 11.1272 7.72275 13.509 5.81133 15.7563ZM5.92419 8.01586C4.78112 8.94042 4.04798 10.3525 4.04798 11.9335C4.04798 12.7976 4.26738 13.6111 4.65201 14.3225C6.54628 11.8956 6.26909 9.34401 5.92419 8.01586ZM8.78275 16.9599C8.88207 16.9662 8.98319 16.9698 9.08432 16.9698H9.08522C11.8625 16.9698 14.1216 14.7099 14.1216 11.9335C14.1216 9.60765 12.5361 7.64568 10.3899 7.06964C10.5903 7.71701 10.7899 8.58107 10.8594 9.59862C10.9849 11.4387 10.6951 14.1275 8.78275 16.9599ZM14.9197 4.13796C13.7306 4.26346 12.6363 4.80971 11.8237 5.66384L11.8246 5.66294C14.2389 6.71932 15.9274 9.12822 15.9274 11.9326C15.9274 12.6883 15.8028 13.4142 15.577 14.0932C17.9823 14.03 19.9678 12.2585 20.3642 9.94984C17.5941 9.47764 16.2506 7.86237 15.6086 6.56492C15.1265 5.5898 14.9703 4.65441 14.9197 4.13796ZM16.5156 19.4374C16.5156 17.861 17.7941 16.5825 19.3706 16.5825C20.947 16.5825 22.2255 17.861 22.2255 19.4374C22.2255 21.0139 20.947 22.2924 19.3706 22.2924C17.7941 22.2924 16.5156 21.0139 16.5156 19.4374ZM18.3214 19.4374C18.3214 20.0162 18.7918 20.4866 19.3706 20.4866C19.9493 20.4866 20.4197 20.0162 20.4197 19.4374C20.4197 18.8587 19.9493 18.3883 19.3706 18.3883C18.7918 18.3883 18.3214 18.8587 18.3214 19.4374Z" fill="#0D0E36"/>
</svg>
