<svg width="24" height="24" viewBox="0 0 24 24" fill="none" xmlns="http://www.w3.org/2000/svg">
<path fill-rule="evenodd" clip-rule="evenodd" d="M21.9613 15.7698L21.882 16.7898H21.8802C21.8027 18.4307 21.2791 19.7247 20.3194 20.6375C19.267 21.6387 17.8549 21.9306 17.1773 21.9865L3.52737 21.9991H2.37396C2.17481 21.9991 2.01262 21.8369 2.01262 21.6378L2 2.36855C2 2.16851 2.1622 2.00721 2.36134 2.00721H3.51476C3.51502 2.00721 3.52438 2.0072 3.54237 2.00718C4.20156 2.00637 16.4412 1.99142 16.4798 2.00721H17.162C17.3611 2.00721 17.5233 2.16851 17.5233 2.36855L17.535 15.412L21.5999 15.4084C21.7991 15.4084 21.9613 15.5706 21.9613 15.7698ZM6.64609 15.7824C6.64609 15.5832 6.80739 15.421 7.00743 15.421L7.00653 15.4201L15.6589 15.4129L15.649 3.85898L3.8779 3.87069L3.88871 20.0455C4.30592 20.0032 5.09169 19.8446 5.70354 19.2534C6.2442 18.7317 6.55959 17.9595 6.64789 16.9547C6.64789 16.9516 6.64744 16.9484 6.64699 16.9453C6.64654 16.9421 6.64609 16.939 6.64609 16.9358V15.7824ZM7.45889 20.1194L16.9223 20.1104V20.1113C16.9223 20.1113 18.1613 20.0942 19.0309 19.2543C19.5103 18.7912 19.8139 18.1316 19.9374 17.2872L8.51588 17.2971C8.39243 18.4235 8.0383 19.3679 7.45889 20.1194ZM8.62452 11.8634C9.13815 12.3518 9.832 12.6527 10.5952 12.6527H10.5979C11.2269 12.6527 11.8234 12.4527 12.3236 12.0742L13.4112 13.5115C12.5957 14.1288 11.6234 14.455 10.5979 14.455C8.77231 14.455 7.18907 13.4007 6.42313 11.8697L5.31927 11.8724C5.12013 11.8724 4.95793 11.7111 4.95793 11.511V10.3576C4.95793 10.1585 5.11923 9.99629 5.31927 9.99629L5.93653 9.99449C5.93293 9.92601 5.93112 9.85752 5.93112 9.78904C5.93112 9.77045 5.93181 9.75232 5.93249 9.7343C5.93316 9.71651 5.93383 9.69882 5.93383 9.68091L5.31837 9.68271C5.11923 9.68271 4.95703 9.52051 4.95703 9.32137V8.16795C4.95703 7.96881 5.11833 7.80661 5.31837 7.80661L6.37537 7.80391C7.12238 6.22157 8.73356 5.12402 10.5961 5.12402C11.6288 5.12402 12.6083 5.45473 13.4274 6.081L12.3326 7.51285C11.8298 7.12898 11.2296 6.92623 10.5952 6.92623C9.78965 6.92623 9.06156 7.26144 8.54072 7.7985L9.95365 7.7949C10.1528 7.7949 10.315 7.95709 10.315 8.15624V9.30965C10.315 9.5088 10.1537 9.67099 9.95365 9.67099L7.73423 9.6773C7.73394 9.68935 7.73355 9.70149 7.73316 9.7137C7.73235 9.73893 7.73153 9.76444 7.73153 9.78994C7.73153 9.85752 7.73513 9.9242 7.73964 9.98998L9.95365 9.98368C10.1528 9.98368 10.315 10.1459 10.315 10.345V11.4984C10.315 11.6976 10.1537 11.8598 9.95365 11.8598L8.62452 11.8634Z" fill="#0D0E36"/>
</svg>
