<svg width="24" height="24" viewBox="0 0 24 24" fill="none" xmlns="http://www.w3.org/2000/svg">
<path fill-rule="evenodd" clip-rule="evenodd" d="M20.0817 7.68489C20.0817 7.59274 20.0465 7.50963 19.9896 7.44549L19.9876 7.44188C19.9837 7.4348 19.9798 7.42754 19.9751 7.42291L14.7067 2.17254C14.554 2 14.2975 2 14.2369 2H5.51946H4.36225C4.16261 2 4 2.16261 4 2.36225L4.01265 21.632C4.01265 21.8316 4.17525 21.9942 4.3749 21.9942H5.53121C5.55379 21.9942 5.57637 21.9915 5.59715 21.9879C5.64413 22.0032 19.4629 21.9996 19.4629 21.9996C19.4777 21.9996 19.4915 21.9981 19.5054 21.9966L19.5198 21.9951H19.7303C19.93 21.9951 20.0926 21.8325 20.0926 21.6329L20.0799 7.68489H20.0817ZM5.88262 3.89255L12.4808 3.88352L12.4907 9.058C12.4907 9.1113 12.4998 9.16099 12.5133 9.20796C12.5278 9.29288 12.5757 9.36786 12.6488 9.42296C12.661 9.43357 12.6743 9.44164 12.6879 9.44983L12.6958 9.45458C12.6972 9.45548 12.6983 9.45639 12.6994 9.45729C12.7005 9.45819 12.7017 9.4591 12.703 9.46C12.7136 9.46601 12.7241 9.47015 12.7351 9.47449L12.7419 9.47716C12.8042 9.50427 12.8747 9.52143 12.9506 9.52143L18.2018 9.51149L18.2118 20.1188L5.89346 20.1306L5.88262 3.89255ZM14.3697 7.63791L14.3634 4.48606L17.5198 7.63159L14.3697 7.63791ZM8.73171 14.0624L15.6858 14.0498C15.9306 14.0498 16.1285 13.8871 16.1285 13.6875V12.5312C16.1285 12.3316 15.9306 12.1689 15.6858 12.1689L8.73171 12.1816C8.4869 12.1816 8.28906 12.3442 8.28906 12.5438V13.7002C8.28906 13.8998 8.4869 14.0624 8.73171 14.0624ZM8.73171 15.5551L15.6858 15.5425C15.9306 15.5425 16.1285 15.7042 16.1285 15.9047V17.061C16.1285 17.2607 15.9306 17.4233 15.6858 17.4233L8.73171 17.4359C8.4869 17.4359 8.28906 17.2742 8.28906 17.0737V15.9174C8.28906 15.7177 8.4869 15.5551 8.73171 15.5551Z" fill="#0D0E36"/>
</svg>
