<svg width="24" height="24" viewBox="0 0 24 24" fill="none" xmlns="http://www.w3.org/2000/svg">
<path d="M21.9977 4.90148C21.9977 3.33549 20.7277 2.06547 19.1617 2.06547C18.5706 2.06547 18.0217 2.24665 17.567 2.55608C17.184 2.40271 16.7876 2.28342 16.3795 2.2018C14.9427 1.91479 13.4835 2.10045 12.1623 2.72111C10.7408 2.05381 9.4295 2 9.05011 2C7.26799 2 5.57465 2.72559 4.28223 4.04224C2.87052 5.47998 2.08305 7.49442 2.12251 9.56895C2.15928 11.5448 2.92074 13.3924 4.26608 14.7701C5.32262 15.8517 6.64016 16.5424 8.06263 16.7809L8.09223 21.6107C8.09403 21.8027 8.25726 21.9569 8.45547 21.9543L9.6035 21.9417C9.80171 21.9399 9.96136 21.7821 9.95956 21.5901L9.92997 16.833C10.6233 16.7567 11.2941 16.5737 11.9345 16.2876C12.0422 16.3379 12.1507 16.3845 12.261 16.4284L11.2161 21.3345C11.1758 21.5282 11.3013 21.7175 11.495 21.7578L12.6189 21.9919C12.8135 22.0323 13.0036 21.9085 13.044 21.7148L14.0736 16.8805C14.3131 16.9065 14.5526 16.92 14.7911 16.92C16.2046 16.92 17.593 16.4733 18.8002 15.6141C20.3689 14.4974 21.447 12.8157 21.8344 10.8775C22.1277 9.41289 21.9932 7.90878 21.464 6.55446C21.7986 6.08897 21.9968 5.51854 21.9968 4.90058L21.9977 4.90148ZM19.1617 3.85928C19.7366 3.85928 20.2039 4.32656 20.2039 4.90148C20.2039 5.47639 19.7366 5.94367 19.1617 5.94367C18.5868 5.94367 18.1195 5.47639 18.1195 4.90148C18.1195 4.32656 18.5868 3.85928 19.1617 3.85928ZM5.5621 5.2988C6.5146 4.32836 7.75321 3.7938 9.05011 3.7938C9.38645 3.7938 9.8331 3.84313 10.3174 3.96421C9.1407 5.04677 8.33081 6.48899 8.00613 8.11328C7.78549 9.21826 7.80433 10.3322 8.04918 11.3888L4.27505 11.482C4.05262 10.8695 3.92885 10.2129 3.9163 9.53576C3.8867 7.94018 4.48672 6.39571 5.56299 5.2988H5.5621ZM5.36926 13.3225L8.74786 13.2391C8.8232 13.379 8.90123 13.5171 8.98554 13.6525C9.29855 14.1539 9.66269 14.6051 10.0708 15.0015C9.81068 15.049 9.54699 15.0759 9.27882 15.0804C9.24743 15.0804 9.21604 15.0804 9.18465 15.0804C7.82585 15.0804 6.53792 14.527 5.54954 13.5153C5.48765 13.4525 5.42756 13.3871 5.36926 13.3216V13.3225ZM13.8144 15.0302C12.4475 14.7566 11.2735 13.9306 10.5076 12.7027C10.4618 12.6283 10.417 12.5538 10.3748 12.4776L18.0065 13.9682C17.9267 14.0319 17.8451 14.0938 17.7616 14.1539C16.5831 14.9925 15.1813 15.3037 13.8144 15.0302ZM20.0774 10.5268C19.9474 11.1753 19.7187 11.7852 19.4021 12.3377L9.69946 10.4425C9.61336 9.79587 9.63309 9.12857 9.76583 8.46397C10.0636 6.97511 10.8861 5.68716 12.0807 4.8369C13.2592 3.9983 14.6602 3.68707 16.0279 3.96063C16.1706 3.98933 16.3123 4.02431 16.4513 4.06556C16.3697 4.33015 16.3257 4.61088 16.3257 4.90148C16.3257 6.46746 17.5957 7.73748 19.1617 7.73748C19.4317 7.73748 19.6926 7.69891 19.9402 7.62806C20.2209 8.55097 20.272 9.54922 20.0765 10.5259L20.0774 10.5268Z" fill="#0D0E36"/>
</svg>
