<svg width="24" height="24" viewBox="0 0 24 24" fill="none" xmlns="http://www.w3.org/2000/svg">
<path fill-rule="evenodd" clip-rule="evenodd" d="M21.9874 4.3623C21.9874 4.16173 21.8247 4 21.625 4H20.4686H20.464L7.57018 4.01175C7.54217 4.00452 7.51326 4 7.48254 4H6.32606C6.12548 4 5.96376 4.16263 5.96376 4.3623L5.97641 16.6011C5.97641 16.8017 6.13904 16.9634 6.33871 16.9634H7.49519H7.50242L20.3927 16.9517C20.4207 16.9589 20.4505 16.9634 20.4812 16.9634H21.6377C21.8383 16.9634 22 16.8008 22 16.6011L21.9874 4.3623ZM19.2796 15.0706L17.6614 10.9985C17.2765 10.048 16.3594 9.43546 15.3313 9.44721C14.3148 9.45805 13.4158 10.1158 13.0328 11.0572L11.4977 15.0778L7.85659 15.0814L7.84665 5.89374L20.1081 5.8829L20.118 15.0706H19.2805H19.2796ZM13.5116 15.076L17.2554 15.0724L15.9176 11.7051C15.7803 11.3653 15.4812 11.3283 15.3593 11.3283C15.2373 11.3283 14.9382 11.3644 14.8 11.7033L13.5116 15.076ZM16.8644 18.9213L3.89283 18.9331L3.88199 8.06666C3.88199 7.86608 3.71936 7.70435 3.51969 7.70435H2.3623C2.16173 7.70435 2 7.86698 2 8.06666L2.01175 19.2095C2.00452 19.2375 2 19.2665 2 19.2963V20.4528C2 20.6533 2.16263 20.8151 2.3623 20.8151L16.8644 20.8024C17.065 20.8024 17.2267 20.6398 17.2267 20.4401V19.2836C17.2267 19.083 17.0641 18.9213 16.8644 18.9213ZM9.61376 8.97468C9.61376 8.27356 10.1821 7.70435 10.8841 7.70435C11.5852 7.70435 12.1544 8.27356 12.1544 8.97468C12.1544 9.67579 11.5852 10.245 10.8841 10.245C10.183 10.245 9.61376 9.67579 9.61376 8.97468Z" fill="#0D0E36"/>
</svg>
