<svg width="24" height="24" viewBox="0 0 24 24" fill="none" xmlns="http://www.w3.org/2000/svg">
<path d="M16.2201 10.2228C16.1571 10.185 16.104 10.1526 16.0635 10.1265C15.7424 9.91957 15.3762 9.10899 15.2754 7.49773H16.9533C17.4481 7.49773 17.8493 7.09829 17.8529 6.60438C17.8529 6.51892 17.8511 4.50101 16.5161 3.15604C15.755 2.38865 14.7438 2 13.5112 2H6.31762C5.82101 2 5.41797 2.40304 5.41797 2.89964V5.36197C5.41797 5.85858 5.82101 6.26162 6.31762 6.26162H8.66211C8.9518 6.26162 9.08675 6.47303 9.14792 6.64037C8.99858 7.23323 8.35893 7.96914 7.86502 8.43786C7.67519 8.61779 7.6545 8.91197 7.81734 9.11529L8.08094 9.44456L8.31664 9.73964C8.49747 9.96635 8.83394 9.99334 9.04716 9.79632C9.48349 9.39148 10.1582 8.68796 10.5829 7.86658C10.4038 8.97135 10.0287 9.91687 9.70301 10.1535C9.50868 10.2947 9.32065 10.4243 9.13803 10.5493C8.02876 11.3122 6.98066 12.0328 6.98066 13.9482V21.1004C6.98066 21.597 7.38371 22 7.88031 22H18.0985C18.5952 22 18.9982 21.597 18.9982 21.1004V13.9482C18.9982 11.9087 16.9785 10.6834 16.2183 10.2219L16.2201 10.2228ZM8.66211 4.46233H7.21727V3.79929H13.5112C14.5656 3.79929 15.2799 4.21942 15.6956 5.08308C15.7954 5.2909 15.8674 5.50232 15.9196 5.69754H10.6872C10.3589 5.08758 9.7264 4.46233 8.66121 4.46233H8.66211ZM12.509 15.3372V17.4271H8.78176V15.3372H12.509ZM17.2016 20.1998H8.78176V19.2264H12.8608C13.6588 19.2264 14.3083 18.5769 14.3083 17.7789V14.9855C14.3083 14.1875 13.6588 13.5379 12.8608 13.5379H8.81055C8.90592 12.9244 9.26758 12.6446 10.1591 12.031C10.3499 11.8997 10.5478 11.7638 10.761 11.6091C11.8019 10.8543 12.2985 8.97944 12.4433 7.49593H13.4725C13.5877 9.62719 14.1293 11.0189 15.0883 11.637C15.1396 11.6703 15.2071 11.7117 15.2871 11.7593C15.8107 12.0769 17.2016 12.9208 17.2016 13.9473V20.1998Z" fill="#0D0E36"/>
</svg>
