<svg width="24" height="24" viewBox="0 0 24 24" fill="none" xmlns="http://www.w3.org/2000/svg">
<path d="M21.1895 12.7847L12.9053 6.94831V5.4847C12.9053 5.1188 13.1682 4.97244 13.2812 4.92636C13.3941 4.88028 13.685 4.80168 13.9398 5.06459L14.9572 6.14784C15.0972 6.29149 15.3258 6.2942 15.4694 6.15507L16.298 5.34828C16.4416 5.20824 16.4443 4.97966 16.3052 4.83601L15.2878 3.75276C14.5723 3.01734 13.4917 2.7978 12.5439 3.19623C11.607 3.59014 11.0233 4.53877 11.0233 5.55517V6.97993L2.81048 12.7847C2.07593 13.4876 1.79494 14.5654 2.15815 15.5141C2.52587 16.4744 3.43209 17.1023 4.45756 17.1105L6.58441 17.1168L6.59164 21.3857C6.59164 21.5022 6.66482 21.6034 6.77324 21.6585C6.82655 21.6892 6.88798 21.7091 6.95484 21.7091L15.623 21.6983C15.6411 21.701 15.6592 21.7028 15.6773 21.7028H16.8337C17.0343 21.7028 17.196 21.5609 17.196 21.3866V21.3351C17.196 21.3351 17.196 21.3351 17.196 21.3342V20.1777C17.196 20.1705 17.1942 20.1633 17.1942 20.1561L17.1888 17.1195L19.5424 17.1114C20.5679 17.1023 21.4741 16.4744 21.8419 15.515C22.2051 14.5654 21.9241 13.4885 21.1895 12.7856V12.7847ZM15.3041 15.3587L15.3122 19.8173L8.47092 19.8263L8.46279 15.3677L15.3041 15.3587ZM20.0818 14.8491C20.0367 14.9629 19.893 15.2268 19.5262 15.2295L17.1852 15.2376V15.0786C17.1915 15.0515 17.196 15.0226 17.196 14.9937V13.8372C17.196 13.6367 17.0334 13.4749 16.8337 13.4749L6.95394 13.4876C6.75336 13.4876 6.59164 13.6502 6.59164 13.8499V14.1336C6.58441 14.1589 6.57899 14.1851 6.57899 14.2122L6.58079 15.2358L4.47292 15.2295C4.107 15.2268 3.96244 14.962 3.91727 14.8491C3.87209 14.7362 3.7962 14.4444 4.06093 14.1914L11.9855 8.57726L19.9373 14.1914C20.202 14.4444 20.1261 14.7353 20.0809 14.8491H20.0818Z" fill="#0D0E36"/>
</svg>
