<svg width="24" height="24" viewBox="0 0 24 24" fill="none" xmlns="http://www.w3.org/2000/svg">
<path d="M19.8177 6.73161L19.2558 6.17997C19.1383 6.06455 18.9819 6 18.8145 6C18.6481 6 18.4917 6.06358 18.3741 6.17899L9.96866 14.4165C9.8521 14.5309 9.69668 14.5935 9.5323 14.5935C9.53031 14.5935 9.52931 14.5935 9.52732 14.5935C9.36094 14.5926 9.20453 14.527 9.08896 14.4097L5.64089 10.8719C5.52433 10.7545 5.36891 10.689 5.20254 10.6861C5.19955 10.6861 5.19656 10.6861 5.19357 10.6861C5.03018 10.6861 4.87676 10.7477 4.7592 10.8592L4.18934 11.403C4.06979 11.5165 4.00304 11.67 4.00005 11.8334C3.99805 11.9967 4.05982 12.1512 4.17639 12.2686L8.43342 16.626C8.71835 16.9136 9.09992 17.074 9.50839 17.0769H9.52035C9.92383 17.0769 10.3034 16.9224 10.5903 16.6426L19.8167 7.59723C20.0598 7.35857 20.0608 6.97027 19.8167 6.73064L19.8177 6.73161Z" fill="#0D0E36"/>
</svg>
