<svg width="24" height="24" viewBox="0 0 24 24" fill="none" xmlns="http://www.w3.org/2000/svg">
<path d="M21.99 12.2461C21.9031 11.3247 21.2698 10.5618 20.3828 10.3063L18.887 9.98196C18.3561 9.1113 17.5044 8.54051 16.3719 8.30224C16.3719 8.20439 16.3719 8.11651 16.3719 8.04584C16.3719 7.81571 16.429 7.47596 16.4897 7.11628C16.6818 5.9874 16.9717 4.28049 15.6272 3.36543C14.5128 2.60711 12.9581 2.94414 11.822 3.19148C11.5266 3.2558 11.2222 3.32194 11.0528 3.33553H11.0247C10.8544 3.32194 10.5472 3.2558 10.2492 3.19238C9.08947 2.94505 7.50215 2.60711 6.38686 3.36543C5.04236 4.28049 5.33228 5.9874 5.52435 7.11628C5.58596 7.47596 5.64304 7.81481 5.64213 8.04584C5.64213 8.11832 5.64213 8.20892 5.64213 8.30858C3.46954 8.77064 2.78097 10.3607 2.60883 11.7287C2.40317 13.3586 2.04892 18.6895 2.01631 19.1779C2.00634 19.2105 2 19.2449 2 19.2812V20.4408C2 20.642 2.16217 20.8042 2.36149 20.8042H3.53114L3.5402 21.6368C3.5402 21.8379 3.70328 22.0001 3.90351 22.0001H5.06319C5.26342 22.0001 5.4265 21.837 5.4265 21.6368L5.41744 20.8014L17.6503 20.7924L17.6593 21.6359C17.6593 21.837 17.8224 21.9992 18.0227 21.9992H19.1823C19.3826 21.9992 19.5456 21.8361 19.5456 21.6359L19.5366 20.7906H19.8057C20.005 20.7906 20.1672 20.6275 20.1672 20.4273V19.2676C20.1672 19.2322 20.1608 19.1996 20.1518 19.167C20.13 18.8907 19.9715 16.9237 19.8011 15.0193L20.7642 14.454C21.5706 14.0218 22.0752 13.1566 21.9891 12.2452L21.99 12.2461ZM3.85006 18.916C3.86818 18.6415 3.89536 18.2447 3.92797 17.7763L18.2183 17.7645C18.2573 18.2311 18.2899 18.627 18.3126 18.9061L3.84915 18.917L3.85006 18.916ZM7.40612 4.86305C7.88086 4.53961 9.12661 4.80597 9.87044 4.96452C10.2827 5.05241 10.6378 5.12851 10.9395 5.14572L11.0836 5.14754L11.137 5.14572C11.4424 5.1276 11.7966 5.05059 12.2061 4.96181C12.9282 4.80507 14.1368 4.54323 14.607 4.86305C14.9622 5.10495 14.8652 5.85603 14.7031 6.81277C14.6288 7.25127 14.5581 7.66532 14.559 8.05127C14.559 8.08842 14.559 8.1301 14.559 8.1763H7.45413C7.45413 8.131 7.45413 8.08842 7.45413 8.05127C7.45504 7.66532 7.38528 7.25127 7.31008 6.81277C7.147 5.85603 7.05096 5.10495 7.40521 4.86305H7.40612ZM7.00113 9.98831H15.0772C17.1493 9.98831 17.5524 11.042 17.6729 11.9598C17.7717 12.7117 17.923 14.3407 18.0571 15.8773L4.06297 15.8891C4.17712 14.348 4.3094 12.7099 4.40544 11.9561C4.58211 10.5591 5.33409 9.98831 7.00113 9.98831ZM20.0195 12.9328L19.6272 13.1693C19.5746 12.6393 19.5257 12.1781 19.484 11.8402L19.9135 11.9335C20.2306 12.025 20.2913 12.2886 20.3031 12.3974C20.3148 12.5061 20.3103 12.777 20.0195 12.9328Z" fill="#0D0E36"/>
</svg>
