<svg width="24" height="24" viewBox="0 0 24 24" fill="none" xmlns="http://www.w3.org/2000/svg">
<path fill-rule="evenodd" clip-rule="evenodd" d="M17.5493 7.68003C17.5493 10.818 15.0055 13.361 11.8684 13.361V13.3618C8.73045 13.3618 6.1875 10.8189 6.1875 7.68092C6.1875 4.54295 8.73134 2 11.8684 2C15.0055 2 17.5493 4.54205 17.5493 7.68003ZM15.7598 7.68092C15.7598 5.53525 14.0141 3.78955 11.8684 3.78955C9.72275 3.78955 7.97705 5.53525 7.97705 7.68092C7.97705 9.82659 9.72275 11.5723 11.8684 11.5723C14.0141 11.5723 15.7598 9.82659 15.7598 7.68092ZM15.0038 14.7038C15.7124 13.9764 16.7826 13.758 17.7212 14.1526H17.7203C18.6482 14.5428 19.2262 15.4823 19.2262 16.4889V21.6356C19.2262 21.8334 19.066 21.9944 18.8674 21.9944H17.7221C17.5243 21.9944 17.3633 21.8343 17.3633 21.6356V16.4209C17.3633 16.0585 17.1029 15.9136 16.9911 15.8679C16.8792 15.8223 16.592 15.7453 16.3388 16.0048L12.6711 19.5258L12.1414 20.042C11.9991 20.1798 11.7727 20.1772 11.634 20.0349L7.38744 16.0102C7.13511 15.7498 6.84699 15.8277 6.73515 15.8733C6.6233 15.9189 6.36292 16.0639 6.36292 16.4263V21.641C6.36292 21.8387 6.20276 21.9998 6.00412 21.9998H4.8588C4.66106 21.9998 4.5 21.8396 4.5 21.641V16.4943C4.5 15.4876 5.07802 14.5481 6.00591 14.158C6.94452 13.7634 8.01467 13.9808 8.72334 14.7092L11.881 17.7022L15.0038 14.7038Z" fill="#0D0E36"/>
</svg>
