<svg width="24" height="24" viewBox="0 0 24 24" fill="none" xmlns="http://www.w3.org/2000/svg">
<path fill-rule="evenodd" clip-rule="evenodd" d="M14.5381 3.87632L8.73227 3.88893V3.88803C8.53322 3.88803 8.37109 3.72679 8.37109 3.52682V2.37382C8.37109 2.17475 8.53232 2.01261 8.73227 2.01261L14.5381 2C14.7372 2 14.8993 2.16124 14.8993 2.36121V3.51511C14.8993 3.71418 14.7381 3.87632 14.5381 3.87632ZM19.072 6.9615L18.0511 7.97356C19.337 9.46068 20.1141 11.399 20.1141 13.5183C20.1141 18.2023 16.3168 22 11.6332 22C6.94966 22 3.15234 18.2023 3.15234 13.5183C3.15234 8.83422 6.94966 5.03653 11.6332 5.03653C13.5211 5.03653 15.2648 5.65447 16.6744 6.69757L17.7462 5.63555C17.8867 5.49413 18.1155 5.49413 18.2569 5.63555L19.072 6.45075C19.2135 6.59128 19.2135 6.82007 19.072 6.9615ZM11.6332 20.1993C7.95032 20.1993 4.95372 17.2025 4.95372 13.5192C4.95372 9.83588 7.95032 6.83809 11.6332 6.83809C15.3162 6.83809 18.3128 9.83498 18.3128 13.5183C18.3128 17.2016 15.3162 20.1984 11.6332 20.1984V20.1993ZM13.0711 8.5945L11.9182 8.61882C11.7192 8.62332 11.5606 8.78816 11.5642 8.98814L11.5309 13.202C11.539 13.5668 11.2796 13.7181 11.1679 13.7668C11.0563 13.8145 10.7689 13.8992 10.5086 13.6434L8.95044 12.1093C8.80814 11.9697 8.57936 11.9715 8.43975 12.1129L7.63093 12.9344C7.49133 13.0768 7.49313 13.3056 7.63454 13.4452L9.14409 14.9315C9.86645 15.6422 10.9482 15.8908 11.884 15.5008C12.8297 15.1062 13.4287 14.1847 13.4071 13.1623L13.4404 8.9485C13.4359 8.74943 13.2711 8.59089 13.0711 8.5954V8.5945Z" fill="#0D0E36"/>
</svg>
