<svg width="24" height="24" viewBox="0 0 24 24" fill="none" xmlns="http://www.w3.org/2000/svg">
<path d="M21.8028 18.6135L21.792 14.0722C21.792 14.0596 21.7893 14.048 21.7884 14.0354C21.7983 14.0031 21.8046 13.9689 21.8046 13.9339V12.7844C21.8046 12.586 21.6429 12.4243 21.4444 12.4243L13.0299 12.4324L13.0236 11.1518L16.0288 11.1491C16.0988 11.1671 16.1742 11.1662 16.247 11.1383L20.1404 9.80207C21.0861 9.44646 21.7651 8.57178 21.8037 7.56239C21.8432 6.54133 21.2603 5.61277 20.3263 5.20417L16.4509 3.46289C16.3763 3.43056 16.2973 3.42607 16.2245 3.44313C16.1976 3.43685 16.1698 3.43236 16.1401 3.43236L13.0272 3.43505L13.0218 2.36011C13.0218 2.16165 12.8602 2 12.6617 2H11.5121C11.3127 2 11.152 2.16165 11.152 2.36011L11.1573 3.43685L2.36294 3.44493C2.16355 3.44493 2.00279 3.60657 2.00279 3.80504V4.95451C2.00279 4.95451 2.00279 4.9599 2.00279 4.9635L2.01357 9.5641C2.00638 9.59194 2.00189 9.62157 2.00189 9.65121V10.8007C2.00189 10.9991 2.16355 11.1608 2.36204 11.1608L11.1546 11.1527L11.1609 12.4333L7.77861 12.436C7.70855 12.418 7.63311 12.4189 7.56036 12.4468L3.66701 13.783C2.71949 14.1387 2.04051 15.0133 2.00189 16.0236C1.96237 17.0447 2.54525 17.9732 3.4793 18.3818L7.35469 20.1231C7.42924 20.1555 7.50827 20.1599 7.58102 20.1429C7.60796 20.1492 7.63581 20.1537 7.66544 20.1537L11.1537 20.1501L11.1618 21.6399C11.1618 21.8384 11.3235 22 11.522 22H12.6716C12.871 22 13.0317 21.8384 13.0317 21.6399L13.0236 20.1483L21.4426 20.1402C21.642 20.1402 21.8028 19.9785 21.8028 19.7801V19.3212V18.6297C21.8028 18.6243 21.801 18.6189 21.801 18.6126L21.8028 18.6135ZM19.9338 7.48067C19.9302 7.6019 19.8862 7.89736 19.5458 8.02577L15.9048 9.27763L3.88256 9.2884L3.87268 5.31193L15.982 5.30115L19.5754 6.91581C19.9086 7.06129 19.9374 7.35944 19.9347 7.48067H19.9338ZM3.87088 16.1035C3.87447 15.9823 3.91848 15.6869 4.25887 15.5584L7.89985 14.3066L19.9212 14.2958L19.9311 18.2723L7.82262 18.2831L4.22923 16.6684C3.89603 16.5229 3.86729 16.2248 3.86998 16.1035H3.87088Z" fill="#0D0E36"/>
</svg>
