<svg width="24" height="24" viewBox="0 0 24 24" fill="none" xmlns="http://www.w3.org/2000/svg">
<path fill-rule="evenodd" clip-rule="evenodd" d="M12.4131 2.33628L12.4249 5.92376H12.4267C12.4267 5.93862 12.4262 5.95348 12.4258 5.96834C12.4253 5.9832 12.4249 5.99807 12.4249 6.01293V6.2381C12.4249 6.27503 12.4177 6.31106 12.4068 6.34528C12.2195 8.47544 10.6343 10.2093 8.57524 10.6191L8.58244 21.6139C8.58244 21.813 8.42032 21.9751 8.22126 21.9751H7.06836C6.8693 21.9751 6.70717 21.8139 6.70717 21.6139L6.69997 10.6191C4.64816 10.2093 3.06562 8.48354 2.87197 6.3615C2.85755 6.32277 2.84855 6.28133 2.84855 6.2381L2.83594 2.33628C2.83594 2.13722 2.99806 1.9751 3.19712 1.9751H4.35183C4.55178 1.9751 4.71301 2.13632 4.71301 2.33628L4.72472 5.92376H4.74363C4.74363 7.19194 5.56328 8.27188 6.69997 8.66278L6.69546 2.33628C6.69546 2.13722 6.85759 1.9751 7.05665 1.9751H8.20955C8.40861 1.9751 8.57073 2.13632 8.57073 2.33628L8.57524 8.66458C9.71463 8.27458 10.5361 7.19374 10.5361 5.92376H10.5496L10.5379 2.33628C10.5379 2.13722 10.6991 1.9751 10.8991 1.9751H12.052C12.251 1.9751 12.4131 2.13632 12.4131 2.33628ZM16.2409 2.92821C16.9471 2.18784 18.1937 1.77442 19.143 2.16172L19.1421 2.16082C20.0806 2.54451 20.6715 3.48394 20.6823 4.49723L20.6247 21.4808C20.6265 21.6798 20.4661 21.8438 20.2671 21.8456L19.1142 21.8573C18.9151 21.8591 18.7512 21.6997 18.7494 21.4997L18.7692 15.6758H14.1738C13.7433 15.6758 13.3866 15.3425 13.3578 14.9129L13.3497 14.794L13.3496 14.7929C13.3433 14.6939 13.2147 12.6815 13.4767 10.2518C13.8414 6.86696 14.7629 4.41346 16.2148 2.95973C16.2166 2.95883 16.2184 2.95703 16.2184 2.95703L16.2409 2.92821ZM15.2033 13.7843H18.7746L18.8061 4.44769C18.8025 4.08291 18.5404 3.93519 18.426 3.89466C18.0955 3.77937 17.8424 3.99103 17.5902 4.25584C17.5874 4.25908 17.5846 4.26236 17.5818 4.26567C17.5728 4.27615 17.5637 4.28678 17.5542 4.29637C15.5143 6.33891 15.162 11.2234 15.2033 13.7843Z" fill="#0D0E36"/>
</svg>
