<svg width="24" height="24" viewBox="0 0 24 24" fill="none" xmlns="http://www.w3.org/2000/svg">
<path fill-rule="evenodd" clip-rule="evenodd" d="M2.02372 5.42084L2.02424 5.42084L14.3726 5.40917C14.7543 6.4807 15.7782 7.24864 16.9809 7.24864C18.1836 7.24864 19.203 6.48519 19.5874 5.41635L21.3039 5.40827C21.5033 5.40827 21.6641 5.24659 21.6641 5.0481V3.89842C21.6641 3.69903 21.5024 3.53825 21.3039 3.53825L19.5892 3.54633C19.2066 2.4766 18.1836 1.71045 16.9818 1.71045C15.78 1.71045 14.7624 2.47301 14.377 3.53915L2.02424 3.55083C1.82484 3.55083 1.66406 3.7125 1.66406 3.911V5.06067C1.66406 5.259 1.82546 5.42056 2.02372 5.42084ZM16.9809 3.50681C17.5171 3.50681 17.9536 3.94333 17.9536 4.47955C17.9536 5.01576 17.5171 5.45228 16.9809 5.45228C16.4447 5.45228 16.0082 5.01576 16.0082 4.47955C16.0082 3.94333 16.4447 3.50681 16.9809 3.50681ZM21.2948 10.7902L8.93122 10.8019C8.54949 9.73035 7.52555 8.9624 6.32287 8.9624C5.1202 8.9624 4.19686 9.6558 3.77471 10.6456L2.07892 10.6537C1.87953 10.6537 1.71875 10.8154 1.71875 11.0139V12.1635C1.71875 12.3629 1.88042 12.5237 2.07892 12.5237L3.66692 12.5165C4.00554 13.6635 5.0663 14.5006 6.32197 14.5006C7.57764 14.5006 8.5414 13.7389 8.92673 12.6728L21.2939 12.6611C21.4933 12.6611 21.6541 12.4994 21.6541 12.3009V11.1513C21.6541 10.9519 21.4924 10.7911 21.2939 10.7911L21.2948 10.7902ZM6.32287 12.7042C5.78665 12.7042 5.35013 12.2677 5.35013 11.7315C5.35013 11.1953 5.78665 10.7588 6.32287 10.7588C6.85909 10.7588 7.29561 11.1953 7.29561 11.7315C7.29561 12.2677 6.85909 12.7042 6.32287 12.7042ZM14.2683 18.0017L21.3038 17.9909L21.3029 17.9918C21.5014 17.9918 21.6631 18.1535 21.6631 18.352V19.5016C21.6631 19.7001 21.5023 19.8618 21.3029 19.8618L14.2647 19.8726C13.8802 20.9387 12.8626 21.7013 11.6599 21.7013C10.4572 21.7013 9.4342 20.9342 9.05157 19.8627L2.07892 19.8735C1.88042 19.8735 1.71875 19.7127 1.71875 19.5133V18.3636C1.71875 18.1651 1.87953 18.0035 2.07892 18.0035L9.05517 17.9927C9.43959 16.9256 10.4572 16.1631 11.6599 16.1631C12.8626 16.1631 13.8856 16.9301 14.2683 18.0017ZM10.6872 18.9322C10.6872 19.4684 11.1237 19.9049 11.6599 19.9049C12.1961 19.9049 12.6327 19.4684 12.6327 18.9322C12.6327 18.396 12.1961 17.9595 11.6599 17.9595C11.1237 17.9595 10.6872 18.396 10.6872 18.9322Z" fill="#0D0E36"/>
</svg>
