<svg width="24" height="24" viewBox="0 0 24 24" fill="none" xmlns="http://www.w3.org/2000/svg">
<path d="M21.7649 9.97212C21.3209 9.04351 20.367 8.49014 19.3426 8.56428L17.7231 8.56157V8.55795H15.9147H15.7212C15.7176 8.55795 15.7158 8.55886 15.7122 8.55976H15.1977C15.3695 8.09772 15.4066 7.58865 15.2773 7.09315C15.0467 6.20523 14.3604 5.53431 13.4924 5.31188C13.4571 5.2947 13.4191 5.28204 13.3775 5.27661L13.2555 5.26395C13.2256 5.25943 13.1967 5.2531 13.1669 5.24949L12.4399 5.17172C12.1307 5.10301 12.0294 4.85345 11.9995 4.74404C11.9679 4.62649 11.9245 4.32811 12.2157 4.10567L12.9028 3.57129C13.062 3.45013 13.0927 3.22227 12.9707 3.06313L12.2681 2.14356C12.146 1.98442 11.9191 1.95368 11.7599 2.07574L11.127 2.56853C10.3186 3.1861 9.91898 4.22684 10.1758 5.21151C10.4063 6.09943 11.0926 6.77035 11.9607 6.99278C11.9959 7.00996 12.0339 7.02262 12.0755 7.02805L12.1976 7.04071C12.2274 7.04523 12.2563 7.05156 12.2862 7.05517L13.0132 7.13293C13.3224 7.20165 13.4237 7.45121 13.4535 7.56062C13.4851 7.67817 13.5286 7.97655 13.2374 8.19899L12.7627 8.56338L9.35295 8.56609C9.52566 8.10224 9.56454 7.59136 9.43524 7.09405C9.20467 6.20613 8.51838 5.53521 7.65035 5.31278C7.61508 5.2956 7.57711 5.28294 7.53551 5.27752L7.41345 5.26486C7.38361 5.26034 7.35467 5.25401 7.32483 5.25039L6.59786 5.17263C6.28862 5.10391 6.18735 4.85435 6.15751 4.74494C6.12586 4.6274 6.08246 4.32901 6.37362 4.10658L7.06081 3.57219C7.21995 3.45103 7.25069 3.22317 7.12862 3.06403L6.42606 2.14446C6.30399 1.98532 6.07704 1.95458 5.9179 2.07665L5.28496 2.56944C4.4766 3.18701 4.07695 4.22774 4.33374 5.21241C4.56431 6.10034 5.2506 6.77125 6.11863 6.99369C6.15389 7.01087 6.19187 7.02353 6.23346 7.02895L6.35553 7.04161C6.38537 7.04613 6.4143 7.05246 6.44414 7.05608L7.17112 7.13384C7.48036 7.20256 7.58163 7.45212 7.61147 7.56153C7.64311 7.67907 7.68651 7.97746 7.39536 8.19989L6.91342 8.5688L3.8084 8.57152V8.55976H2V14.2806C2 18.6154 5.52638 22.1427 9.86202 22.1427C13.373 22.1427 16.3533 19.8297 17.3596 16.6469L21.3336 12.7498C22.0099 11.9894 22.2043 10.8926 21.7649 9.97393V9.97212ZM9.86202 20.3315C6.52371 20.3315 3.8084 17.6162 3.8084 14.2779V10.4513L15.9156 10.4414V14.2779C15.9156 17.6162 13.2003 20.3315 9.86202 20.3315ZM19.9728 11.4442L17.724 13.6839V10.4188L19.4782 10.4414C19.8435 10.4152 20.009 10.6665 20.0623 10.776C20.1166 10.8854 20.2151 11.1693 19.9719 11.4433L19.9728 11.4442Z" fill="#0D0E36"/>
</svg>
