<svg width="24" height="24" viewBox="0 0 24 24" fill="none" xmlns="http://www.w3.org/2000/svg">
<path fill-rule="evenodd" clip-rule="evenodd" d="M21.6368 6.88209C21.8374 6.88209 21.9991 6.71945 21.9991 6.51976V5.36232C21.9991 5.16173 21.8365 5 21.6368 5L2.36232 5.01265C2.16264 5.01265 2 5.17529 2 5.37497V6.53151C2 6.7321 2.16264 6.89383 2.36232 6.89383L21.6368 6.88118V6.88209ZM21.6368 12.3901C21.8374 12.3901 21.9991 12.2275 21.9991 12.0278V10.8712C21.9991 10.6707 21.8365 10.5089 21.6368 10.5089L2.36232 10.5216C2.16264 10.5216 2 10.6833 2 10.8839V12.0404C2 12.241 2.16264 12.4028 2.36232 12.4028L21.6368 12.3901ZM21.9991 17.5367C21.9991 17.7364 21.8374 17.899 21.6368 17.899V17.8981L2.36232 17.9108C2.16264 17.9108 2 17.749 2 17.5485V16.3919C2 16.1922 2.16264 16.0296 2.36232 16.0305L21.6368 16.0178C21.8365 16.0178 21.9991 16.1796 21.9991 16.3802V17.5367Z" fill="#0D0E36"/>
</svg>
