<svg width="24" height="24" viewBox="0 0 24 24" fill="none" xmlns="http://www.w3.org/2000/svg">
<path d="M21.8948 3.44744L13.3335 12.0006L21.8858 20.5611C22.0278 20.7031 22.0278 20.933 21.8858 21.0741L21.0669 21.893C20.9249 22.035 20.695 22.035 20.5539 21.893L12.0007 13.3316L3.43933 21.8848C3.29728 22.0269 3.06745 22.0269 2.9263 21.8848L2.10654 21.0651C1.96449 20.923 1.96449 20.6932 2.10654 20.552L10.6679 11.9988L2.11559 3.43839C1.97353 3.29634 1.97353 3.06651 2.11559 2.92536L2.93445 2.10651C3.0765 1.96445 3.30632 1.96445 3.44748 2.10651L12.0007 10.6679L20.5611 2.11555C20.7032 1.9735 20.933 1.9735 21.0742 2.11555L21.893 2.93441C22.0351 3.07647 22.0351 3.30629 21.893 3.44744H21.8948Z" fill="#0D0E36"/>
</svg>
