<svg width="24" height="24" viewBox="0 0 24 24" fill="none" xmlns="http://www.w3.org/2000/svg">
<path fill-rule="evenodd" clip-rule="evenodd" d="M6.51945 6.40111L9.44243 8.03135C10.3031 8.51114 11.3572 8.41744 12.1199 7.79016C12.8738 7.16981 13.1506 6.13736 12.8712 5.20207L11.9906 2.24872C11.9359 2.06479 11.7416 1.95981 11.5577 2.01447L10.4931 2.33202C10.3092 2.38667 10.2042 2.58102 10.2589 2.76495L11.1586 5.78164C11.2592 6.11827 11.0571 6.32563 10.966 6.39851C10.8749 6.47139 10.6285 6.62409 10.3222 6.4523L7.3992 4.82206C7.23176 4.72836 7.01919 4.78822 6.92549 4.95654L6.3841 5.92653C6.2904 6.09398 6.35026 6.30654 6.51858 6.40024L6.51945 6.40111ZM14.1759 10.2003L16.8872 11.6649C17.0564 11.756 17.2672 11.6935 17.3592 11.5243L17.8876 10.5474C17.9787 10.3782 17.9162 10.1674 17.747 10.0754L14.9776 8.57878C14.6679 8.41133 14.6644 8.12242 14.6774 8.00616C14.6904 7.88989 14.7564 7.60879 15.0947 7.51248L18.3136 6.59802C18.4984 6.5451 18.606 6.35336 18.553 6.16856L18.2494 5.09966C18.1973 4.91486 18.0047 4.80727 17.8199 4.8602L14.6011 5.77379C13.6536 6.04275 12.9743 6.85484 12.878 7.83784C12.7834 8.80956 13.3179 9.7353 14.1768 10.1995L14.1759 10.2003ZM12.5819 16.0742C15.321 16.1809 18.5094 17.1301 21.8402 19.7919L21.8411 19.7936C22.0259 19.9411 22.0536 20.2118 21.9027 20.3932L21.3318 21.0794C21.186 21.2556 20.9249 21.2825 20.7461 21.1393C16.828 18.0098 12.7008 17.065 8.47205 18.3309C5.8831 19.1056 4.00559 20.5216 3.31063 21.1011C3.14145 21.2434 2.89158 21.2287 2.73801 21.069L2.11767 20.4227C1.94935 20.2474 1.96323 19.9663 2.1489 19.8093C2.92281 19.1533 4.98686 17.5786 7.9029 16.6902C8.68722 16.4516 9.56958 16.2538 10.53 16.1479C11.6822 14.5203 11.7369 12.602 11.6553 11.5487L11.5573 10.9431C11.5278 10.5926 11.2649 10.4729 11.153 10.4382C11.041 10.4035 10.7625 10.3323 10.5387 10.6039L8.53712 13.0332C8.41479 13.1816 8.19528 13.2033 8.04692 13.0809L7.18972 12.3747C7.04136 12.2524 7.01967 12.0329 7.142 11.8845L9.10107 9.50638C9.72141 8.75329 10.733 8.40625 11.6683 8.68649C12.614 8.96933 13.2803 9.79182 13.3619 10.774L13.4192 11.6312C13.4226 11.6754 13.4183 11.7136 13.4088 11.7483C13.4608 12.8571 13.3532 14.483 12.5819 16.0742Z" fill="#0D0E36"/>
</svg>
