<svg width="24" height="24" viewBox="0 0 24 24" fill="none" xmlns="http://www.w3.org/2000/svg">
<path d="M17.4597 16.2554C17.2265 16.2554 16.9996 16.2842 16.7826 16.3364L16.3531 15.9033C19.0768 14.6823 20.9992 12.136 20.9992 9.27175C20.9992 8.43076 20.9992 6.68035 20.0925 5.07221C18.9435 3.03368 16.8186 2 13.7752 2C13.2782 2 12.8748 2.40339 12.8748 2.90041V8.37133H6.38918V5.6989C6.38918 4.68594 5.80752 3.7405 4.8738 3.34792C3.92927 2.95084 2.85239 3.17054 2.13927 3.90258L1.22355 4.88493C1.08399 5.02809 1.08759 5.2568 1.23076 5.39546L2.05643 6.19953C2.19959 6.3391 2.4283 6.33549 2.56696 6.19233L3.48267 5.21088C3.73749 4.94976 4.02652 5.02719 4.13907 5.07311C4.25162 5.11904 4.51364 5.2649 4.51364 5.62957V9.15649C4.51364 9.1646 4.51544 9.1718 4.51634 9.1799C4.51364 9.20962 4.51183 9.23933 4.51183 9.26994C4.51183 12.2134 6.4423 14.7607 9.22996 15.951L8.85269 16.3319C8.6393 16.2815 8.41689 16.2536 8.18819 16.2536C6.60168 16.2536 5.3159 17.5393 5.3159 19.1259C5.3159 20.7124 6.60168 21.9982 8.18819 21.9982C9.44516 21.9982 10.5121 21.1914 10.902 20.0668L14.7431 20.0578C15.1303 21.186 16.2 21.9973 17.4597 21.9973C19.0462 21.9973 20.332 20.7115 20.332 19.125C20.332 17.5384 19.0462 16.2527 17.4597 16.2527V16.2554ZM14.6765 3.84045C16.5341 4.00792 17.8261 4.71745 18.5239 5.95642C18.9732 6.75329 19.1236 7.6555 19.1731 8.37133H14.6756V3.83955L14.6765 3.84045ZM6.39638 10.1722H19.1056C18.8841 11.2527 18.2736 12.2962 17.3561 13.1273C16.1181 14.2492 14.4901 14.8669 12.7731 14.8669C9.56491 14.8669 6.89521 12.8311 6.39638 10.1722ZM12.7731 16.6677C13.3043 16.6677 13.8256 16.6191 14.3326 16.5273L15.1789 17.3818C14.9944 17.6222 14.8476 17.8932 14.7458 18.1858L10.9047 18.1949C10.8021 17.8959 10.6517 17.6195 10.4617 17.3737L11.2802 16.5471C11.7646 16.6263 12.2634 16.6686 12.7731 16.6686V16.6677ZM8.18729 20.1992C7.59663 20.1992 7.11581 19.7184 7.11581 19.1277C7.11581 18.537 7.59663 18.0562 8.18729 18.0562C8.77796 18.0562 9.25877 18.537 9.25877 19.1277C9.25877 19.7184 8.77796 20.1992 8.18729 20.1992ZM17.4588 20.1992C16.8681 20.1992 16.3873 19.7184 16.3873 19.1277C16.3873 18.537 16.8681 18.0562 17.4588 18.0562C18.0494 18.0562 18.5303 18.537 18.5303 19.1277C18.5303 19.7184 18.0494 20.1992 17.4588 20.1992Z" fill="#0D0E36"/>
</svg>
