<svg width="24" height="24" viewBox="0 0 24 24" fill="none" xmlns="http://www.w3.org/2000/svg">
<path d="M21.6379 13.4672H20.2743L18.8225 9.30615L20.5283 7.36163C20.6598 7.21212 20.6454 6.98335 20.4959 6.85185L19.6304 6.0899C19.4809 5.9584 19.2521 5.97281 19.1206 6.12232L12.6728 13.4726L2.36116 13.4798C2.16122 13.4798 2 13.6419 2 13.841V14.9938C2 15.1928 2.16212 15.355 2.36116 15.355H3.27983L2.59984 17.8417C2.53949 18.0317 2.64487 18.2353 2.83491 18.2956L3.93461 18.6442C4.12465 18.7045 4.3282 18.5991 4.38854 18.4091L5.22345 15.3541L18.9441 15.3451L20.0122 18.4064C20.0708 18.5973 20.2734 18.7036 20.4635 18.6451L21.5659 18.3055C21.7568 18.247 21.8631 18.0443 21.8046 17.8543L20.9291 15.3442H21.6388C21.8388 15.3442 22 15.182 22 14.9821V13.8293C22 13.6302 21.8379 13.4681 21.6388 13.4681L21.6379 13.4672ZM15.1685 13.4717L17.4021 10.9255L18.2893 13.469L15.1685 13.4708V13.4717Z" fill="#0D0E36"/>
</svg>
