<svg width="24" height="24" viewBox="0 0 24 24" fill="none" xmlns="http://www.w3.org/2000/svg">
<path fill-rule="evenodd" clip-rule="evenodd" d="M2.93623 15.5137H21.0647V15.5127C21.3065 15.5127 21.5446 15.4291 21.7191 15.2619C22.0045 14.9874 22.0754 14.572 21.9182 14.2266C21.8827 14.1493 21.0374 12.3141 19.524 10.4589C17.4397 7.90469 15.08 6.55396 12.6985 6.55396H5.72313L6.29032 4.12611H12.9021C13.1494 4.12611 13.3503 3.92523 13.3503 3.67799V2.7572C13.3503 2.50996 13.1494 2.30908 12.9021 2.30908H5.56951C5.14684 2.30908 4.78053 2.59995 4.68418 3.01171L2.02363 14.3974C1.94546 14.7338 2.06362 15.0919 2.34268 15.3155C2.50993 15.4491 2.72263 15.5137 2.93623 15.5137ZM19.5676 13.6957H4.05517L5.29864 8.37189H12.6994C15.9308 8.37189 18.4187 11.7723 19.5676 13.6957ZM8.07644 20.183C7.87556 20.183 7.71194 20.0203 7.71194 19.8203L7.69922 17.5225C7.69922 17.3225 7.86192 17.1598 8.06371 17.1598H9.22719C9.42807 17.1598 9.59169 17.3225 9.59169 17.5225L9.60441 19.8203C9.60441 20.0203 9.44171 20.183 9.23992 20.183H8.07644ZM11.4397 22.0009C11.2388 22.0009 11.0752 21.8382 11.0752 21.6383L11.0625 17.5225C11.0625 17.3225 11.2252 17.1598 11.427 17.1598H12.5905C12.7914 17.1598 12.955 17.3225 12.955 17.5225L12.9677 21.6383C12.9677 21.8382 12.805 22.0009 12.6032 22.0009H11.4397ZM14.4073 19.8203C14.4073 20.0203 14.5709 20.183 14.7718 20.183H15.9352C16.137 20.183 16.2997 20.0203 16.2997 19.8203L16.287 17.5225C16.287 17.3225 16.1234 17.1598 15.9225 17.1598H14.759C14.5572 17.1598 14.3945 17.3225 14.3945 17.5225L14.4073 19.8203Z" fill="#0D0E36"/>
</svg>
