<svg width="24" height="24" viewBox="0 0 24 24" fill="none" xmlns="http://www.w3.org/2000/svg">
<path d="M19.1004 17.776L13.2887 11.9723L19.0915 6.16146C19.2324 6.02048 19.2324 5.79239 19.0915 5.6523L18.2788 4.83962C18.1378 4.69864 17.9097 4.69864 17.7696 4.83962L11.9659 10.6514L6.15414 4.84771C6.01316 4.70672 5.78507 4.70672 5.64498 4.84771L4.8323 5.66039C4.69132 5.80137 4.69132 6.02946 4.8323 6.16955L10.6441 11.9732L4.84038 17.785C4.6994 17.926 4.6994 18.1541 4.84038 18.2942L5.65306 19.1069C5.79405 19.2479 6.02214 19.2479 6.16222 19.1069L11.9659 13.2951L17.7768 19.0979C17.9178 19.2389 18.1459 19.2389 18.286 19.0979L19.0986 18.2852C19.2396 18.1442 19.2396 17.9161 19.0986 17.776H19.1004Z" fill="#0D0E36"/>
</svg>
