<svg width="24" height="24" viewBox="0 0 24 24" fill="none" xmlns="http://www.w3.org/2000/svg">
<path d="M19.2017 16.9828V16.286V16.0274C19.2017 16.0238 19.2017 16.0211 19.2017 16.0184L19.19 2.36147C19.1882 2.16212 19.0275 2.00049 18.8281 2.00049H18.4258H18.4222H17.6786C17.6786 2.00049 17.6732 2.00049 17.6714 2.00049L6.90158 2.01216C6.87374 2.00498 6.845 2.00049 6.81446 2.00049H5.66492C5.46644 2.00049 5.30479 2.16212 5.30479 2.36057L5.31646 15.9304C5.30928 15.9619 5.30389 15.9933 5.30479 16.0274L5.31017 19.5411C5.3425 20.5513 5.9532 21.4744 6.89709 21.8354C7.85175 22.2008 8.91777 21.9476 9.6048 21.1942L12.2533 18.6252L14.9017 21.1942C15.5887 21.9476 16.6557 22.2008 17.6094 21.8354C18.5533 21.4744 19.1631 20.5504 19.1954 19.5411L19.199 17.0008C19.199 16.9954 19.2008 16.9891 19.2008 16.9837L19.2017 16.9828ZM16.9332 20.0916C16.8191 20.1338 16.5281 20.202 16.2829 19.9335L12.5254 16.2672C12.4526 16.1873 12.3529 16.1495 12.2533 16.1513C12.1536 16.1495 12.0539 16.1873 11.9811 16.2672L8.22445 19.9335C7.97928 20.202 7.6883 20.1338 7.57424 20.0916C7.46018 20.0494 7.19435 19.9129 7.18268 19.5492L7.17729 17.0681C7.18357 17.0412 7.18806 17.0125 7.18806 16.9837L7.17639 3.8835L17.3193 3.87272L17.3301 16.5168L17.3238 19.5501C17.3122 19.9138 17.0463 20.0511 16.9323 20.0925L16.9332 20.0916Z" fill="#0D0E36"/>
</svg>
