<svg width="24" height="24" viewBox="0 0 24 24" fill="none" xmlns="http://www.w3.org/2000/svg">
<path d="M21.8921 20.5601L16.2645 14.9518C17.3571 13.5877 18.0111 11.8589 18.0111 9.978C18.0111 5.57173 14.427 2 10.0055 2C5.58406 2 2 5.57173 2 9.978C2 14.3843 5.58406 17.956 10.0055 17.956C11.8575 17.956 13.5623 17.3287 14.9193 16.277L20.5552 21.8934C20.6978 22.0355 20.9285 22.0355 21.0702 21.8934L21.8921 21.0743C22.0347 20.9321 22.0347 20.7022 21.8921 20.561V20.5601ZM3.81655 9.978C3.81655 6.57735 6.59315 3.8103 10.0055 3.8103C13.4179 3.8103 16.1945 6.57735 16.1945 9.978C16.1945 13.3787 13.4179 16.1457 10.0055 16.1457C6.59315 16.1457 3.81655 13.3796 3.81655 9.978Z" fill="#0D0E36"/>
</svg>
