<svg width="24" height="24" viewBox="0 0 24 24" fill="none" xmlns="http://www.w3.org/2000/svg">
<path d="M17.5466 16.2133L13.3242 11.9981L17.5376 7.7767C17.6786 7.63571 17.6786 7.40762 17.5376 7.26754L16.7249 6.45486C16.5839 6.31388 16.3558 6.31388 16.2157 6.45486L12.0006 10.6772L7.77914 6.46384C7.63816 6.32285 7.41007 6.32285 7.26998 6.46384L6.4573 7.27652C6.31632 7.4175 6.31632 7.64559 6.4573 7.78568L10.6796 12.0008L6.46628 16.2223C6.3253 16.3633 6.3253 16.5914 6.46628 16.7314L7.27896 17.5441C7.41994 17.6851 7.64803 17.6851 7.78812 17.5441L12.0033 13.3218L16.2247 17.5351C16.3657 17.6761 16.5938 17.6761 16.7339 17.5351L17.5466 16.7225C17.6875 16.5815 17.6875 16.3534 17.5466 16.2133Z" fill="#0D0E36"/>
</svg>
