<svg width="24" height="24" viewBox="0 0 24 24" fill="none" xmlns="http://www.w3.org/2000/svg">
<path fill-rule="evenodd" clip-rule="evenodd" d="M19.8082 7.40327H21.5952L21.5961 7.40688C21.7953 7.40688 21.9576 7.56826 21.9576 7.76842V8.92245C21.9576 9.12171 21.7962 9.28399 21.5961 9.28489H19.7947L19.7767 11.6408C20.3898 11.9085 20.8865 12.4224 21.1417 13.0671L21.679 14.3879C21.753 14.5736 21.6619 14.7837 21.4762 14.8576L20.4033 15.2832C20.2176 15.3571 20.0075 15.266 19.9336 15.0803L19.371 13.6955C19.2357 13.3556 18.9382 13.3168 18.8165 13.3159C18.6948 13.315 18.3963 13.3493 18.2557 13.6865L18.1998 13.8262L18.1987 13.8305C18.1954 13.8427 18.192 13.8556 18.1872 13.8677L17.6345 15.2489C17.2405 16.1938 16.32 16.7951 15.294 16.7744C14.2905 16.7537 13.4087 16.1018 13.0283 15.175C13.0048 15.1461 12.9841 15.1155 12.9697 15.0794L12.4071 13.6946C12.2718 13.3547 11.9743 13.3159 11.8526 13.315C11.7309 13.3141 11.4324 13.3484 11.2918 13.6856L10.7391 15.0668C10.7359 15.0746 10.7317 15.0819 10.7276 15.0891C10.726 15.0919 10.7244 15.0947 10.7229 15.0975L10.6625 15.2489C10.2685 16.1938 9.34797 16.7951 8.32196 16.7744C7.30767 16.7537 6.4178 16.0883 6.04364 15.1452L6.0229 15.0938C6.022 15.0911 6.02065 15.0889 6.01929 15.0866C6.01794 15.0844 6.01659 15.0821 6.01569 15.0794L5.45309 13.6946C5.31786 13.3547 5.02033 13.3159 4.89862 13.315C4.7769 13.3141 4.47847 13.3484 4.33783 13.6856L3.78425 15.0668C3.70761 15.2507 3.49574 15.3382 3.31182 15.2615L2.24613 14.818C2.06221 14.7413 1.97476 14.5303 2.05139 14.3455L2.60407 12.9643C2.99806 12.0194 3.91859 11.4181 4.9446 11.4388C5.95889 11.4586 6.84876 12.124 7.22292 13.0671L7.24366 13.1185C7.24456 13.1212 7.24591 13.1234 7.24726 13.1257C7.24861 13.1279 7.24997 13.1302 7.25087 13.1329L7.81346 14.5177C7.9487 14.8576 8.24623 14.8964 8.36794 14.8973C8.48965 14.8982 8.78808 14.8639 8.92873 14.5267L9.48141 13.1455C9.48465 13.1377 9.48883 13.1304 9.49294 13.1232C9.49454 13.1204 9.49612 13.1176 9.49763 13.1149L9.55804 12.9634C9.8213 12.3305 10.3208 11.8535 10.9303 11.6119L10.9474 9.2894L2.36154 9.29481C2.16229 9.29481 2 9.13343 2 8.93327V7.77924C2 7.57998 2.16138 7.4177 2.36154 7.4177L10.9609 7.41229L10.9826 4.47671C10.9789 4.11156 10.7157 3.96821 10.6021 3.92313C10.4885 3.87805 10.1982 3.80322 9.94572 4.06738L8.50769 5.86155C8.36974 6.00581 8.14074 6.01121 7.99648 5.87327L7.16161 5.07626C7.01736 4.93832 7.01195 4.70932 7.14989 4.56506L8.58793 2.76999C9.29478 2.02979 10.3695 1.79898 11.3197 2.18666C12.2592 2.57074 12.8516 3.5111 12.8615 4.52539L12.8398 7.41048L17.9293 7.40688L17.951 4.4758C17.9473 4.11066 17.6841 3.96731 17.5705 3.92223C17.4569 3.87715 17.1666 3.80232 16.9141 4.06648L15.4761 5.86065C15.3381 6.0049 15.1091 6.01031 14.9649 5.87237L14.13 5.07536C13.9858 4.93742 13.9803 4.70842 14.1183 4.56416L15.5563 2.76909C16.2623 2.02889 17.3379 1.79808 18.2881 2.18576C19.2276 2.56984 19.82 3.5102 19.8299 4.52449L19.8082 7.40327ZM16.5219 12.9616C16.7861 12.3269 17.2874 11.849 17.8987 11.6083L17.9158 9.28309L12.8263 9.2867L12.8083 11.6362C13.4132 11.8995 13.9046 12.4026 14.1643 13.0346C14.1877 13.0635 14.2084 13.0941 14.2229 13.1302L14.7855 14.515C14.9207 14.8549 15.2182 14.8937 15.3399 14.8946C15.4617 14.8955 15.7601 14.8612 15.9007 14.524L15.9566 14.3843C15.957 14.3829 15.9574 14.3814 15.9578 14.38C15.961 14.3677 15.9644 14.3549 15.9693 14.3428L16.5219 12.9616ZM18.8623 16.6635C19.8766 16.6834 20.7664 17.3487 21.1406 18.2918H21.1415L21.6789 19.6126C21.7528 19.7984 21.6617 20.0084 21.476 20.0824L20.4031 20.5079C20.2174 20.5818 20.0073 20.4908 19.9334 20.3051L19.3708 18.9202C19.2355 18.5803 18.938 18.5415 18.8163 18.5406C18.6946 18.5397 18.3962 18.574 18.2555 18.9112L18.1996 19.0509L18.1985 19.0552C18.1952 19.0675 18.1918 19.0803 18.187 19.0924L17.6343 20.4737C17.2403 21.4185 16.3198 22.0199 15.2938 21.9991C14.2903 21.9784 13.4086 21.3266 13.0281 20.3997C13.0046 20.3709 12.9839 20.3402 12.9695 20.3042L12.4069 18.9193C12.2717 18.5794 11.9741 18.5406 11.8524 18.5397C11.7307 18.5388 11.4323 18.5731 11.2916 18.9103L10.7389 20.2915C10.7357 20.2993 10.7315 20.3066 10.7274 20.3138C10.7258 20.3166 10.7242 20.3194 10.7227 20.3222L10.6623 20.4737C10.2683 21.4185 9.34779 22.0199 8.32178 21.9991C7.30749 21.9784 6.41762 21.313 6.04346 20.37L6.02272 20.3186C6.02182 20.3159 6.02047 20.3136 6.01911 20.3114C6.01776 20.3091 6.01641 20.3069 6.01551 20.3042L5.45291 18.9193C5.31768 18.5794 5.02015 18.5406 4.89844 18.5397C4.77672 18.5388 4.47829 18.5731 4.33765 18.9103L3.78407 20.2915C3.70743 20.4755 3.49556 20.5629 3.31164 20.4863L2.24595 20.0427C2.06203 19.9661 1.97458 19.7551 2.05121 19.5703L2.60389 18.189C2.99788 17.2442 3.91841 16.6428 4.94442 16.6635C5.95871 16.6834 6.84858 17.3487 7.22274 18.2918L7.24348 18.3432C7.24438 18.3459 7.24573 18.3482 7.24708 18.3504C7.24843 18.3527 7.24979 18.3549 7.25069 18.3576L7.81328 19.7425C7.94852 20.0824 8.24605 20.1211 8.36776 20.122C8.48947 20.1229 8.7879 20.0887 8.92855 19.7515L9.48123 18.3702C9.48447 18.3625 9.48865 18.3551 9.49276 18.3479C9.49435 18.3451 9.49594 18.3424 9.49745 18.3396L9.55786 18.1881C9.95186 17.2433 10.8724 16.6419 11.8984 16.6626C12.9019 16.6834 13.7836 17.3352 14.1641 18.2621C14.1875 18.2909 14.2083 18.3216 14.2227 18.3576L14.7853 19.7425C14.9205 20.0824 15.2181 20.1211 15.3398 20.122C15.4615 20.1229 15.7599 20.0887 15.9006 19.7515L15.9565 19.6117L15.9576 19.6075C15.9608 19.5952 15.9642 19.5824 15.9691 19.5703L16.5218 18.189C16.9157 17.2442 17.8363 16.6428 18.8623 16.6635Z" fill="#0D0E36"/>
</svg>
