<svg width="24" height="24" viewBox="0 0 24 24" fill="none" xmlns="http://www.w3.org/2000/svg">
<path d="M20.4967 19.1808L17.6037 15.0162L17.592 11.9532C17.592 11.7545 17.4301 11.5926 17.2314 11.5926H16.0803C16.0803 11.5926 16.0776 11.5926 16.0758 11.5926L12.7422 11.5971L12.7314 2.36061C12.7314 2.16097 12.5695 2 12.3708 2H11.2197C11.02 2 10.8591 2.16187 10.8591 2.36061L10.8699 11.5998L7.70709 11.6043C7.67921 11.5971 7.64953 11.5926 7.61986 11.5926H6.46878C6.27004 11.5926 6.10817 11.7545 6.10817 11.9532L6.12076 15.0621L3.10457 19.1808C3.02273 19.2626 2.99036 19.3741 3.00295 19.4802C2.99576 19.5387 3.00115 19.5998 3.02543 19.6592L3.33209 20.3948C3.71338 21.3318 4.60637 21.9883 5.61806 22C6.52993 22.0108 7.35367 21.5288 7.79432 20.7536C7.8204 20.7239 7.84288 20.6915 7.85817 20.6529L7.90223 20.5396C7.91482 20.5126 7.92741 20.4856 7.9391 20.4586L8.20349 19.7806C8.35007 19.5018 8.61626 19.4703 8.72957 19.4703C8.82939 19.4703 9.04971 19.4955 9.19989 19.6942L9.49216 20.3957C9.87345 21.3327 10.7664 21.9892 11.7781 22.0009C12.69 22.0117 13.5137 21.5297 13.9544 20.7545C13.9805 20.7248 14.0029 20.6924 14.0182 20.6538L14.0623 20.5405C14.0749 20.5135 14.0875 20.4865 14.0992 20.4595L14.3636 19.7815C14.5101 19.5027 14.7763 19.4712 14.8896 19.4712C14.9877 19.4712 15.2017 19.4955 15.3519 19.6844L15.6486 20.3966C16.0299 21.3336 16.9229 21.9901 17.9346 22.0018C18.958 22.0144 19.8717 21.4065 20.2556 20.4604L20.5713 19.6511C20.5947 19.5935 20.6001 19.5342 20.5938 19.4766C20.6055 19.3714 20.5722 19.2626 20.4922 19.1817L20.4967 19.1808ZM7.98946 14.607L7.98496 13.4766L15.7242 13.4658L15.7287 14.5953L7.98946 14.6061V14.607ZM17.9688 20.1277C17.8708 20.1277 17.6567 20.1034 17.5065 19.9155L17.2098 19.2032C16.8285 18.2662 15.9355 17.6097 14.9238 17.598C14.0119 17.5872 13.1882 18.0692 12.7476 18.8444C12.7215 18.8741 12.699 18.9065 12.6837 18.9451L12.6396 19.0585C12.6271 19.0854 12.6145 19.1124 12.6028 19.1394L12.3384 19.8174C12.1918 20.0962 11.9256 20.1277 11.8123 20.1277C11.7125 20.1277 11.4922 20.1025 11.342 19.9038L11.0497 19.2023C10.6684 18.2653 9.77543 17.6088 8.76374 17.5971C7.85187 17.5863 7.02813 18.0683 6.58748 18.8435C6.5614 18.8732 6.53892 18.9056 6.52363 18.9442L6.47957 19.0576C6.46698 19.0845 6.45439 19.1115 6.4427 19.1385L6.17831 19.8165C6.03173 20.0953 5.76554 20.1268 5.65223 20.1268C5.53083 20.1268 5.23407 20.0899 5.09648 19.7527L5.05511 19.6529L7.37795 16.4802L16.3483 16.4676C16.3555 16.4676 16.3627 16.4658 16.3708 16.4658L18.574 19.6376L18.529 19.7536C18.3923 20.0917 18.0947 20.1277 17.9733 20.1277H17.9688Z" fill="#0D0E36"/>
</svg>
