<svg width="24" height="24" viewBox="0 0 24 24" fill="none" xmlns="http://www.w3.org/2000/svg">
<path d="M20.8927 7.65848C20.6081 6.78649 19.8286 6.18751 18.9144 6.13452L17.7398 6.14799C17.3105 3.79157 15.2451 2 12.7665 2C10.288 2 8.21537 3.79785 7.79061 6.15967H6.07C4.69334 6.15967 3.56991 7.27951 3.56542 8.65619L3.54297 14.5365C3.54207 14.7978 3.75311 15.0106 4.01533 15.0124L4.86396 15.016C5.12528 15.0169 5.33812 14.8059 5.33901 14.5437L5.36146 8.66337C5.36236 8.27363 5.68116 7.95663 6.0709 7.95663H7.57059L5.64973 21.2519C5.59226 21.6471 5.89938 22.0009 6.2981 22.0009H19.1811C19.5798 22.0009 19.8861 21.6489 19.8304 21.2537L18.4681 11.5712L20.1914 10.0616C20.8766 9.46801 21.1747 8.52059 20.8936 7.65848H20.8927ZM9.3846 7.95573H16.1458L17.3931 16.822L8.10312 16.8318L9.38549 7.95573H9.3846ZM12.7665 3.79606C14.2537 3.79606 15.5118 4.79646 15.9024 6.15967H9.63065C10.0213 4.79646 11.2794 3.79606 12.7665 3.79606ZM7.6155 20.2039L7.83282 18.7015L17.6563 18.6908L17.8691 20.2039H7.6155ZM19.1389 8.75228L18.1906 9.59822L17.94 7.81833L18.8174 7.80845C19.1434 7.82731 19.2601 8.06888 19.2952 8.17215C19.3302 8.27543 19.385 8.53765 19.138 8.75138L19.1389 8.75228Z" fill="#0D0E36"/>
</svg>
