<svg width="24" height="24" viewBox="0 0 24 24" fill="none" xmlns="http://www.w3.org/2000/svg">
<path d="M12 2C6.47727 2 2 6.47727 2 12C2 17.5227 6.47727 22 12 22C17.5227 22 22 17.5227 22 12C22 6.47727 17.5236 2 12 2ZM19.4302 8.55101L15.7409 9.76543C15.3939 9.8838 15.1707 9.6814 15.0912 9.58923C15.0117 9.49706 14.8436 9.24767 15.0098 8.92057L16.9065 5.44267C17.9836 6.25047 18.8555 7.31761 19.4302 8.5501V8.55101ZM3.80717 12C3.80717 11.5319 3.84693 11.0729 3.92283 10.6256L8.13807 10.8814C8.50312 10.9085 8.62962 11.1814 8.66667 11.2979C8.69739 11.3937 8.74076 11.6115 8.59709 11.8166L8.01608 12.3117C7.23629 12.9641 6.88389 14.0204 7.18388 14.9927C7.48658 15.9758 8.34951 16.6625 9.37237 16.7393L9.41935 16.742C9.42568 16.742 9.43201 16.7447 9.43923 16.7456L10.3103 16.799C10.6753 16.8261 10.8018 17.0989 10.8389 17.2155C10.8759 17.3312 10.9329 17.6275 10.6518 17.8625L8.58083 19.4447C5.76525 18.1471 3.80627 15.2981 3.80627 12H3.80717ZM12 20.1928C11.6006 20.1928 11.2076 20.1639 10.8226 20.1079L11.8066 19.3498C12.5864 18.6974 12.9388 17.6411 12.6388 16.6688C12.3361 15.6857 11.4732 14.999 10.4503 14.9222L10.4034 14.9195C10.397 14.9195 10.3907 14.9168 10.3835 14.9159L9.51242 14.8626C9.14738 14.8355 9.02087 14.5626 8.98383 14.446C8.9531 14.3502 8.90973 14.1325 9.0534 13.9274L9.63441 13.4322C10.4142 12.7798 10.7666 11.7235 10.4666 10.7512C10.1639 9.76814 9.30099 9.08141 8.27812 9.00461L4.47673 8.75522C5.73633 5.84657 8.63323 3.80717 11.9991 3.80717C13.1656 3.80717 14.2752 4.05295 15.2809 4.4939L13.3635 8.00524C12.9027 8.91154 12.9921 10.0211 13.649 10.7973C14.3132 11.5825 15.3758 11.8762 16.3472 11.5455L20.023 10.3356C20.1341 10.8732 20.1928 11.4298 20.1928 11.9991C20.1928 16.517 16.517 20.1919 12 20.1919V20.1928Z" fill="#0D0E36"/>
</svg>
