<svg width="24" height="24" viewBox="0 0 24 24" fill="none" xmlns="http://www.w3.org/2000/svg">
<path fill-rule="evenodd" clip-rule="evenodd" d="M9.38387 7.47854C9.22173 7.64068 8.9578 7.64068 8.79566 7.47854V7.47764L8.07864 6.76062C7.9165 6.59848 7.9165 6.33455 8.07864 6.17241L12.1294 2.12161C12.2916 1.95946 12.5555 1.95946 12.7176 2.12161L16.6883 6.09314C16.8504 6.25528 16.8504 6.51921 16.6883 6.68135L15.9713 7.39837C15.8091 7.56051 15.5452 7.56051 15.3831 7.39837L13.2806 5.29595L13.2914 15.7396C13.2914 15.9387 13.1302 16.1008 12.9302 16.1008H11.7772C11.5782 16.1008 11.416 15.9396 11.416 15.7396L11.4052 5.45719L9.38387 7.47854ZM18.0109 10.623H19.1639H19.1648C19.3638 10.623 19.526 10.7852 19.526 10.9843L19.5134 21.5765C19.5134 21.7756 19.3521 21.9377 19.1521 21.9377H18.7369C18.6792 21.9774 18.609 21.9999 18.5342 21.9999L12.3233 21.9873C12.3026 21.9873 12.2828 21.9846 12.263 21.981C12.2432 21.9846 12.2233 21.9873 12.2026 21.9873L5.99176 21.9999C5.91609 21.9999 5.84673 21.9765 5.78908 21.9377H5.37382C5.17475 21.9377 5.01261 21.7756 5.01261 21.5765L5 10.9843C5 10.7852 5.16124 10.623 5.36121 10.623H6.51511C6.71418 10.623 6.87632 10.7852 6.87632 10.9843L6.88713 20.1227L12.2026 20.1119C12.2233 20.1119 12.2432 20.1146 12.263 20.1182C12.2828 20.1146 12.3026 20.1119 12.3233 20.1119L17.6388 20.1227L17.6496 10.9843C17.6496 10.7852 17.8118 10.623 18.0109 10.623Z" fill="#0D0E36"/>
</svg>
