<svg width="24" height="24" viewBox="0 0 24 24" fill="none" xmlns="http://www.w3.org/2000/svg">
<path d="M21.6931 10.0709L4.88017 10.0818L4.83037 6.48455C4.83399 6.11786 5.09928 5.97389 5.21246 5.92862C5.32654 5.88335 5.61809 5.8082 5.87161 6.07349L6.84947 7.2442C6.988 7.38907 7.21798 7.39451 7.36285 7.25598L8.20128 6.45558C8.34614 6.31705 8.35158 6.08707 8.21305 5.9422L7.23609 4.77149C6.52623 4.02904 5.44606 3.79725 4.49174 4.18658C3.54828 4.57229 2.95432 5.51575 2.94346 6.53526L2.99325 10.0836H2.30694C2.13763 10.0836 2 10.2466 2 10.4476V11.6065C2 11.8075 2.13763 11.9696 2.30694 11.9696H2.97967C3.44778 13.2209 4.17574 15.1033 4.59405 15.8503C4.82222 16.2586 5.34918 17.1966 6.31889 17.825L6.32795 19.2746C6.32795 19.4439 6.49092 19.5815 6.69102 19.5815H7.84997C8.05098 19.5815 8.21305 19.4439 8.21305 19.2746L8.20761 18.438H8.35792C8.38327 18.438 8.40771 18.4398 8.43307 18.4398H11.1602V18.4335L12.8642 18.4307V18.4407H15.5923C15.7064 18.4407 15.8168 18.4353 15.9255 18.4262L15.9309 19.2755C15.9309 19.4448 16.0939 19.5824 16.294 19.5824H17.4529C17.6539 19.5824 17.816 19.4448 17.816 19.2755L17.807 17.7589C18.7133 17.1333 19.2113 16.245 19.4322 15.8512C19.8523 15.1015 20.583 13.2101 21.0511 11.9578H21.6931C21.8624 11.9578 22 11.7949 22 11.5939V10.4349C22 10.2339 21.8624 10.0718 21.6931 10.0718V10.0709ZM17.7735 14.9213C17.1388 16.0549 16.4868 16.5384 15.5932 16.5384H12.8651V16.5447L11.1611 16.5474V16.5384H8.43397C7.54031 16.5384 6.8875 16.0549 6.2537 14.9213C5.97302 14.4206 5.45692 13.1304 5.01326 11.9678L19.0184 11.9588C18.5739 13.124 18.056 14.4197 17.7744 14.9213H17.7735Z" fill="#0D0E36"/>
</svg>
