<svg width="24" height="24" viewBox="0 0 24 24" fill="none" xmlns="http://www.w3.org/2000/svg">
<path d="M21.4932 10.8677L20.6807 10.8732C20.5944 9.76009 20.3429 8.72509 19.9498 7.89436C19.3542 6.63602 18.4817 5.94238 17.493 5.94238H15.118C14.1293 5.94238 13.2568 6.63511 12.6612 7.89436C12.2681 8.72509 12.0166 9.761 11.9304 10.875H11.5845C11.4982 9.76191 11.2467 8.72509 10.8536 7.89436C10.2571 6.63602 9.38463 5.94329 8.39594 5.94329H6.02089C5.03219 5.94329 4.1597 6.63602 3.56413 7.89527C3.17101 8.72691 2.91861 9.76372 2.83236 10.8786L2.21772 10.8813C2.01798 10.8813 1.85547 11.0448 1.85547 11.2454V12.4075C1.85547 12.6091 2.01798 12.7716 2.21772 12.7716L2.84598 12.7689C2.94313 13.8211 3.19007 14.7971 3.56322 15.587C4.1588 16.8453 5.03128 17.539 6.01998 17.539H8.39503C9.38373 17.539 10.2562 16.8462 10.8518 15.587C11.2258 14.7971 11.4719 13.8202 11.569 12.768H11.9422C12.0393 13.8193 12.2854 14.7962 12.6603 15.587C13.2559 16.8453 14.1284 17.539 15.1171 17.539H17.4921C18.4808 17.539 19.3533 16.8462 19.9489 15.587C20.3229 14.7962 20.5699 13.8184 20.667 12.7643L21.4923 12.7589C21.692 12.7589 21.8546 12.5955 21.8546 12.3948V11.2327C21.8546 11.0311 21.692 10.8686 21.4923 10.8686L21.4932 10.8677ZM4.66631 12.7616L5.64683 12.758C5.84657 12.758 6.00908 12.5946 6.00908 12.3939V11.2318C6.00908 11.0302 5.84657 10.8677 5.64683 10.8677L4.65178 10.8714C4.84335 8.70693 5.71856 7.75909 6.01998 7.75909C6.35862 7.75909 7.42631 8.9566 7.42631 11.7411C7.42631 14.5256 6.35953 15.7232 6.01998 15.7232C5.72582 15.7232 4.8842 14.8198 4.66631 12.7625V12.7616ZM8.40956 15.7204C8.43225 15.676 8.45495 15.6324 8.47674 15.5861C8.96973 14.5438 9.2421 13.1774 9.2421 11.7402C9.2421 10.303 8.97064 8.93663 8.47674 7.89436C8.45495 7.84806 8.43225 7.80448 8.40956 7.75999C8.76273 7.79086 9.80136 8.99292 9.80136 11.7402C9.80136 14.4875 8.76273 15.6896 8.40956 15.7204ZM13.7634 12.7607L14.8928 12.758C15.0926 12.758 15.2551 12.5946 15.2551 12.3939V11.2318C15.2551 11.0302 15.0926 10.8677 14.8928 10.8677L13.7498 10.8714C13.9414 8.70693 14.8166 7.75999 15.118 7.75999C15.4566 7.75999 16.5243 8.95751 16.5243 11.742C16.5243 14.5266 15.4575 15.7241 15.118 15.7241C14.8238 15.7241 13.9813 14.8207 13.7643 12.7634L13.7634 12.7607ZM17.5067 15.7204C17.5294 15.676 17.5521 15.6324 17.5738 15.5861C18.0668 14.5438 18.3392 13.1774 18.3392 11.7402C18.3392 10.303 18.0677 8.93663 17.5738 7.89436C17.5521 7.84806 17.5294 7.80448 17.5067 7.75999C17.8598 7.79086 18.8985 8.99292 18.8985 11.7402C18.8985 14.4875 17.8598 15.6896 17.5067 15.7204Z" fill="#0D0E36"/>
</svg>
