<svg width="24" height="24" viewBox="0 0 24 24" fill="none" xmlns="http://www.w3.org/2000/svg">
<path d="M21.9964 18.8733C21.9973 18.8626 22 18.8527 22 18.8419L21.9883 13.022C21.9964 12.9457 22 12.8685 22 12.7912C22 10.8713 19.5745 9.21901 16.0912 8.47996L16.1209 4.51442C16.111 3.50417 15.521 2.56757 14.5853 2.18502C13.6388 1.79888 12.5675 2.02877 11.8644 2.76602L10.4321 4.55303C10.2947 4.69671 10.3001 4.9248 10.4438 5.06219L11.2753 5.85602C11.419 5.99341 11.6471 5.98802 11.7845 5.84435L13.2168 4.05644C13.4682 3.79333 13.7574 3.86786 13.8705 3.91276C13.9837 3.95766 14.2459 4.10044 14.2495 4.46413L14.2216 8.18452C13.5068 8.10819 12.7624 8.06688 11.9982 8.06688C11.1074 8.06688 10.2435 8.12256 9.42188 8.22582L9.44971 4.51442C9.43984 3.50417 8.84986 2.56757 7.91415 2.18502C6.96767 1.79888 5.89637 2.02877 5.19325 2.76602L3.76096 4.55303C3.62356 4.69671 3.62895 4.9248 3.77263 5.06219L4.60417 5.85602C4.74784 5.99341 4.97593 5.98802 5.11333 5.84435L6.54562 4.05644C6.79705 3.79333 7.08621 3.86786 7.19935 3.91276C7.3125 3.95766 7.57471 4.10044 7.5783 4.46413L7.54867 8.55988C4.26114 9.33395 2 10.9387 2 12.7921C2 12.8873 2.00629 12.9825 2.01886 13.0768L2.03053 18.8428C2.03053 18.9236 2.05837 18.9982 2.10506 19.0583C2.12662 19.1275 2.16343 19.1939 2.22001 19.2487C3.95492 20.9513 7.70043 22.1205 12.0009 22.1205C16.3014 22.1205 20.1789 20.9163 21.8716 19.158C21.9371 19.0898 21.9749 19.008 21.991 18.9227C21.9919 18.9191 21.9928 18.9146 21.9937 18.9111C21.9955 18.8985 21.9964 18.8868 21.9973 18.8742L21.9964 18.8733ZM5.69612 11.0761C6.2421 10.8183 6.86351 10.5983 7.537 10.4187L7.52443 12.1788C7.52622 12.3781 7.68966 12.5371 7.88811 12.5353L9.03754 12.5236C9.23689 12.5218 9.39583 12.3584 9.39404 12.1599L9.4102 10.0434C10.2426 9.92662 11.1155 9.86556 12 9.86556C12.7507 9.86556 13.4934 9.90956 14.21 9.99487L14.1947 12.1114C14.1965 12.3108 14.3599 12.4697 14.5584 12.4679L15.7078 12.4563C15.9062 12.4545 16.0661 12.291 16.0643 12.0926L16.0778 10.3226C16.9003 10.5175 17.6555 10.7707 18.3039 11.0779C19.6167 11.6975 20.204 12.3862 20.204 12.7939C20.204 13.2016 19.6167 13.8904 18.3039 14.51C16.674 15.2796 14.3761 15.7214 12 15.7214C9.62392 15.7214 7.32597 15.2796 5.69612 14.51C4.38326 13.8904 3.79598 13.2016 3.79598 12.7939C3.79598 12.3862 4.38326 11.6975 5.69612 11.0779V11.0761ZM3.89925 18.3211L3.89296 15.557C5.70959 16.7433 8.66397 17.5147 12 17.5147C15.336 17.5147 18.3066 16.7388 20.1223 15.5472L20.1286 18.3112C18.4431 19.5881 14.9607 20.3236 12 20.3236C8.11351 20.3236 5.27586 19.3367 3.89925 18.3211Z" fill="#0D0E36"/>
</svg>
