<svg width="24" height="24" viewBox="0 0 24 24" fill="none" xmlns="http://www.w3.org/2000/svg">
<path fill-rule="evenodd" clip-rule="evenodd" d="M22.3272 17.8309V17.83L22.3155 5.44816C22.3227 5.41924 22.3281 5.38942 22.3281 5.3587V4.20121C22.3281 4.00061 22.1655 3.83887 21.9658 3.83887L2.69046 3.85152C2.49077 3.85152 2.32812 4.01416 2.32812 4.21386V5.37045C2.32812 5.41382 2.33716 5.45448 2.35071 5.49334L2.36246 17.6954C2.34078 17.7415 2.32812 17.793 2.32812 17.8472V19.0038C2.32812 19.2044 2.49077 19.3661 2.69046 19.3661L21.9649 19.3535C22.1655 19.3535 22.3272 19.1908 22.3272 18.9911V17.8345V17.8309ZM4.23289 5.73188L14.7479 5.72465L14.7597 17.4767L4.24463 17.4839L4.23289 5.73188ZM16.6292 5.72375L20.4333 5.72104L20.445 17.4731L16.6409 17.4758L16.6292 5.72375ZM19.1088 9.72949H17.9522C17.7516 9.72949 17.5898 9.89214 17.5898 10.0918L17.6025 11.2945C17.6025 11.4951 17.7651 11.6568 17.9648 11.6568H19.1214C19.3211 11.6568 19.4838 11.4942 19.4838 11.2945L19.4711 10.0918C19.4711 9.89123 19.3085 9.72949 19.1088 9.72949ZM19.1214 8.86827H17.9648C17.7651 8.86827 17.6025 8.70653 17.6025 8.50593L17.5898 7.30326C17.5898 7.10356 17.7516 6.94092 17.9522 6.94092H19.1088C19.3085 6.94092 19.4711 7.10266 19.4711 7.30326L19.4838 8.50593C19.4838 8.70562 19.3211 8.86827 19.1214 8.86827ZM5.88516 10.1512C6.16075 11.0205 6.91796 11.6738 7.82697 11.756C8.64562 11.8301 9.4209 11.4551 9.87179 10.7901C9.89709 10.7657 9.91968 10.7377 9.93594 10.7042L9.98383 10.6048C9.98919 10.5949 9.99471 10.5851 10.0003 10.5752C10.0078 10.5619 10.0154 10.5484 10.0227 10.5343L10.3091 9.9443C10.4609 9.70395 10.7022 9.69401 10.8043 9.70214C10.9136 9.71118 11.1784 9.76449 11.2778 10.078L11.5199 10.8208C11.5741 10.9916 11.7567 11.0864 11.9284 11.0322L12.9178 10.7178C13.0895 10.6636 13.1834 10.481 13.1292 10.3094L12.9051 9.62624C12.6295 8.75699 11.8723 8.10369 10.9642 8.02147C10.1456 7.94737 9.37029 8.32236 8.9194 8.9874C8.8941 9.0118 8.87151 9.03981 8.85525 9.07324L8.80736 9.17264C8.802 9.18259 8.79648 9.19238 8.79093 9.20221L8.79093 9.20222C8.78339 9.2156 8.7758 9.22906 8.76851 9.24312L8.48207 9.83316C8.33027 10.0735 8.08901 10.0835 7.9869 10.0753C7.87757 10.0663 7.61282 10.013 7.51342 9.69943L7.17367 8.6341C7.11946 8.46332 6.93693 8.36844 6.76525 8.42266L5.83998 8.84825C5.6692 8.90246 5.57432 9.08499 5.62854 9.25667L5.88606 10.1512H5.88516ZM10.9642 12.0102C11.8723 12.0925 12.6295 12.7458 12.9051 13.615H12.906L13.1301 14.2981C13.1843 14.4698 13.0904 14.6523 12.9187 14.7065L11.9293 15.021C11.7576 15.0752 11.575 14.9803 11.5208 14.8096L11.2787 14.0668C11.1793 13.7533 10.9145 13.6999 10.8052 13.6909C10.7031 13.6828 10.4618 13.6927 10.31 13.9331L10.0236 14.5231C10.0163 14.5372 10.0087 14.5506 10.0012 14.564C9.99562 14.5738 9.99009 14.5836 9.98473 14.5936L9.93684 14.693C9.92058 14.7264 9.89799 14.7544 9.87269 14.7788C9.4218 15.4439 8.64652 15.8189 7.82787 15.7448C6.91886 15.6625 6.16166 15.0092 5.88606 14.14L5.62854 13.2454C5.57432 13.0738 5.6692 12.8912 5.83998 12.837L6.76525 12.4114C6.93693 12.3572 7.11946 12.4521 7.17367 12.6229L7.51342 13.6882C7.61282 14.0017 7.87757 14.0551 7.9869 14.0641C8.08901 14.0722 8.33027 14.0623 8.48207 13.8219L8.76851 13.2319C8.7758 13.2178 8.78339 13.2044 8.79094 13.191C8.79648 13.1811 8.802 13.1714 8.80736 13.1614L8.85525 13.062C8.87151 13.0286 8.8941 13.0006 8.9194 12.9762C9.37029 12.3111 10.1456 11.9361 10.9642 12.0102Z" fill="#0D0E36"/>
</svg>
