<svg width="24" height="24" viewBox="0 0 24 24" fill="none" xmlns="http://www.w3.org/2000/svg">
<path d="M16.2354 15.3358C16.8863 15.0158 17.4923 14.6166 18.0353 14.1401C19.6123 12.7573 20.4844 10.9097 20.4925 8.9326L20.5213 8.56487C20.5213 8.36528 20.3595 8.20434 20.1608 8.20434L17.7413 8.20614C17.8843 7.77009 17.9104 7.29807 17.7908 6.83774C17.5615 5.95485 16.8791 5.28773 16.016 5.06656C15.9809 5.04948 15.9432 5.03689 15.9018 5.0315L15.7804 5.01891C15.7508 5.01441 15.722 5.00812 15.6923 5.00452L14.9695 4.9272C14.662 4.85887 14.5613 4.61073 14.5316 4.50194C14.5001 4.38506 14.457 4.08836 14.7465 3.86719L15.4298 3.33583C15.588 3.21536 15.6186 2.98879 15.4972 2.83055L14.7986 1.91619C14.6773 1.75795 14.4516 1.72738 14.2933 1.84876L13.664 2.33876C12.8602 2.95283 12.4628 3.98767 12.7182 4.96676C12.9474 5.84966 13.6298 6.51677 14.4929 6.73795C14.528 6.75503 14.5658 6.76762 14.6071 6.77301L14.7285 6.7856C14.7582 6.79009 14.7869 6.79639 14.8166 6.79998L15.5395 6.8773C15.847 6.94563 15.9477 7.19378 15.9773 7.30257C16.0088 7.41945 16.052 7.71614 15.7624 7.93732L15.4073 8.20974L11.9297 8.21243C12.0744 7.77548 12.1005 7.30167 11.9809 6.83864C11.7516 5.95575 11.0692 5.28863 10.2061 5.06746C10.1711 5.05038 10.1333 5.03779 10.0919 5.03239L9.97056 5.01981C9.94089 5.01531 9.91212 5.00902 9.88245 5.00542L9.15959 4.9281C8.8521 4.85977 8.75141 4.61163 8.72174 4.50284C8.69027 4.38596 8.64711 4.08926 8.93662 3.86809L9.61992 3.33673C9.77816 3.21626 9.80873 2.98969 9.68735 2.83145L8.98876 1.91709C8.86739 1.75885 8.64172 1.72828 8.48348 1.84966L7.85412 2.33965C7.05034 2.95372 6.65295 3.98856 6.90829 4.96766C7.13755 5.85056 7.81996 6.51767 8.68307 6.73885C8.71814 6.75593 8.7559 6.76851 8.79726 6.77391L8.91863 6.7865C8.9483 6.79099 8.97707 6.79729 9.00674 6.80088L9.72961 6.8782C10.0371 6.94653 10.1378 7.19468 10.1675 7.30347C10.1989 7.42035 10.2421 7.71704 9.95258 7.93822L9.59115 8.21513L4.26678 8.21963C4.06808 8.21963 3.90625 8.38146 3.90625 8.58016L3.92064 8.90652H3.91974C3.91974 9.10612 3.92873 9.30481 3.94671 9.49991L3.9566 9.73098C3.9566 9.78762 3.97098 9.83977 3.99346 9.88742C4.38366 12.4624 6.28612 14.6184 8.88267 15.6325L8.6606 16.0461C8.60036 16.0425 8.53922 16.0398 8.47719 16.0398C6.893 16.0398 5.60911 17.3237 5.60911 18.9079C5.60911 20.492 6.893 21.7759 8.47719 21.7759C9.81772 21.7759 10.9425 20.8571 11.2571 19.6145L16.3783 19.6056L17.4374 21.6033C17.53 21.7678 17.7449 21.8218 17.9185 21.7238L18.9218 21.1601C19.0953 21.063 19.1619 20.8499 19.0693 20.6862L16.2336 15.3376L16.2354 15.3358ZM5.86805 10.0888L18.5478 10.0789C17.9176 12.5766 15.3219 14.4538 12.2237 14.4538C9.12542 14.4538 6.5055 12.5811 5.86805 10.0888ZM8.47808 19.9769C7.88829 19.9769 7.40818 19.4968 7.40818 18.907C7.40818 18.3172 7.88829 17.8371 8.47808 17.8371C9.06788 17.8371 9.54799 18.3172 9.54799 18.907C9.54799 19.4968 9.06788 19.9769 8.47808 19.9769ZM11.0989 17.7418C10.9335 17.3704 10.6925 17.0414 10.394 16.7726L10.7366 16.1342C11.2194 16.2115 11.7157 16.252 12.2237 16.252C12.9906 16.252 13.7404 16.1585 14.4588 15.9814L15.3875 17.7337L11.0989 17.7418Z" fill="#0D0E36"/>
</svg>
