<svg width="24" height="24" viewBox="0 0 24 24" fill="none" xmlns="http://www.w3.org/2000/svg">
<path d="M21.8379 20.5448C18.7064 18.0173 15.7017 17.0198 13.077 16.8198V13.6896L14.0995 14.1844C14.9804 14.6107 16.0445 14.4967 16.7744 13.8414C17.513 13.1781 17.7699 12.1394 17.4297 11.2051L16.9133 9.86019C16.9046 9.83563 16.8925 9.81282 16.8786 9.79089L14.4683 3.58666C14.1081 2.66813 13.2506 2.02156 12.2742 2.00051C11.2865 1.98033 10.4003 2.56548 10.0211 3.48489L7.47195 9.80229C7.46154 9.81984 7.45199 9.83826 7.44505 9.85844L7.35826 10.0848L7.03886 10.8752C7.02497 10.9086 7.0189 10.9419 7.01542 10.9761L6.92776 11.2033C6.58753 12.1385 6.84444 13.1764 7.58305 13.8396C8.31298 14.4949 9.37706 14.609 10.258 14.1826L11.2691 13.694V16.8005C10.0176 16.8715 8.88234 17.1084 7.90071 17.4111C4.99228 18.3068 2.93095 19.8921 2.15155 20.5597C1.96234 20.722 1.94845 21.0115 2.1203 21.1922L2.72959 21.8335C2.88582 21.9976 3.14099 22.0134 3.31371 21.8669C4.01326 21.2782 5.88885 19.8526 8.47094 19.0709C12.6986 17.7918 16.8256 18.7454 20.7435 21.9055C20.9257 22.0528 21.1922 22.0248 21.3415 21.8432L21.9013 21.1624C22.0549 20.9755 22.0271 20.6957 21.8388 20.5439L21.8379 20.5448ZM9.41872 12.5649C9.10106 12.7184 8.86585 12.5491 8.77906 12.4701C8.69226 12.3903 8.50392 12.1692 8.62543 11.835L9.03249 10.7752L11.6901 4.18848C11.8255 3.86037 12.1128 3.82703 12.2299 3.82791C12.3471 3.82879 12.6335 3.86651 12.7637 4.19725L15.6296 11.5727C15.634 11.5823 15.6392 11.5911 15.6435 11.6007L15.7338 11.835C15.8553 12.1684 15.6669 12.3903 15.5802 12.4701C15.4934 12.55 15.2573 12.7184 14.9405 12.5649L13.0779 11.6639V11.206C13.0779 11.0112 12.9217 10.8542 12.7299 10.8542H11.6189C11.4262 10.8542 11.2709 11.0121 11.2709 11.206V11.6692L9.42046 12.564L9.41872 12.5649Z" fill="#0D0E36"/>
</svg>
