<svg width="24" height="24" viewBox="0 0 24 24" fill="none" xmlns="http://www.w3.org/2000/svg">
<path d="M21.6382 20.1121H20.1564L20.1474 13.6853H21.6391C21.839 13.6844 22.0002 13.5222 22.0002 13.3232V12.1702C22.0002 11.9703 21.8381 11.809 21.6391 11.809L18.4811 11.8108V2.51252C18.4811 2.22969 18.2514 2 17.9686 2H6.40134C6.11851 2 5.88882 2.22969 5.88882 2.51252V11.819L2.42369 11.8217C2.22463 11.8217 2.0625 11.9838 2.0625 12.1828V13.3358C2.0625 13.5358 2.22463 13.697 2.42369 13.697H3.9063L3.91531 20.1238H2.42369C2.22463 20.1247 2.0625 20.2868 2.0625 20.4859V21.6388C2.0625 21.8388 2.22463 22 2.42369 22L21.6373 21.9874C21.8372 21.9874 21.9984 21.8253 21.9984 21.6262V20.4732C21.9984 20.2733 21.8363 20.1121 21.6373 20.1121H21.6382ZM18.2802 20.1139H16.6229L16.6139 13.6871H18.2712L18.2802 20.1139ZM11.1536 13.6907L11.1626 20.1184H9.4251L9.41609 13.6916H11.1536V13.6907ZM13.0298 13.6898H14.7385L14.7475 20.1166H13.0388L13.0298 13.6898ZM13.0397 11.8135L13.0352 8.90416L16.6778 8.89966V11.8108L13.0388 11.8135H13.0397ZM16.6787 7.02342L13.0334 7.02792L13.0289 3.80058H16.6796V7.02342H16.6787ZM11.1527 3.80058L11.1572 7.03062L7.69029 7.03513V3.80148H11.1518L11.1527 3.80058ZM7.69119 8.91137L11.1608 8.90686L11.1653 11.8144L7.69209 11.8172V8.91137H7.69119ZM5.78343 13.6943H7.54167L7.55067 20.1211H5.79334L5.78433 13.6943H5.78343Z" fill="#0D0E36"/>
</svg>
