<svg width="24" height="24" viewBox="0 0 24 24" fill="none" xmlns="http://www.w3.org/2000/svg">
<path d="M21.9828 3.96327C21.963 3.78177 21.8113 3.64091 21.6244 3.64091L19.189 3.62917V2.64041C19.189 2.43995 19.0256 2.27832 18.826 2.27832H17.6702C17.6251 2.27832 17.5817 2.28735 17.5411 2.3027C15.7541 2.36771 14.3157 2.68285 13.2592 3.2436C12.7517 3.51269 12.3291 3.84047 11.9932 4.21882C11.6564 3.84047 11.2347 3.51269 10.7273 3.2436C9.67077 2.68376 8.23234 2.36862 6.44535 2.3027C6.40471 2.28735 6.36227 2.27832 6.31622 2.27832H5.16041C4.96086 2.27832 4.79832 2.44086 4.79832 2.64041V3.64001L2.36209 3.62827C2.16254 3.62827 2 3.7908 2 3.99036V5.14617C2 5.17687 2.00451 5.20577 2.01174 5.23376L2 20.6376C2 20.8381 2.16254 20.9997 2.36209 20.9997H3.5179C3.56576 20.9997 3.61181 20.9898 3.65335 20.9726L20.2988 20.9853C20.3223 20.9853 20.3448 20.9853 20.3683 20.9844C20.3999 20.9934 20.4333 20.9997 20.4686 20.9997H21.6244C21.8248 20.9997 21.9865 20.8372 21.9865 20.6376L21.9991 4.06621C21.9991 4.03009 21.9919 3.99578 21.9828 3.96327ZM20.1182 5.51368L20.1074 19.1044L13.215 19.099C13.4127 18.7712 13.7206 18.5003 14.1477 18.2736C14.9839 17.8303 16.2607 17.581 17.8571 17.5458H18.8387C19.0382 17.5458 19.2008 17.3833 19.2008 17.1837L19.1908 5.50917L20.1173 5.51368H20.1182ZM12.9423 6.81216C12.9423 5.95704 13.326 5.35476 14.1486 4.91862C14.8864 4.52763 15.9681 4.28654 17.3099 4.21159L17.3199 15.6685C15.6358 15.7507 14.2723 16.0622 13.2601 16.5995C13.14 16.6636 13.0253 16.7313 12.9143 16.8018L12.9251 6.81306H12.9414L12.9423 6.81216ZM11.046 6.79952L11.0352 16.7765C10.9358 16.7151 10.8347 16.6555 10.7282 16.5986C9.71592 16.0622 8.35243 15.7507 6.66838 15.6676L6.67832 4.21069C8.02014 4.28564 9.1019 4.52673 9.83963 4.91772C10.6586 5.35205 11.0424 5.94982 11.046 6.79862V6.79952ZM5.14867 17.5458H6.13021C7.72667 17.581 9.00348 17.8303 9.83963 18.2736C10.2658 18.4994 10.5728 18.7703 10.7715 19.0971L3.8827 19.0917L3.89354 5.51549L4.79742 5.52L4.78748 17.1837C4.78748 17.3842 4.95002 17.5458 5.14958 17.5458H5.14867Z" fill="#0D0E36"/>
</svg>
