<svg width="24" height="24" viewBox="0 0 24 24" fill="none" xmlns="http://www.w3.org/2000/svg">
<path d="M21.9882 4.363C21.9882 4.16204 21.8253 4 21.6252 4H20.4666C20.2656 4 20.1036 4.16294 20.1036 4.363V4.90523L3.88558 4.9179V4.363C3.88558 4.16204 3.72264 4 3.52168 4H2.36299C2.16294 4 2 4.16294 2 4.363L2.01267 19.302C2.01267 19.5029 2.17561 19.665 2.37567 19.665H3.53435C3.73531 19.665 3.89735 19.502 3.89735 19.302V18.1261L20.1144 18.1134V19.483C20.1153 19.684 20.2783 19.846 20.4783 19.846H21.637C21.838 19.846 22 19.6831 22 19.483L21.9873 4.36209L21.9882 4.363ZM20.1054 6.79082L20.1108 13.313L3.89282 13.3257L3.88739 6.80349L20.1054 6.79082ZM3.89554 16.2414V15.2104L20.1126 15.1977V16.2287L3.89554 16.2414Z" fill="#0D0E36"/>
</svg>
