<svg width="24" height="24" viewBox="0 0 24 24" fill="none" xmlns="http://www.w3.org/2000/svg">
<path d="M20.6437 11.3574H20.0163V10.7129H20.6437C20.8409 10.7129 21.0013 10.5516 21.0013 10.3526V9.20534C21.0013 9.00636 20.8409 8.84593 20.6437 8.84593L9.42812 8.85758V3.56225C9.42812 2.70091 8.7272 2 7.86585 2H4.70007C3.83872 2 3.1378 2.70091 3.1378 3.56225V11.6146C3.12525 11.6513 3.11719 11.689 3.11719 11.7302V12.8775C3.11719 13.0765 3.27763 13.2369 3.47482 13.2369H4.98331L4.99317 20.1339H4.81928C4.6221 20.1339 4.46166 20.2952 4.46166 20.4933V21.6406C4.46166 21.8396 4.6221 22 4.81928 22L12.2192 21.9875C12.4164 21.9875 12.5769 21.8261 12.5769 21.628V20.4808C12.5769 20.2818 12.4164 20.1214 12.2192 20.1214H11.8258C11.8347 18.9078 12.8251 17.9227 14.0414 17.9227V17.9174C16.8335 17.8161 19.1567 15.8478 19.7967 13.2252H20.6446C20.8418 13.2252 21.0022 13.0639 21.0022 12.8649V11.7177C21.0022 11.5187 20.8418 11.3583 20.6446 11.3583L20.6437 11.3574ZM18.134 10.7156V11.36L9.42812 11.3663V10.7246L18.134 10.7156ZM7.6355 3.7926V11.3672L4.93043 11.369V3.7926H7.6355ZM13.8156 16.1301V16.1364C11.7146 16.2538 10.0394 17.9962 10.0322 20.124L6.85929 20.1294L6.84943 13.2333L17.927 13.2252C17.3246 14.9157 15.7095 16.1292 13.8156 16.1292V16.1301Z" fill="#0D0E36"/>
</svg>
