<svg width="24" height="24" viewBox="0 0 24 24" fill="none" xmlns="http://www.w3.org/2000/svg">
<path d="M21.6377 4.88217C21.8383 4.88217 22 4.71953 22 4.51983V3.36234C22 3.16174 21.8374 3 21.6377 3L2.36234 3.01265C2.16265 3.01265 2 3.1753 2 3.37499V4.53158C2 4.73218 2.16265 4.89392 2.36234 4.89392H3.2081L3.21894 18.5218H2.36234C2.16174 18.5218 2 18.6845 2 18.8851V20.0417C2 20.2423 2.16265 20.404 2.36234 20.404L21.6368 20.3913C21.8374 20.3913 21.9991 20.2287 21.9991 20.029V18.8724C21.9991 18.6718 21.8365 18.5101 21.6368 18.5101H20.7006L20.6898 4.88217H21.6368H21.6377ZM11.0756 13.9506C11.1045 13.9976 11.1353 14.0382 11.1678 14.0717L11.2076 14.1304C11.2437 14.1467 11.2807 14.1593 11.3178 14.1674C11.3548 14.1783 11.3937 14.1819 11.4335 14.1756C11.4344 14.1756 11.4353 14.1756 11.4362 14.1756C11.4443 14.1747 11.4524 14.1738 11.4606 14.1711C11.4759 14.1674 11.4922 14.1629 11.5066 14.1566C11.5103 14.1557 11.513 14.1548 11.5166 14.1539V14.1521C11.5789 14.1232 11.6331 14.0662 11.6756 13.9705L13.0698 10.16C13.2018 9.82208 13.4828 9.78775 13.5966 9.78865C13.7114 9.78956 13.9915 9.82841 14.118 10.1691L15.5249 14.3716L15.5159 14.3753C15.5321 14.4123 15.5502 14.4566 15.5692 14.5054L15.7318 14.9906C15.946 15.7306 16.1204 16.8303 15.6884 17.4926C15.3722 17.977 14.6972 18.2218 13.6816 18.2218H10.3211C9.37237 18.2218 8.75251 17.986 8.42631 17.5017C7.73778 16.477 8.33686 14.3951 8.60161 13.7464L8.58625 13.74L9.00371 12.5681C9.13563 12.2301 9.41664 12.1967 9.5305 12.1967C9.68591 12.1967 9.87205 12.2735 10.0519 12.5771L11.0738 13.9506H11.0756ZM18.8194 18.5119H17.1803C17.1875 18.5019 17.1956 18.4911 17.2038 18.4803C18.4191 16.6171 17.3032 13.947 17.1721 13.6479L17.1604 13.6533L15.7851 9.54016C15.4336 8.59501 14.596 7.92907 13.6418 7.90829C12.6768 7.8875 11.8102 8.4902 11.4398 9.43716L10.8461 10.7654C10.4793 10.4898 10.041 10.3254 9.57568 10.3154C8.61064 10.2947 7.7441 10.8974 7.37363 11.8443L6.93991 13.0633L6.93088 13.0596C6.91732 13.0931 6.58932 13.8964 6.41222 14.9246C6.1565 16.4101 6.32909 17.6146 6.92455 18.5047C6.92816 18.5101 6.93178 18.5146 6.93539 18.5191H5.10021L5.08936 4.89211L18.8085 4.88308L18.8194 18.5119Z" fill="#0D0E36"/>
</svg>
