<svg width="24" height="24" viewBox="0 0 24 24" fill="none" xmlns="http://www.w3.org/2000/svg">
<path fill-rule="evenodd" clip-rule="evenodd" d="M18.9721 18.5108L12.0006 6.43612L5.02903 18.5108H18.9721ZM11.6635 3.19494C11.7382 3.06468 11.8694 3 12.0006 3C12.1317 3 12.2629 3.06468 12.3376 3.19494L21.9473 19.8399C22.0976 20.0995 21.9099 20.4238 21.6102 20.4238H2.39C2.0903 20.4238 1.90264 20.0995 2.05295 19.8399L11.6635 3.19494ZM11.0596 14.129C11.0596 14.3313 11.2236 14.4943 11.4249 14.4943H12.5909C12.7932 14.4943 12.9562 14.3304 12.9562 14.129L12.9435 10.4825C12.9435 10.2802 12.7795 10.1172 12.5782 10.1172H11.4122C11.2099 10.1172 11.0469 10.2812 11.0469 10.4825L11.0596 14.129ZM11.0596 16.8804C11.0596 17.0826 11.2236 17.2457 11.4249 17.2457H12.5909C12.7932 17.2457 12.9562 17.0817 12.9562 16.8804L12.9435 15.6934C12.9435 15.4912 12.7795 15.3281 12.5782 15.3281H11.4122C11.2099 15.3281 11.0469 15.4921 11.0469 15.6934L11.0596 16.8804Z" fill="#0D0E36"/>
</svg>
