<svg width="24" height="24" viewBox="0 0 24 24" fill="none" xmlns="http://www.w3.org/2000/svg">
<path d="M21.8936 11.6192C21.6078 10.7436 20.8251 10.1421 19.9071 10.0889L18.982 10.0989H17.9594C17.9594 6.77245 15.2534 4.06641 11.927 4.06641C8.60055 4.06641 5.89541 6.77245 5.89541 10.0989H4.53743C3.1542 10.0989 2.02616 11.2233 2.02075 12.6038L2.00001 16.6363C1.99821 16.9366 2.24077 17.1818 2.54194 17.1836L3.2561 17.1872C3.55637 17.189 3.80163 16.9465 3.80344 16.6453L3.82418 12.6119C3.82508 12.2206 4.14519 11.9023 4.53653 11.9023H4.92427V16.8013C4.92427 18.5678 6.35619 20.0006 8.12355 20.0006H15.7827C17.5492 20.0006 18.982 18.5687 18.982 16.8013V15.8653L21.1894 14.0321C21.8774 13.4361 22.1767 12.4848 21.8936 11.6192ZM16.156 10.0989H14.6492C14.651 9.56145 14.5861 7.98886 13.8476 6.33331C15.2164 7.03394 16.156 8.45865 16.156 10.0989ZM11.009 10.0989C11.009 9.69039 11.0631 8.06009 11.927 6.52628C12.7908 8.05919 12.8458 9.69039 12.8449 10.0989H11.009ZM10.0063 6.33331C9.26782 7.98886 9.2029 9.56145 9.2056 10.0989H7.69884C7.69884 8.45865 8.63842 7.03394 10.0072 6.33331H10.0063ZM17.1785 16.8013C17.1785 17.5705 16.5528 18.1972 15.7827 18.1972H8.12355C7.35438 18.1972 6.72769 17.5714 6.72769 16.8013V11.9023H17.1785V16.8013ZM20.1326 12.7183L18.982 13.6931V11.7806L19.8097 11.7715C20.1371 11.7905 20.2543 12.033 20.2895 12.1367C20.3246 12.2404 20.3796 12.5037 20.1317 12.7183H20.1326Z" fill="#0D0E36"/>
</svg>
