<svg width="24" height="24" viewBox="0 0 24 24" fill="none" xmlns="http://www.w3.org/2000/svg">
<path d="M21.8495 21.073L14.1907 3.54195C13.8082 2.59729 12.8968 1.98937 11.8749 2.00014C10.8647 2.01092 9.97119 2.66464 9.59045 3.60032L2.02687 21.0694C1.95144 21.2535 2.04034 21.4636 2.22442 21.539L3.28941 21.9727C3.4735 22.0482 3.68362 21.9593 3.75905 21.7752L6.87769 14.5717C7.33476 15.1994 8.05403 15.6061 8.84783 15.6151C9.75837 15.6259 10.5809 15.1446 11.0209 14.3705C11.047 14.3409 11.0694 14.3086 11.0847 14.27L11.1287 14.1568C11.1412 14.1299 11.1538 14.1029 11.1655 14.076L11.4295 13.3989C11.5759 13.1206 11.8417 13.0891 11.9548 13.0891C12.0545 13.0891 12.2745 13.1143 12.4244 13.3127L12.7163 14.0132C13.097 14.9488 13.9887 15.6044 14.9989 15.616C15.8008 15.6259 16.5326 15.2532 16.9978 14.6363L20.1164 21.7752C20.191 21.9593 20.4011 22.0482 20.5852 21.9736L21.6511 21.5417C21.8351 21.4672 21.924 21.2571 21.8495 21.073ZM15.5844 13.372C15.447 13.7096 15.1507 13.7456 15.0294 13.7456C14.9298 13.7456 14.7098 13.7204 14.5598 13.522L14.268 12.8215C13.8872 11.8859 12.9955 11.2304 11.9853 11.2187C11.0748 11.2079 10.2523 11.6892 9.81225 12.4633C9.78621 12.4929 9.76376 12.5252 9.74849 12.5638L9.70449 12.677C9.69192 12.7039 9.67935 12.7309 9.66768 12.7578L9.40367 13.4349C9.25731 13.7132 8.99151 13.7447 8.87836 13.7447C8.75714 13.7447 8.46081 13.7078 8.32342 13.3711L7.87354 12.2702L11.3478 4.24326C11.4852 3.90653 11.7824 3.87061 11.9036 3.87061C12.0248 3.87061 12.3221 3.90742 12.4586 4.24506L15.9831 12.3124L15.5853 13.3729L15.5844 13.372Z" fill="#0D0E36"/>
</svg>
