<svg width="24" height="24" viewBox="0 0 24 24" fill="none" xmlns="http://www.w3.org/2000/svg">
<path fill-rule="evenodd" clip-rule="evenodd" d="M18.448 2.1056L19.2944 2.87948C19.4404 3.01294 19.4673 3.22254 19.3544 3.34614L17.7511 5.11514C17.6383 5.23875 17.4278 5.23069 17.2809 5.09723L16.4345 4.32335C16.2885 4.18989 16.2616 3.98029 16.3745 3.85669L17.9778 2.08769C18.0906 1.96408 18.3011 1.97214 18.448 2.1056ZM18.8818 7.93576L21.2697 7.9259C21.4372 7.9259 21.5733 8.08623 21.5733 8.28508V9.43157C21.5733 9.62952 21.4372 9.79074 21.2697 9.79074L18.8818 9.80059C18.7143 9.80059 18.5781 9.64027 18.5781 9.44142V8.29493C18.5781 8.09698 18.7143 7.93576 18.8818 7.93576ZM21.677 5.90234L21.29 4.82303C21.2228 4.63672 21.041 4.53103 20.8825 4.58746L18.6388 5.40344C18.4811 5.45987 18.4068 5.65781 18.474 5.84412L18.8609 6.92343C18.9281 7.10974 19.1099 7.21543 19.2685 7.159L21.5122 6.34302C21.6698 6.28659 21.7441 6.08864 21.677 5.90234ZM14.3657 4.75245C14.9855 4.6172 15.6098 4.93965 15.8579 5.52185L15.8597 5.52364L17.4388 8.97924C17.686 9.58921 17.446 10.2825 16.8817 10.6112L13.8157 12.5979C14.294 13.1263 14.4929 13.8599 14.3254 14.5791C14.157 15.2984 13.6294 15.8662 12.9559 16.1332C13.5918 17.0244 14.1516 17.809 14.2949 18.0132C14.6855 18.5704 14.8458 19.243 14.7464 19.9058C14.6443 20.5857 14.2833 21.1741 13.7298 21.562C13.3061 21.8585 12.818 22.0009 12.3307 22.0009C11.5201 22.0009 10.7113 21.6077 10.2016 20.8795C9.93383 20.4969 8.29047 18.2003 7.3541 16.8918C7.21631 16.6992 7.09382 16.5281 6.99329 16.3875C6.89297 16.3938 6.79265 16.3983 6.69323 16.3983C4.83915 16.3983 3.08091 15.2912 2.34287 13.4703C1.37284 11.0752 2.53186 8.33613 4.92693 7.36609C6.23195 6.83763 12.5779 5.14387 14.3657 4.75245ZM12.7006 20.093C12.8484 19.99 12.9451 19.8288 12.9738 19.6389H12.9729C13.0034 19.4329 12.9514 19.2197 12.8251 19.0397C12.5752 18.6823 10.9648 16.4305 9.99295 15.0718L8.80437 15.8421C9.74216 17.1525 11.3911 19.4571 11.667 19.8512C11.9178 20.2077 12.3809 20.317 12.7006 20.093ZM12.6952 14.1904C12.7185 14.0847 12.7445 13.8178 12.4758 13.6333V13.6324L12.3468 13.5464L11.4995 14.0955C11.6267 14.2728 11.7637 14.4645 11.9061 14.6642L12.2617 14.6033C12.5833 14.5487 12.672 14.2961 12.6952 14.1904ZM4.00258 12.7976C4.59194 14.2531 6.23822 14.9697 7.69998 14.4233L15.6134 9.29452L14.3756 6.58683C12.1856 7.10007 6.64486 8.60215 5.59959 9.02581C4.11991 9.62593 3.40336 11.3179 4.00258 12.7976Z" fill="#0D0E36"/>
</svg>
