<svg width="24" height="24" viewBox="0 0 24 24" fill="none" xmlns="http://www.w3.org/2000/svg">
<path fill-rule="evenodd" clip-rule="evenodd" d="M15.007 4.83549C15.007 6.4012 13.7372 7.67099 12.1715 7.67099C10.6057 7.67099 9.33594 6.4012 9.33594 4.83549C9.33594 3.26978 10.6057 2 12.1715 2C13.7372 2 15.007 3.26978 15.007 4.83549ZM13.2135 4.83549C13.2135 4.26068 12.7463 3.79348 12.1715 3.79348C11.5966 3.79348 11.1294 4.26068 11.1294 4.83549C11.1294 5.4103 11.5966 5.87751 12.1715 5.87751C12.7463 5.87751 13.2135 5.4103 13.2135 4.83549ZM17.527 10.5083L19.6747 10.5011C19.8541 10.5011 19.9993 10.6616 19.9993 10.8607V12.0085C19.9993 12.2067 19.8541 12.3681 19.6747 12.3681L17.2069 12.3762L16.9118 14.1006C16.8374 14.5311 16.4644 14.8458 16.0276 14.8458H15.5802L15.4824 16.4277C16.6868 16.755 17.5727 17.8553 17.5727 19.1636C17.5727 20.7293 16.3029 21.9991 14.7372 21.9991C14.5516 21.9991 14.3714 21.9812 14.1965 21.9471H10.0436C9.57015 21.9471 9.17828 21.5786 9.14868 21.106L8.76129 14.8458H8.31381C7.87709 14.8458 7.50315 14.5311 7.42961 14.1006L7.13369 12.3726L4.58244 12.3807C4.40309 12.3807 4.25781 12.2202 4.25781 12.0211V10.8733C4.25781 10.6742 4.40309 10.5137 4.58333 10.5137L6.81444 10.5065L6.6333 9.44925C6.58846 9.18919 6.6611 8.92197 6.83148 8.7202C7.00187 8.51843 7.25206 8.40186 7.5166 8.40186H16.8249C17.0885 8.40186 17.3396 8.51843 17.51 8.7202C17.6804 8.92197 17.753 9.1883 17.7082 9.44925L17.527 10.5083ZM15.2708 13.0532L15.7604 10.1944H8.58014L9.06977 13.0532H15.2708ZM13.6943 19.1645C13.6943 19.7393 14.1615 20.2065 14.7363 20.2065C15.3111 20.2065 15.7784 19.7393 15.7784 19.1645C15.7784 18.5897 15.3111 18.1225 14.7363 18.1225C14.1615 18.1225 13.6943 18.5897 13.6943 19.1645ZM11.9008 19.1645C11.9008 17.9728 12.6361 16.9532 13.6782 16.5335V16.5344L13.7822 14.8467H10.5575L10.8857 20.1545H12.0784C11.9636 19.8461 11.9008 19.5125 11.9008 19.1645Z" fill="#0D0E36"/>
</svg>
