<svg width="24" height="24" viewBox="0 0 24 24" fill="none" xmlns="http://www.w3.org/2000/svg">
<path fill-rule="evenodd" clip-rule="evenodd" d="M21.6259 4.21184H20.4693H20.4656L3.60846 4.22449C3.57954 4.21726 3.55063 4.21184 3.5199 4.21184H2.36235C2.16265 4.21184 2 4.37448 2 4.57416L2.01265 10.3984C2.01265 10.599 2.1753 10.7607 2.37501 10.7607H3.53165C3.73226 10.7607 3.894 10.5981 3.894 10.3984L3.88497 6.10567L20.1078 6.09393L20.1177 15.1926L10.6315 15.2035C10.4309 15.2035 10.2691 15.3661 10.2691 15.5658V16.7223C10.2691 16.9229 10.4318 17.0847 10.6315 17.0847L20.3952 17.0729C20.4232 17.0792 20.4512 17.0847 20.481 17.0847H21.6376C21.8383 17.0847 22 16.922 22 16.7223L21.9874 4.57326C21.9874 4.37267 21.8247 4.21094 21.625 4.21094L21.6259 4.21184ZM8.18714 18.0993L2.36235 18.112C2.16175 18.112 2 18.2746 2 18.4743V19.6309C2 19.8314 2.16265 19.9932 2.36235 19.9932L8.18714 19.9805C8.38775 19.9805 8.5495 19.8179 8.5495 19.6182V18.4617C8.5495 18.262 8.38684 18.0993 8.18714 18.0993ZM2.36235 15.1899L8.18714 15.1773C8.38684 15.1773 8.5495 15.339 8.5495 15.5396V16.6961C8.5495 16.8958 8.38775 17.0585 8.18714 17.0585L2.36235 17.0711C2.16265 17.0711 2 16.9094 2 16.7088V15.5523C2 15.3526 2.16175 15.1899 2.36235 15.1899ZM8.18714 12.2543L2.36235 12.267C2.16175 12.267 2 12.4296 2 12.6293V13.7858C2 13.9864 2.16265 14.1481 2.36235 14.1481L8.18714 14.1355C8.38775 14.1355 8.5495 13.9729 8.5495 13.7732V12.6166C8.5495 12.4161 8.38684 12.2543 8.18714 12.2543ZM13.1259 10.6478C13.1259 10.0551 12.6433 9.57259 12.0505 9.57259C11.4578 9.57259 10.9752 10.0551 10.9752 10.6478C10.9752 11.2405 11.4578 11.723 12.0505 11.723C12.6433 11.723 13.1259 11.2405 13.1259 10.6478ZM9.16797 10.6478C9.16797 9.05577 10.4584 7.7655 12.0505 7.7655C13.6427 7.7655 14.9331 9.05577 14.9331 10.6478C14.9331 12.2399 13.6427 13.5301 12.0505 13.5301C10.4584 13.5301 9.16797 12.2399 9.16797 10.6478Z" fill="#0D0E36"/>
</svg>
