<svg width="24" height="24" viewBox="0 0 24 24" fill="none" xmlns="http://www.w3.org/2000/svg">
<g clip-path="url(#clip0_272_6742)">
<path fill-rule="evenodd" clip-rule="evenodd" d="M3.31629 12.9377C3.68435 13.1546 4.15809 12.9776 4.2953 12.5734C5.41985 9.25161 8.56638 6.8551 12.2627 6.8551C15.959 6.8551 19.1259 9.2683 20.2402 12.6067C20.3756 13.0119 20.8484 13.1908 21.2174 12.9748L21.6661 12.7124C21.9442 12.5493 22.0675 12.2127 21.9618 11.9086C20.5684 7.89158 16.747 5 12.2627 5C7.77835 5 3.98194 7.87304 2.57741 11.8688C2.47079 12.1729 2.59224 12.5103 2.87037 12.6735L3.31722 12.9368L3.31629 12.9377ZM12.2643 14.1652C12.8697 14.1652 13.362 14.6575 13.362 15.2629C13.362 15.8683 12.8697 16.3605 12.2643 16.3605C11.659 16.3605 11.1667 15.8683 11.1667 15.2629C11.1667 14.6575 11.659 14.1652 12.2643 14.1652ZM12.2643 12.311C10.6345 12.311 9.3125 13.6331 9.3125 15.2629C9.3125 16.8927 10.6345 18.2147 12.2643 18.2147C13.8942 18.2147 15.2162 16.8927 15.2162 15.2629C15.2162 13.6331 13.8942 12.311 12.2643 12.311ZM7.14996 14.1697C7.05447 14.6193 6.54735 14.8446 6.15056 14.611V14.61L5.69073 14.3384C5.43485 14.1873 5.30877 13.8869 5.3783 13.5986C6.12831 10.4947 8.91698 8.18164 12.2591 8.18164C15.6013 8.18164 18.4085 10.5096 19.1483 13.6283C19.2169 13.9175 19.089 14.217 18.8331 14.3672L18.3723 14.6369C17.9746 14.8696 17.4684 14.6425 17.3738 14.1919C16.8779 11.8223 14.766 10.0367 12.2591 10.0367C9.75228 10.0367 7.65429 11.8112 7.14996 14.1697Z" fill="#0D0E36"/>
</g>
<defs>
<clipPath id="clip0_272_6742">
<rect width="20" height="13.2147" fill="white" transform="translate(2 5)"/>
</clipPath>
</defs>
</svg>
