<svg width="24" height="24" viewBox="0 0 24 24" fill="none" xmlns="http://www.w3.org/2000/svg">
<path fill-rule="evenodd" clip-rule="evenodd" d="M5.46334 18.5313H4.85027L4.83956 2.35784C4.83956 2.15974 4.67893 2 4.48172 2H3.33947C3.14225 2 2.98162 2.16063 2.98162 2.35784L2.99233 18.5313H2.35785C2.16063 18.5313 2 18.6919 2 18.8892L2.01249 20.0769C2.01249 20.275 2.17312 20.4348 2.37034 20.4348H2.99322V21.3932C2.99322 21.5913 3.15385 21.751 3.35196 21.751H4.49421C4.69232 21.751 4.85205 21.5904 4.85205 21.3932V20.4348H5.47583C5.67394 20.4348 5.83368 20.2741 5.83368 20.0769L5.82118 18.8892C5.82118 18.6911 5.66055 18.5313 5.46334 18.5313ZM21.7196 18.8892C21.7196 18.6911 21.559 18.5313 21.3618 18.5313H20.7487L20.738 2.35784C20.738 2.15974 20.5774 2 20.3802 2H19.2379C19.0407 2 18.8801 2.16063 18.8801 2.35784L18.8908 18.5313H18.2563C18.0591 18.5313 17.8984 18.6919 17.8984 18.8892L17.9109 20.0769C17.9109 20.275 18.0716 20.4348 18.2688 20.4348H18.8917V21.3932C18.8917 21.5913 19.0523 21.751 19.2504 21.751H20.3926C20.5899 21.751 20.7505 21.5904 20.7505 21.3932V20.4348H21.3743C21.5715 20.4348 21.7321 20.2741 21.7321 20.0769L21.7196 18.8892ZM15.3376 2.53245C15.8686 2.27723 16.5039 2.52977 16.7145 3.08037L16.7137 3.08126L17.6881 5.63079C17.7917 5.90386 17.7604 6.19477 17.6257 6.43036L14.9628 12.7065L17.2437 18.0813L17.266 18.0714C17.8738 19.5064 17.2009 21.1671 15.7659 21.7748C15.4072 21.9256 15.0351 21.9979 14.6683 21.9979C13.6849 21.9979 12.7443 21.4803 12.2294 20.6022C12.1964 20.5781 12.1696 20.5478 12.1536 20.5103L11.9028 19.9196L11.6521 20.5103C11.636 20.5469 11.6101 20.5772 11.578 20.6004C11.2648 21.1368 10.7865 21.5535 10.201 21.7909C9.85837 21.9292 9.51391 21.9988 9.14001 21.9988C8.7661 21.9988 8.39308 21.9238 8.03881 21.7739C6.60475 21.1662 5.931 19.5055 6.53871 18.0706L6.56102 18.0804L8.84195 12.7056L6.17908 6.42947C6.04433 6.19388 6.01221 5.90296 6.11661 5.6299L7.0911 3.08037C7.3017 2.53066 7.93707 2.27723 8.46804 2.53245L10.898 3.70057C11.0452 3.77107 11.1657 3.87637 11.255 4.0013C11.271 4.01826 11.2853 4.03789 11.2951 4.0602L11.2978 4.06556C11.3397 4.13605 11.3719 4.2128 11.3942 4.29222L11.9028 5.49158L12.4115 4.29222C12.4338 4.2128 12.4659 4.13695 12.5079 4.06556L12.5105 4.0602C12.5204 4.03789 12.5346 4.01915 12.5507 4.0013C12.639 3.87637 12.7595 3.77196 12.9076 3.70057L15.3376 2.53245ZM12.5204 11.7052L10.7436 12.4289L11.3629 13.888L13.1397 13.1643L12.5204 11.7052ZM8.50552 4.62865L7.99776 5.9574L9.99937 10.6754L11.7761 9.95169L9.77717 5.23993L8.50552 4.62865ZM10.0172 19.543L10.0395 19.5528H10.0404L10.8944 17.5405L9.85213 15.0847L8.22531 18.9183C8.09949 19.3716 8.32615 19.8598 8.77056 20.0481C9.00436 20.1471 9.26315 20.1489 9.49874 20.0534C9.73433 19.9588 9.91816 19.7768 10.0172 19.543ZM15.036 20.0481C15.4804 19.8598 15.707 19.3716 15.5812 18.9183H15.5821L13.8839 14.9169L12.1072 15.6406L13.767 19.5528L13.7893 19.543C13.9937 20.0258 14.5532 20.2524 15.036 20.0481ZM12.9121 7.87066L13.9544 10.3265L15.8079 5.9574L15.3001 4.62865L14.0285 5.23993L12.9121 7.87066Z" fill="#0D0E36"/>
</svg>
