<svg width="24" height="24" viewBox="0 0 24 24" fill="none" xmlns="http://www.w3.org/2000/svg">
<path fill-rule="evenodd" clip-rule="evenodd" d="M16.2871 3.86925L7.50438 3.88181V3.88092C7.30606 3.88092 7.14453 3.72029 7.14453 3.52107V2.37241C7.14453 2.17409 7.30516 2.01256 7.50438 2.01256L16.2871 2C16.4854 2 16.6469 2.16063 16.6469 2.35985V3.5094C16.6469 3.70772 16.4854 3.86925 16.2871 3.86925ZM16.6157 5.25302L21.0371 9.60892H21.0362C21.7658 10.3196 21.9847 11.3929 21.589 12.3343C21.4194 12.7381 21.1457 13.0746 20.8091 13.3277V21.6402C20.8091 21.8385 20.6485 22 20.4493 22H19.3006C19.1023 22 18.9408 21.8394 18.9408 21.6402L18.9291 13.8446H14.6082V21.6402C14.6082 21.8385 14.4467 22 14.2484 22H13.0997C13.0701 22 13.0414 21.9955 13.0136 21.9883L3.5004 22C3.31644 22 3.16568 21.8609 3.14504 21.6814C3.14234 21.6698 3.14055 21.6572 3.14055 21.6402V13.4425C2.72775 13.1814 2.39123 12.8018 2.19471 12.3343C1.79896 11.3929 2.01792 10.3196 2.7475 9.60892L7.16801 5.25302C7.25506 5.16777 7.37441 5.13725 7.48568 5.15789C7.48882 5.15789 7.49174 5.15745 7.49466 5.157C7.49757 5.15655 7.50049 5.1561 7.50363 5.1561L16.2863 5.14354C16.3115 5.14354 16.3366 5.14623 16.3599 5.15072C16.4523 5.14982 16.5448 5.18392 16.6157 5.25302ZM8.03399 7.02445L4.05139 10.9478L4.05229 10.9487C3.79115 11.2018 3.86923 11.4907 3.91499 11.6029C3.96076 11.7151 4.10614 11.9762 4.46958 11.9762H19.3159C19.6793 11.9762 19.8247 11.7151 19.8705 11.6029C19.9162 11.4907 19.9934 11.2027 19.7332 10.9487L15.7398 7.01369L8.03399 7.02445ZM5.02057 20.129L12.7381 20.12L12.7291 13.8446H5.0116L5.02057 20.129Z" fill="#0D0E36"/>
</svg>
