<svg width="24" height="24" viewBox="0 0 24 24" fill="none" xmlns="http://www.w3.org/2000/svg">
<path fill-rule="evenodd" clip-rule="evenodd" d="M22.3155 5.53898L22.3272 17.9217L22.3281 17.9199V17.9245V19.081C22.3281 19.2816 22.1664 19.4443 21.9658 19.4443H20.7541C20.7541 19.4475 20.7545 19.4504 20.755 19.4533C20.7554 19.4563 20.7559 19.4592 20.7559 19.4624L20.7685 20.665C20.7685 20.8647 20.6059 21.0274 20.4062 21.0274H19.2496C19.0499 21.0274 18.8873 20.8656 18.8873 20.665L18.8746 19.4624C18.8746 19.4569 18.8764 19.4515 18.8764 19.4461L5.76989 19.4551V19.4633L5.78254 20.6659C5.78254 20.8656 5.61989 21.0283 5.4202 21.0283H4.26361C4.06392 21.0283 3.90127 20.8665 3.90127 20.6659L3.88862 19.4633V19.4569H2.69046C2.49077 19.4569 2.32812 19.2952 2.32812 19.0946V18.6672V5.46127V4.30468C2.32812 4.10498 2.49077 3.94234 2.69046 3.94234L21.9658 3.92969C22.1655 3.92969 22.3281 4.09143 22.3281 4.29203V5.44952C22.3281 5.48024 22.3227 5.51006 22.3155 5.53898ZM4.23198 5.82361L4.24373 17.5757L20.445 17.5648L20.4333 5.81276L4.23198 5.82361ZM15.7785 10.6362L16.589 10.628V10.6289C16.7887 10.6289 16.9513 10.7916 16.9513 10.9913V12.1479C16.9513 12.3476 16.7896 12.5102 16.589 12.5102L15.7532 12.5193C15.5951 13.046 15.3086 13.543 14.8921 13.9596C14.4267 14.4249 13.8602 14.7285 13.2638 14.8704L13.2737 15.8372C13.2737 16.0369 13.1111 16.1996 12.9114 16.1996H11.7548C11.5551 16.1996 11.3925 16.0378 11.3925 15.8372L11.3816 14.7891C10.8901 14.6255 10.4283 14.3499 10.0371 13.9587C9.61873 13.5403 9.33049 13.0406 9.17326 12.5102L8.06546 12.522C7.86577 12.522 7.70312 12.3593 7.70312 12.1596V11.003C7.70312 10.8033 7.86577 10.6407 8.06546 10.6407L9.15248 10.6289C9.30428 10.0705 9.59885 9.54193 10.0371 9.10369C10.4311 8.70972 10.8964 8.43323 11.3907 8.27058L11.3807 7.31278C11.3807 7.11309 11.5434 6.95044 11.7431 6.95044H12.8997C13.0993 6.95044 13.262 7.11218 13.262 7.31278L13.271 8.19378C13.8647 8.33654 14.4285 8.64015 14.8921 9.10369C15.333 9.54374 15.6276 10.075 15.7785 10.6362ZM12.465 13.1572C12.8988 13.1572 13.3072 12.9882 13.6144 12.681C14.2487 12.0467 14.2487 11.0157 13.6144 10.3814C13.3081 10.0741 12.8988 9.90517 12.465 9.90517C12.0313 9.90517 11.6229 10.0741 11.3157 10.3814C10.6813 11.0157 10.6813 12.0467 11.3157 12.681C11.622 12.9882 12.0313 13.1572 12.465 13.1572Z" fill="#0D0E36"/>
</svg>
