<svg width="24" height="24" viewBox="0 0 24 24" fill="none" xmlns="http://www.w3.org/2000/svg">
<path d="M21.7351 11.3093L12.6892 2.26334C12.5203 2.09437 12.292 2 12.0538 2C11.8156 2 11.5865 2.09437 11.4184 2.26334L2.37248 11.3093C2.11544 11.5663 2.03904 11.9528 2.17745 12.2889C2.31676 12.6251 2.6439 12.8435 3.00789 12.8435H11.1182L11.1245 21.6414C11.1245 21.8391 11.2863 22 11.4849 22H12.6353C12.8348 22 12.9957 21.8391 12.9957 21.6414L12.9894 12.8435H21.0997C21.4628 12.8435 21.7909 12.6242 21.9302 12.2889C22.0695 11.9528 21.9922 11.5663 21.7351 11.3093ZM9.0394 7.18492L7.26257 11.046H5.17838L9.0394 7.18492ZM9.32251 11.046L11.1137 7.15346L11.1164 11.046H9.32251ZM12.9858 7.25772L14.7294 11.046H12.9885L12.9858 7.25772ZM16.7893 11.046L14.964 7.08066L18.9292 11.046H16.7893Z" fill="#0D0E36"/>
</svg>
