<svg width="24" height="24" viewBox="0 0 24 24" fill="none" xmlns="http://www.w3.org/2000/svg">
<path d="M20.64 10.823C20.64 9.07369 19.9872 7.47437 18.7533 6.19743C17.7063 5.11445 16.3045 4.32961 14.6764 3.90486C14.4106 2.61266 13.2666 1.64014 11.8953 1.64014C10.5241 1.64014 9.38901 2.60547 9.11782 3.8905C7.4709 4.30986 6.05296 5.09739 4.99512 6.18755C3.75319 7.46629 3.09766 9.0692 3.09766 10.823C3.09766 12.0846 3.4344 13.0293 4.12856 13.71C4.39975 13.9758 4.71046 14.185 5.05618 14.3494C5.0472 14.4778 5.05888 14.6089 5.093 14.7373L6.67258 20.6443C6.82973 21.2307 7.42061 21.6401 8.11117 21.6401H15.6786C16.3682 21.6401 16.96 21.2307 17.1172 20.6443L18.6967 14.7373C18.7336 14.6008 18.7443 14.4616 18.7327 14.3251C19.0577 14.1644 19.3523 13.9641 19.61 13.7109C20.3042 13.0302 20.6409 12.0855 20.6409 10.8239L20.64 10.823ZM11.8944 3.43611C12.47 3.43611 12.9379 3.90397 12.9379 4.47958C12.9379 5.05519 12.47 5.52304 11.8944 5.52304C11.3188 5.52304 10.851 5.05519 10.851 4.47958C10.851 3.90397 11.3188 3.43611 11.8944 3.43611ZM12.8921 14.925L12.4377 19.8442H11.3134L10.859 14.925H12.8921ZM7.00214 14.925H8.98402L9.4384 19.8442H8.31771L7.00214 14.925ZM15.4711 19.8442H14.3127L14.7671 14.925H16.7867L15.4711 19.8442ZM18.3501 12.4286C17.5769 13.1874 15.6894 13.1523 13.5018 13.111C12.9747 13.1012 12.4305 13.0913 11.8675 13.0913C11.3044 13.0913 10.7603 13.1012 10.2331 13.111C9.75719 13.12 9.29652 13.1281 8.8574 13.129H8.84124C7.26885 13.129 5.9883 13.0203 5.38485 12.4286C5.05349 12.1026 4.89185 11.5782 4.89185 10.823C4.89185 8.42624 6.61062 6.46593 9.32526 5.69276C9.78054 6.65361 10.7585 7.31902 11.8926 7.31902C13.0268 7.31902 13.9966 6.65989 14.4537 5.70623C17.1405 6.48838 18.8413 8.4415 18.8413 10.823C18.8413 11.5782 18.6797 12.1026 18.3483 12.4286H18.3501Z" fill="#0D0E36"/>
</svg>
