<svg width="24" height="24" viewBox="0 0 24 24" fill="none" xmlns="http://www.w3.org/2000/svg">
<path d="M21.197 19.8461L21.8428 19.1824C21.9829 19.0423 21.982 18.815 21.841 18.674L21.0282 17.8611C20.8871 17.7201 20.6599 17.7201 20.5198 17.8593L19.8713 18.5258L18.6138 17.2728L19.9602 15.9148L20.5719 16.5228C20.712 16.663 20.9392 16.6621 21.0803 16.521L21.8931 15.7082C22.0341 15.5672 22.0341 15.3399 21.8949 15.1998L21.277 14.5854L21.7808 14.0771C21.921 13.9369 21.9201 13.7097 21.779 13.5687L20.9662 12.7558C20.8252 12.6148 20.5979 12.6148 20.4578 12.754L19.9503 13.266L18.6587 11.9816L19.9557 10.6774L20.5377 11.255C20.6779 11.3951 20.9051 11.3942 21.0461 11.2532L21.859 10.4403C22 10.2993 22 10.072 21.8608 9.93192L21.2752 9.35169L21.815 8.80918C21.9551 8.66906 21.9542 8.44182 21.8132 8.3008L21.0003 7.48794C20.8593 7.34693 20.6321 7.34693 20.4919 7.48615L19.9467 8.03494L18.5977 6.69843L19.8623 5.42929L20.5395 6.08856C20.6797 6.22868 20.9069 6.22778 21.0479 6.08677L21.8608 5.2739C22.0018 5.13289 22.0018 4.90565 21.8626 4.76553L21.1835 4.10356L21.841 3.44339C21.9811 3.30327 21.9802 3.07603 21.8392 2.93502L21.0264 2.12215C20.8853 1.98114 20.6581 1.98114 20.518 2.12036L19.8425 2.79849L19.1815 2.15539C19.0414 2.01527 18.8141 2.01617 18.6731 2.15718L17.8602 2.97005C17.7192 3.11106 17.7192 3.3383 17.8584 3.47842L18.5213 4.12422L17.2683 5.38169L15.913 4.03889L16.521 3.42723C16.6612 3.28711 16.6603 3.05987 16.5192 2.91885L15.7064 2.10599C15.5654 1.96497 15.3381 1.96497 15.198 2.10419L14.5836 2.72215L14.0753 2.21826C13.9352 2.07814 13.7079 2.07904 13.5669 2.22006L12.754 3.03292C12.613 3.17394 12.613 3.40118 12.7522 3.5413L13.2642 4.04877L11.9798 5.34037L10.6756 4.04338L11.2523 3.46136C11.3924 3.32124 11.3915 3.094 11.2505 2.95298L10.4376 2.14012C10.2966 1.9991 10.0693 1.9991 9.92922 2.13832L9.34899 2.72394L8.80649 2.18413C8.66637 2.04401 8.43913 2.04491 8.29811 2.18593L7.48525 2.99879C7.34423 3.1398 7.34423 3.36705 7.48345 3.50716L8.03135 4.05237L6.69484 5.40145L5.4257 4.1368L6.08497 3.45956C6.22509 3.31944 6.22419 3.0922 6.08317 2.95118L5.27301 2.14012C5.13199 1.9991 4.90475 1.9991 4.76463 2.13832L4.10266 2.81735L3.44249 2.15988C3.30238 2.01976 3.07513 2.02066 2.93412 2.16168L2.12215 2.97544C1.98114 3.11645 1.98114 3.34369 2.12036 3.48381L2.79849 4.15925L2.15539 4.82032C2.01527 4.96044 2.01617 5.18768 2.15718 5.32869L2.97005 6.14156C3.11106 6.28257 3.3383 6.28257 3.47842 6.14335L4.12422 5.48049L5.38169 6.73346L4.03889 8.08883L3.42723 7.48076C3.28711 7.34064 3.05987 7.34154 2.91885 7.48255L2.10599 8.29542C1.96497 8.43643 1.96497 8.66367 2.10419 8.80379L2.72215 9.41815L2.21826 9.92653C2.07814 10.0666 2.07904 10.2939 2.22006 10.4349L3.03292 11.2478C3.17394 11.3888 3.40118 11.3888 3.5413 11.2496L4.04877 10.7376L5.34037 12.022L4.04338 13.3262L3.46136 12.7486C3.32124 12.6085 3.094 12.6094 2.95298 12.7504L2.14012 13.5633C1.9991 13.7043 1.9991 13.9316 2.13832 14.0717L2.72394 14.6519L2.18413 15.1944C2.04401 15.3345 2.04491 15.5618 2.18593 15.7028L2.99879 16.5157C3.1398 16.6567 3.36705 16.6567 3.50716 16.5174L4.05237 15.9687L5.39875 17.3025L4.1341 18.5716L3.46046 17.915C3.32034 17.7749 3.0931 17.7758 2.95208 17.9168L2.13922 18.7297C1.9982 18.8707 1.9982 19.0979 2.13742 19.2381L2.81376 19.8964L2.16796 20.5449C2.02784 20.6851 2.02874 20.9123 2.16976 21.0533L2.98262 21.8662C3.12364 22.0072 3.35088 22.0072 3.491 21.868L4.15476 21.2015L4.81852 21.8473C4.95864 21.9874 5.18588 21.9865 5.3269 21.8455L6.13976 21.0326C6.28078 20.8916 6.28078 20.6644 6.14156 20.5243L5.4751 19.8758L6.72807 18.6183L8.08614 19.9647L7.47806 20.5764C7.33794 20.7165 7.33884 20.9437 7.47986 21.0847L8.29272 21.8976C8.43374 22.0386 8.66098 22.0386 8.8011 21.8994L9.41546 21.2814L9.92383 21.7853C10.064 21.9255 10.2912 21.9246 10.4322 21.7835L11.2451 20.9707C11.3861 20.8297 11.3861 20.6024 11.2469 20.4623L10.7349 19.9548L12.0193 18.6632L13.3235 19.9602L12.7459 20.5422C12.6058 20.6824 12.6067 20.9096 12.7477 21.0506L13.5606 21.8635C13.7016 22.0045 13.9289 22.0045 14.069 21.8653L14.6492 21.2797L15.1917 21.8195C15.3318 21.9596 15.5591 21.9587 15.7001 21.8177L16.513 21.0048C16.654 20.8638 16.654 20.6365 16.5148 20.4964L15.966 19.9512L17.2998 18.6048L18.5689 19.8695L17.9123 20.5431C17.7722 20.6833 17.7731 20.9105 17.9141 21.0515L18.727 21.8644C18.868 22.0054 19.0953 22.0054 19.2354 21.8662L19.8937 21.1898L20.5422 21.8356C20.6824 21.9757 20.9096 21.9749 21.0506 21.8338L21.8635 21.021C22.0045 20.88 22.0045 20.6527 21.8653 20.5126L21.1988 19.8488L21.197 19.8461ZM18.6345 14.5962L17.2899 15.9534L15.9947 14.6627L17.3411 13.3091L18.6354 14.5962H18.6345ZM10.6738 12.0031L9.33103 13.3504L7.98464 12.0112L9.32744 10.6612L10.6738 12.0031ZM10.646 9.33552L11.9879 7.98554L13.3379 9.32833L11.9933 10.6783L10.646 9.33552ZM11.9987 13.3235L13.3495 14.669L12.0103 16.0154L10.6577 14.6699L11.9996 13.3235H11.9987ZM13.319 11.9987L14.6645 10.6478L16.0145 11.9897L14.669 13.3423L13.319 11.9978V11.9987ZM18.6273 9.36247L17.333 10.6639L15.9848 9.32294L17.2782 8.02506L18.6282 9.36247H18.6273ZM14.5944 5.36552L15.9489 6.70742L14.6582 8.00261L13.3073 6.65891L14.5944 5.36462V5.36552ZM9.36067 5.37181L10.6621 6.6661L9.32115 8.01428L8.02326 6.72089L9.36067 5.37091V5.37181ZM5.36372 9.40468L6.70562 8.05021L8.00081 9.34091L6.65712 10.6918L5.36283 9.40468H5.36372ZM5.37001 14.6384L6.6643 13.337L8.00979 14.6753L6.7164 15.9731L5.36911 14.6384H5.37001ZM9.40288 18.6354L8.04572 17.2908L9.33642 15.9956L10.69 17.342L9.40288 18.6363V18.6354ZM14.6366 18.6291L13.3352 17.3348L14.6735 15.9893L15.9713 17.2827L14.6366 18.63V18.6291Z" fill="#0D0E36"/>
</svg>
