<svg width="24" height="24" viewBox="0 0 24 24" fill="none" xmlns="http://www.w3.org/2000/svg">
<path fill-rule="evenodd" clip-rule="evenodd" d="M21.6235 4C21.8235 4 21.9864 4.16202 21.9864 4.36296L21.9991 17.7618C21.9991 17.9618 21.8371 18.1247 21.6361 18.1247H2.37563C2.1756 18.1247 2.01267 17.9627 2.01267 17.7618L2 4.36296C2 4.16293 2.16293 4 2.36296 4H21.6235ZM20.1028 5.8845L3.88631 5.89718L3.89627 16.2393L20.1128 16.2266L20.1028 5.8845ZM6.52312 18.9964L17.9333 18.9838C18.1334 18.9838 18.2963 19.1458 18.2963 19.3467V20.5053C18.2963 20.7053 18.1343 20.8683 17.9333 20.8683L6.52312 20.8809C6.32308 20.8809 6.16016 20.7189 6.16016 20.518V19.3594C6.16016 19.1594 6.32218 18.9964 6.52312 18.9964Z" fill="#0D0E36"/>
</svg>
