<svg width="24" height="24" viewBox="0 0 24 24" fill="none" xmlns="http://www.w3.org/2000/svg">
<path fill-rule="evenodd" clip-rule="evenodd" d="M21.9618 21.6024V21.6029C21.9617 21.7352 21.8892 21.8487 21.7827 21.9113C21.7218 21.9579 21.6466 21.9875 21.5633 21.9875L2.35908 22C2.16118 22 2 21.8397 2 21.6409V20.4947C2 20.4642 2.00448 20.4356 2.01164 20.4078L2.0009 3.52592V3.51876V2.37253C2.0009 2.17462 2.16208 2.01343 2.35998 2.01343L21.5642 2C21.6968 2 21.8105 2.07254 21.8732 2.1791C21.9197 2.23999 21.9493 2.31521 21.9493 2.3985L21.9618 21.6024ZM20.0858 3.86711L3.86706 3.87785L3.8778 20.1356L20.0966 20.1248L20.0858 3.86711ZM12.9255 16.2571L18.1604 16.2446C18.3583 16.2446 18.5195 16.4049 18.5195 16.6037V17.7499C18.5195 17.9478 18.3583 18.109 18.1604 18.109L12.9255 18.1216C12.7276 18.1216 12.5664 17.9613 12.5664 17.7625V16.6162C12.5664 16.4183 12.7267 16.2571 12.9255 16.2571ZM12.9255 15.2246L18.1604 15.212C18.3583 15.212 18.5195 15.0509 18.5195 14.853V13.7067C18.5195 13.5079 18.3583 13.3476 18.1604 13.3476L12.9255 13.3602C12.7267 13.3602 12.5664 13.5214 12.5664 13.7193V14.8655C12.5664 15.0643 12.7276 15.2246 12.9255 15.2246ZM9.03796 14.8009L10.725 14.7965C10.9229 14.7965 11.0841 14.9577 11.0841 15.1556V16.3018C11.0841 16.4997 10.9229 16.6609 10.725 16.6609L9.04243 16.6654L9.04691 18.3525C9.04691 18.5504 8.88662 18.7116 8.68783 18.7116H7.54163C7.34373 18.7116 7.18254 18.5513 7.18254 18.3525L7.17896 16.6698L5.4919 16.6743C5.294 16.6743 5.13281 16.514 5.13281 16.3152V15.169C5.13281 14.9711 5.294 14.8099 5.4919 14.8099L7.17448 14.8054L7.17001 13.1183C7.17001 12.9204 7.3303 12.7592 7.52909 12.7592H8.67529C8.87319 12.7592 9.03438 12.9195 9.03438 13.1183L9.03796 14.8009ZM10.7231 6.8911L5.4882 6.90364C5.2903 6.90364 5.12911 7.06483 5.12911 7.26273V8.40897C5.12911 8.60777 5.2903 8.76806 5.4882 8.76806L10.7231 8.75552C10.921 8.75552 11.0822 8.59433 11.0822 8.39643V7.25019C11.0822 7.05139 10.921 6.8911 10.7231 6.8911ZM12.8488 9.44945L14.226 8.0668L12.8398 6.68684C12.6992 6.54714 12.6992 6.31969 12.8398 6.1791L13.6502 5.36867C13.7899 5.22808 14.0174 5.22808 14.1579 5.36867L15.5406 6.74594L16.9205 5.35972C17.0602 5.21912 17.2876 5.21912 17.4282 5.35972L18.2386 6.17014C18.3792 6.30984 18.3792 6.53729 18.2386 6.67789L16.8614 8.06053L18.2476 9.44049C18.3881 9.58019 18.3881 9.80764 18.2476 9.94824L17.4372 10.7587C17.2975 10.8993 17.07 10.8993 16.9294 10.7587L15.5468 9.38139L14.1669 10.7676C14.0272 10.9082 13.7998 10.9082 13.6592 10.7676L12.8488 9.95719C12.7082 9.81749 12.7082 9.59004 12.8488 9.44945Z" fill="#0D0E36"/>
</svg>
