<svg width="24" height="24" viewBox="0 0 24 24" fill="none" xmlns="http://www.w3.org/2000/svg">
<path d="M19.3945 5.25398C17.4419 3.30143 14.8831 2.32471 12.3233 2.32471C9.76357 2.32471 7.20563 3.30143 5.25306 5.25398C1.34794 9.15908 1.34794 15.4902 5.25306 19.3962C7.20563 21.3487 9.76447 22.3255 12.3242 22.3255C14.884 22.3255 17.4428 21.3487 19.3954 19.3962C23.3005 15.4911 23.3005 9.15999 19.3954 5.25398H19.3945ZM18.7457 17.4084L16.4335 15.0999C17.5801 14.1891 18.9599 13.6406 20.4254 13.5169C20.223 14.9065 19.6619 16.2537 18.7457 17.4084ZM4.16068 13.0073C6.16745 12.9214 8.06219 12.1986 9.60545 10.94L10.9924 12.3251L5.90723 17.4174C4.89797 16.1507 4.2935 14.6273 4.16068 13.0073ZM5.90091 7.23996L8.31789 9.65332C7.13605 10.5686 5.71478 11.1062 4.20947 11.1957C4.40825 9.74638 4.98833 8.38836 5.90091 7.23996ZM20.4869 11.698C18.5153 11.8191 16.6594 12.5573 15.1478 13.815L13.6542 12.3242L18.7394 7.23183C19.7839 8.54558 20.3658 10.1069 20.4869 11.698ZM12.3233 10.9942L10.9391 9.61176C12.205 8.0667 12.9305 6.17288 13.0181 4.16341C14.631 4.29804 16.1471 4.89889 17.4094 5.90272L12.3242 10.9951L12.3233 10.9942ZM9.65062 8.32512L7.23093 5.90905C8.38295 4.99105 9.7473 4.40737 11.2038 4.20949C11.1126 5.7184 10.5731 7.14148 9.64972 8.32512H9.65062ZM12.3251 13.6551L13.8295 15.1568C12.6061 16.6792 11.9023 18.5333 11.8092 20.4994C10.1304 20.3955 8.5492 19.7874 7.23996 18.7474L12.3251 13.6551ZM15.118 16.4443L17.4175 18.7402C16.3134 19.6203 15.015 20.1922 13.6262 20.4127C13.7283 18.9616 14.2443 17.5927 15.118 16.4434V16.4443Z" fill="#0D0E36"/>
</svg>
