<svg width="24" height="24" viewBox="0 0 24 24" fill="none" xmlns="http://www.w3.org/2000/svg">
<path d="M18.7566 9.23914C18.7566 5.24146 15.5151 2 11.5165 2C7.51792 2 4.27734 5.24146 4.27734 9.23914C4.27734 11.4194 5.24203 13.3722 6.76621 14.6996L6.77162 19.5284C6.80411 20.5436 7.41775 21.4713 8.36619 21.8341C9.32546 22.2014 10.3966 21.9469 11.087 21.1898L11.697 20.5346L12.307 21.1898C12.9974 21.9469 14.0686 22.2014 15.0278 21.8341C15.9763 21.4713 16.589 20.5427 16.6224 19.5284L16.6278 14.3666C17.9426 13.0563 18.7566 11.2425 18.7566 9.23914ZM15.0134 13.3956L13.4107 11.0539C13.2022 10.7534 13.3349 10.4836 13.4017 10.3816C13.4685 10.2796 13.6625 10.0504 14.0216 10.1199L16.7208 10.803C16.413 11.8263 15.8102 12.7224 15.0134 13.3947V13.3956ZM9.50504 7.11215C9.71169 7.41356 9.57814 7.68248 9.51136 7.78445C9.44458 7.88642 9.24966 8.11473 8.89049 8.04344L6.40253 7.40273C6.74094 6.46422 7.33022 5.64483 8.09005 5.02578L9.50504 7.11215ZM6.08308 9.25899L8.45463 9.87263C9.44999 10.0721 10.4932 9.68583 11.0626 8.84568C11.6384 7.99561 11.6347 6.89467 11.0545 6.04911L9.73696 4.10623C10.2956 3.91221 10.8939 3.80482 11.5174 3.80482C14.4079 3.80482 16.7776 6.07348 16.9418 8.92329L14.4503 8.2898C13.454 8.09488 12.4126 8.48472 11.8459 9.32847C11.2738 10.1813 11.2819 11.2822 11.8658 12.125L13.3845 14.345C12.8016 14.5588 12.1726 14.6753 11.5165 14.6753C8.52682 14.6753 6.093 12.2478 6.08218 9.25989L6.08308 9.25899ZM14.7418 19.5365C14.73 19.902 14.4629 20.0401 14.3483 20.0816C14.2337 20.124 13.9413 20.1926 13.695 19.9228L11.9641 18.0638C11.9578 18.0575 11.9506 18.0521 11.9443 18.0458L11.9407 18.0403C11.9361 18.0358 11.9307 18.0331 11.9262 18.0295C11.9154 18.0205 11.9055 18.0133 11.8946 18.0061C11.8856 17.9997 11.8757 17.9943 11.8667 17.9898C11.8558 17.9835 11.8441 17.9781 11.8324 17.9736C11.8215 17.9691 11.8116 17.9654 11.8008 17.9627C11.7891 17.9591 11.7782 17.9564 11.7665 17.9546C11.7548 17.9528 11.7439 17.951 11.7322 17.9501C11.7205 17.9492 11.7096 17.9483 11.6979 17.9483C11.6862 17.9483 11.6744 17.9483 11.6636 17.9501C11.6519 17.951 11.6411 17.9528 11.6293 17.9546C11.6176 17.9564 11.6059 17.96 11.595 17.9627C11.5842 17.9663 11.5734 17.97 11.5635 17.9736C11.5517 17.9781 11.5409 17.9835 11.5292 17.9898C11.5192 17.9952 11.5102 18.0006 11.5012 18.0061C11.4904 18.0133 11.4795 18.0214 11.4687 18.0295C11.4642 18.0331 11.4588 18.0358 11.4543 18.0403L11.4479 18.0485C11.4425 18.0539 11.4362 18.0584 11.4308 18.0638L9.69996 19.9228C9.4536 20.1926 9.16122 20.124 9.04661 20.0816C8.93201 20.0392 8.66489 19.902 8.65316 19.5365L8.64774 15.8863C9.5276 16.2671 10.4977 16.4783 11.5174 16.4783C12.6788 16.4783 13.7753 16.203 14.7472 15.7175L14.7418 19.5365Z" fill="#0D0E36"/>
</svg>
