<svg width="24" height="24" viewBox="0 0 24 24" fill="none" xmlns="http://www.w3.org/2000/svg">
<path fill-rule="evenodd" clip-rule="evenodd" d="M12.7148 4.09902C12.7068 3.9821 12.6114 3.89127 12.4945 3.88947V3.88857H12.4675H4.15361C4.03041 3.88857 3.92969 3.78875 3.92969 3.66464V2.22483C3.92969 2.10162 4.03041 2.0009 4.15361 2H12.4666C13.4442 2 14.6087 2.4002 14.6087 4.30676V5.18539C16.5224 5.60718 17.9694 7.28171 18.0449 9.30159C18.0521 9.33037 18.0566 9.36004 18.0566 9.39062V10.5418C18.0566 10.7405 17.9037 10.9024 17.7158 10.9024L9.6123 10.915C9.42435 10.915 9.27147 10.754 9.27147 10.5543V9.40321C9.27147 9.36994 9.27686 9.33936 9.28496 9.30878C9.3569 7.28531 10.8057 5.60808 12.7211 5.18539V4.30676C12.7211 4.22312 12.7184 4.15477 12.7148 4.09902ZM11.115 9.04078L16.214 9.03269C16.0071 7.81321 14.946 6.88151 13.6654 6.88151C12.3848 6.88151 11.3191 7.81681 11.115 9.04078ZM10.7745 12.5625L9.68634 12.1875C9.49839 12.1227 9.30054 12.1992 9.24569 12.3583L8.75647 13.817C8.70162 13.9762 8.80953 14.1579 8.99838 14.2235L10.0865 14.5985C10.2745 14.6633 10.4723 14.5868 10.5272 14.4277L11.0164 12.969C11.0712 12.8098 10.9633 12.6281 10.7745 12.5625ZM18.0623 12.3583L18.5515 13.817C18.6063 13.9771 18.4975 14.1588 18.3096 14.2235L17.2214 14.5985C17.0326 14.6633 16.8356 14.5868 16.7808 14.4277L16.2916 12.969C16.2367 12.8089 16.3455 12.6272 16.5335 12.5625L17.6216 12.1875C17.8105 12.1227 18.0074 12.1992 18.0623 12.3583ZM13.0833 12.3838H14.2344C14.4331 12.3838 14.595 12.5205 14.595 12.6887L14.6076 14.2265C14.6076 14.3947 14.4466 14.5314 14.247 14.5314H13.0959C12.8971 14.5314 12.7352 14.3947 12.7352 14.2265L12.7227 12.6887C12.7227 12.5205 12.8836 12.3838 13.0833 12.3838ZM13.0833 16.0573H14.2344C14.4331 16.0573 14.595 16.1939 14.595 16.3621L14.6076 17.9C14.6076 18.0681 14.4466 18.2048 14.247 18.2048H13.0959C12.8971 18.2048 12.7352 18.0681 12.7352 17.9L12.7227 16.3621C12.7227 16.1939 12.8836 16.0573 13.0833 16.0573ZM14.2344 19.8524H13.0833C12.8836 19.8524 12.7227 19.9891 12.7227 20.1573L12.7352 21.6951C12.7352 21.8633 12.8971 22 13.0959 22H14.247C14.4466 22 14.6076 21.8633 14.6076 21.6951L14.595 20.1573C14.595 19.9891 14.4331 19.8524 14.2344 19.8524ZM19.7507 17.2902L19.2615 15.8315C19.2066 15.6723 19.0097 15.5959 18.8208 15.6606L17.7327 16.0356C17.5447 16.1004 17.4359 16.282 17.4908 16.4421L17.98 17.9008C18.0348 18.06 18.2318 18.1364 18.4206 18.0717L19.5088 17.6967C19.6967 17.6319 19.8055 17.4503 19.7507 17.2902ZM20.4959 19.4199L20.9851 20.8786C21.0399 21.0386 20.9311 21.2203 20.7432 21.285L19.655 21.6601C19.4662 21.7248 19.2692 21.6484 19.2144 21.4892L18.7252 20.0305C18.6703 19.8704 18.7791 19.6888 18.9671 19.624L20.0552 19.249C20.2441 19.1842 20.441 19.2607 20.4959 19.4199ZM8.48712 15.6606L9.57526 16.0356C9.76411 16.1013 9.87202 16.2829 9.81717 16.4421L9.32795 17.9008C9.2731 18.06 9.07525 18.1364 8.8873 18.0717L7.79916 17.6967C7.61031 17.631 7.5024 17.4494 7.55725 17.2902L8.04647 15.8315C8.10132 15.6723 8.29917 15.5959 8.48712 15.6606ZM8.34088 19.624L7.25274 19.249C7.06479 19.1842 6.86695 19.2607 6.81209 19.4199L6.32288 20.8786C6.26802 21.0377 6.37594 21.2194 6.56479 21.285L7.65293 21.6601C7.84088 21.7248 8.03872 21.6484 8.09358 21.4892L8.58279 20.0305C8.63765 19.8713 8.52973 19.6897 8.34088 19.624Z" fill="#0D0E36"/>
</svg>
