<svg width="24" height="24" viewBox="0 0 24 24" fill="none" xmlns="http://www.w3.org/2000/svg">
<path d="M21.695 11.0024L13.7871 2.74817C13.298 2.24652 12.6384 1.98628 11.9681 2.00063C11.2977 1.98538 10.6372 2.24562 10.1491 2.74817L2.10212 11.0024C1.96302 11.1451 1.96661 11.373 2.1093 11.5112L2.93221 12.3126C3.07489 12.4517 3.30283 12.4481 3.44103 12.3054L4.29446 11.4296V20.1289C4.29446 20.3282 4.45599 20.4888 4.65431 20.4888H9.10629L9.10809 21.6401C9.10809 21.8394 9.26962 22 9.46794 22H10.6166C10.8158 22 10.9765 21.8385 10.9765 21.6401V20.4888H19.2083C19.4075 20.4888 19.5681 20.3273 19.5681 20.1289V11.4834L20.356 12.3054C20.4951 12.4481 20.7222 12.4508 20.8649 12.3126L21.6878 11.5112C21.8305 11.3721 21.8332 11.1451 21.695 11.0024ZM10.9765 18.6213V14.5749L12.8224 14.5696L12.8296 18.6213H10.9765ZM17.6989 18.6213H14.698L14.6881 13.0566C14.6881 12.8573 14.5266 12.6967 14.3282 12.6967H13.1796C13.1706 12.6967 13.1616 12.6985 13.1527 12.6994L10.6848 12.7066C10.6588 12.7003 10.6319 12.6967 10.604 12.6967H9.45538C9.25616 12.6967 9.09552 12.8582 9.09552 13.0566L9.1036 18.6213H6.16283V9.51363L11.4871 4.05208C11.5786 3.95875 11.6693 3.91119 11.759 3.88876C11.8254 3.86542 11.8963 3.85286 11.9708 3.85286C12.0524 3.85286 12.1305 3.86901 12.2023 3.89593C12.2831 3.92196 12.3665 3.96952 12.4473 4.05208L17.6989 9.53338V18.6213Z" fill="#0D0E36"/>
</svg>
