<svg width="24" height="24" viewBox="0 0 24 24" fill="none" xmlns="http://www.w3.org/2000/svg">
<path d="M15.7921 4.53745C14.9589 4.53745 14.1635 4.70392 13.4365 5.00265C12.3891 3.15895 10.4293 2 8.27251 2C4.99724 2 2.33203 4.66523 2.33203 7.94052C2.33203 9.64296 3.05907 11.2455 4.30889 12.3649C3.58005 13.3664 3.14905 14.5982 3.14905 15.9317C3.14905 19.2835 5.86644 22.0009 9.2182 22.0009C12.2325 22.0009 14.7331 19.8027 15.2055 16.9215C15.4007 16.9395 15.5969 16.9494 15.793 16.9494C19.215 16.9494 21.998 14.1654 21.998 10.7443C21.998 7.32326 19.2141 4.53925 15.793 4.53925L15.7921 4.53745ZM20.1975 10.7425C20.1975 10.846 20.193 10.9486 20.1859 11.0503C18.1388 12.7752 15.3476 12.8058 13.9772 12.1678C13.3114 11.3265 12.4278 10.6669 11.4119 10.2719C11.4974 9.46839 11.7997 8.72965 12.2586 8.11329C12.6752 8.40122 13.2322 8.72335 13.9017 8.9609C14.4649 9.16066 15.1533 9.31543 15.9298 9.31543C16.9619 9.31543 18.1505 9.04099 19.4129 8.23476C19.9078 8.94741 20.1984 9.81122 20.1984 10.7416L20.1975 10.7425ZM18.0398 6.95523C16.8908 7.568 15.7246 7.67958 14.5621 7.28546C14.2265 7.17209 13.9286 7.02722 13.6731 6.88055C14.3021 6.53412 15.0246 6.33617 15.7921 6.33617C16.6127 6.33617 17.3812 6.56202 18.0398 6.95523ZM10.5724 4.49516C9.58441 4.99366 8.56134 5.10613 7.51578 4.82359C7.02628 4.69132 6.60788 4.49156 6.28665 4.3062C6.87602 3.98317 7.55267 3.79871 8.27161 3.79871C9.11022 3.79871 9.90564 4.04976 10.5724 4.49516ZM4.89196 5.55154C5.33736 5.86017 6.0563 6.27948 6.9615 6.53772C7.44469 6.67539 8.01247 6.77617 8.64142 6.77617C9.59881 6.77617 10.6966 6.54132 11.8465 5.84847C11.8609 5.87277 11.8753 5.89796 11.8897 5.92316C10.6975 6.89045 9.87145 8.28875 9.6483 9.87961C9.50613 9.86971 9.36216 9.86251 9.2173 9.86251C7.8496 9.86251 6.58718 10.3151 5.57221 11.079C4.66251 10.2962 4.13163 9.15526 4.13163 7.94052C4.13163 7.05151 4.41417 6.22819 4.89286 5.55244L4.89196 5.55154ZM9.2164 20.1995C6.86252 20.1995 4.94685 18.2847 4.94685 15.9299C4.94685 13.5751 6.86162 11.6603 9.2164 11.6603C11.5712 11.6603 13.4859 13.5751 13.4859 15.9299C13.4859 18.2847 11.5712 20.1995 9.2164 20.1995ZM15.7912 15.148C15.6023 15.148 15.4151 15.1354 15.2289 15.1111C15.1911 14.8321 15.1344 14.5595 15.0606 14.2941C15.3503 14.3273 15.6491 14.3444 15.9532 14.3444C16.2573 14.3444 16.5561 14.3282 16.8638 14.2959C17.5845 14.2185 18.2891 14.0511 18.9558 13.8046C18.1541 14.6324 17.033 15.1489 15.7921 15.1489L15.7912 15.148Z" fill="#0D0E36"/>
</svg>
