<svg width="24" height="24" viewBox="0 0 24 24" fill="none" xmlns="http://www.w3.org/2000/svg">
<path d="M21.4595 19.8252C21.271 17.6603 20.3237 15.9902 18.7443 15.0726C18.5916 14.9837 18.4192 14.902 18.2307 14.8221L18.404 14.3938C18.4713 14.2276 18.377 14.0319 18.1929 13.9565L17.128 13.5237C16.944 13.4492 16.7392 13.5237 16.6719 13.6898L16.4708 14.1872C16.2373 14.1037 15.9985 14.0148 15.7605 13.9197L15.9554 13.4366C16.0227 13.2705 15.9284 13.0747 15.7444 12.9993L14.6794 12.5665C14.4954 12.492 14.2906 12.5665 14.2233 12.7326L14.1039 13.028C13.7223 12.7308 13.4313 12.386 13.3011 11.9802C13.2365 11.7772 13.2859 11.3319 13.4376 10.7042L14.0518 10.9063C14.2224 10.9628 14.411 10.856 14.4738 10.6674L14.8366 9.57647C14.8994 9.38791 14.8123 9.18858 14.6417 9.13201L13.9782 8.91382C14.0572 8.68485 14.1434 8.44601 14.235 8.19908L14.93 8.42805C15.1006 8.48462 15.2891 8.37777 15.352 8.18921L15.7147 7.09825C15.7776 6.90969 15.6905 6.71035 15.5199 6.65379L14.9273 6.45804C15.2747 5.63376 15.6707 4.75561 16.1125 3.84603C16.24 3.58384 16.2319 3.27586 16.0909 3.01995C15.95 2.76405 15.6941 2.59345 15.404 2.56112L7.04542 1.63538C6.63239 1.58958 6.2418 1.83382 6.10082 2.2253C5.97961 2.56471 3.11708 10.5606 2.36373 13.1304C1.59243 15.7622 1.20004 18.613 3.5355 21.63L3.60374 21.5779C3.62619 21.5833 3.64864 21.586 3.67288 21.586L21.2171 21.5734C21.3967 21.5734 21.5421 21.4118 21.5421 21.2134V20.064C21.5421 19.9725 21.5098 19.8898 21.4595 19.8261V19.8252ZM13.4107 14.743L12.7364 16.4122C12.669 16.5784 12.7633 16.7741 12.9474 16.8495L14.0123 17.2823C14.1964 17.3568 14.4011 17.2823 14.4684 17.1162L15.0862 15.5862C15.325 15.6822 15.563 15.7711 15.7964 15.8546L15.185 17.3685C15.1176 17.5346 15.2119 17.7304 15.396 17.8058L16.4609 18.2386C16.645 18.3131 16.8497 18.2386 16.917 18.0725L17.5572 16.4877C17.6686 16.5353 17.7655 16.582 17.8419 16.6259C19.037 17.32 19.4967 18.5573 19.6413 19.704L4.39929 19.7148C3.35323 17.945 3.40081 16.2461 3.91711 14.2474C4.69829 15.4614 6.03438 17.0489 8.08879 17.0489C8.1696 17.0489 8.25042 17.0462 8.33302 17.0417C9.29468 16.9833 10.2985 16.4392 11.1596 15.5099C11.5969 15.0376 11.9884 14.4701 12.3278 13.8245C12.6367 14.1792 13.0066 14.4817 13.4089 14.743H13.4107ZM7.55364 3.49854L13.9602 4.20878C13.7474 4.67659 13.4906 5.25933 13.2221 5.89775L10.831 5.11028C10.6604 5.05371 10.4718 5.16056 10.409 5.34912L10.0462 6.44008C9.98338 6.62864 10.0705 6.82798 10.2411 6.88455L12.5272 7.63789C12.4383 7.87314 12.3512 8.11199 12.2668 8.35173L9.95195 7.58941C9.78135 7.53284 9.59279 7.63969 9.52993 7.82825L9.16718 8.91921C9.10433 9.10777 9.19142 9.3071 9.36203 9.36367L11.7208 10.1404C11.6714 10.3442 11.6283 10.5435 11.5924 10.7375L11.5709 10.7321C10.7798 13.9457 9.13665 15.1947 8.22438 15.2495C6.5839 15.3491 5.53065 13.4985 4.96587 12.5037C4.82669 12.2585 4.72613 12.0825 4.62197 11.9443C5.50641 9.264 6.97898 5.10849 7.55274 3.49854H7.55364Z" fill="#0D0E36"/>
</svg>
