<svg width="24" height="24" viewBox="0 0 24 24" fill="none" xmlns="http://www.w3.org/2000/svg">
<path fill-rule="evenodd" clip-rule="evenodd" d="M20.7834 8.25635C20.982 8.25635 21.1437 8.41718 21.1437 8.61665H21.1428L21.1554 21.6397C21.1554 21.8383 20.9945 22 20.7951 22H19.645C19.6144 22 19.5848 21.9955 19.5569 21.9883L4.52837 22H4.52298H3.37288C3.17431 22 3.01258 21.8392 3.01258 21.6397L3 8.61665C3 8.41808 3.16083 8.25635 3.3603 8.25635H4.5104C4.54095 8.25635 4.5706 8.26084 4.59846 8.26713H5.99385V8.0452C5.99385 4.71171 8.70557 2 12.0391 2C15.3725 2 18.0834 4.71171 18.0834 8.0443V8.25635H19.6261H19.6324H20.4285H20.4339H20.7834ZM19.2739 10.1279L4.8725 10.1387L4.88239 20.1275L19.2838 20.1167L19.2739 10.1279ZM12.0382 3.79613C9.69663 3.79613 7.79088 5.70187 7.79088 8.0443V8.26533L16.2863 8.25904V8.0443C16.2863 5.70187 14.3797 3.79613 12.0382 3.79613ZM9.29688 15.1427C9.29688 13.5595 10.58 12.2764 12.1631 12.2764C13.7463 12.2764 15.0294 13.5595 15.0294 15.1427C15.0294 16.7259 13.7463 18.0089 12.1631 18.0089C10.58 18.0089 9.29688 16.7259 9.29688 15.1427ZM11.0939 15.1436C11.0939 15.733 11.5737 16.2128 12.1631 16.2128C12.7526 16.2128 13.2324 15.733 13.2324 15.1436C13.2324 14.5542 12.7526 14.0744 12.1631 14.0744C11.5737 14.0744 11.0939 14.5542 11.0939 15.1436Z" fill="#0D0E36"/>
</svg>
