<svg width="24" height="24" viewBox="0 0 24 24" fill="none" xmlns="http://www.w3.org/2000/svg">
<path d="M21.7242 10.0828C21.4943 9.80318 21.1558 9.64298 20.7938 9.64298H19.8499L19.859 8.0365C19.859 8.02655 19.8617 8.01659 19.8617 8.00664V6.84816C19.8617 6.64724 19.6988 6.48523 19.4988 6.48523L18.4146 6.4789V6.47075H9.84157C8.96554 6.47075 8.03248 5.97387 7.40532 5.54216C7.38903 5.52134 7.37003 5.50234 7.34831 5.48514L6.93744 5.18828C6.88223 5.14212 6.83517 5.10049 6.79626 5.06429L6.78449 5.07696L6.03697 4.53754C5.23242 3.90038 4.13104 3.82255 3.24143 4.34205C2.36177 4.85612 1.90656 5.87341 2.03869 6.88346L2.00611 19.5796C1.99796 19.6602 1.99796 19.7398 2.00611 19.8195L2.0043 20.5616C2.03054 20.7607 2.21245 20.9001 2.41155 20.8739L2.9283 20.8757C3.01699 20.8965 3.1093 20.9073 3.20252 20.9073H18.3232C18.8807 20.9073 19.3658 20.5209 19.4943 19.9833L21.9604 11.1481L21.9767 11.0811C22.0473 10.7263 21.9559 10.3625 21.726 10.0828H21.7242ZM4.19892 5.96573C4.3048 5.90509 4.58354 5.78924 4.87133 6.01641L5.61162 6.5504C6.06683 6.945 7.84787 8.37047 9.84429 8.37047H17.9739L17.9666 9.64298H5.67406C5.11658 9.64298 4.63151 10.0294 4.503 10.567L3.88579 12.7772L3.89755 6.5685C3.84959 6.20466 4.09213 6.02546 4.19801 5.96482L4.19892 5.96573ZM17.8608 19.0981H4.00163L6.13561 11.4531H19.9947L17.8608 19.0981Z" fill="#0D0E36"/>
</svg>
