<svg width="24" height="24" viewBox="0 0 24 24" fill="none" xmlns="http://www.w3.org/2000/svg">
<path d="M21.9892 7.1126C21.9892 6.912 21.8265 6.75025 21.6268 6.75025H21.044H20.4702C20.4702 6.75025 20.4674 6.75025 20.4665 6.75025L18.034 6.75206C18.0267 6.75206 18.0204 6.75025 18.0132 6.75025H16.8566C16.8466 6.75025 16.8367 6.75206 16.8267 6.75296H15.2011L14.452 4.61407C14.068 3.67159 13.1697 3.01284 12.1532 3.00019C11.1248 2.98754 10.2068 3.59839 9.82 4.54901L9.02119 6.75838H7.21393C7.18773 6.75386 7.16062 6.75025 7.13351 6.75025H5.97687C5.94795 6.75025 5.91994 6.75477 5.89283 6.76109L3.60755 6.7629C3.57864 6.75567 3.54972 6.75025 3.519 6.75025H2.36235C2.16175 6.75025 2 6.9129 2 7.1126L2.01265 21.07C2.01265 21.2706 2.1753 21.4324 2.37501 21.4324H3.53165C3.53165 21.4324 3.53436 21.4324 3.53526 21.4324L5.96873 21.4306C5.97596 21.4306 5.98229 21.4324 5.98952 21.4324H7.14616C7.1561 21.4324 7.16514 21.4306 7.17508 21.4297L16.7861 21.4234C16.8123 21.4297 16.8385 21.4333 16.8665 21.4333H18.0231C18.052 21.4333 18.0801 21.4288 18.1072 21.4225L20.3924 21.4207C20.4214 21.4279 20.4503 21.4333 20.481 21.4333H21.6376C21.8383 21.4333 22 21.2706 22 21.0709L21.9874 7.11351L21.9892 7.1126ZM3.88316 8.64335H5.61542L5.62536 19.5474H3.8931L3.88316 8.64335ZM7.49767 8.64064L16.4933 8.63431L16.5032 19.5402L7.50761 19.5465L7.49767 8.64064ZM18.3755 8.63341H20.1078L20.1177 19.5375H18.3855L18.3755 8.63341ZM11.564 5.25746C11.7023 4.9186 12.0005 4.88155 12.1224 4.88155C12.2444 4.88155 12.5426 4.9186 12.6809 5.25746L13.2068 6.75477L11.0218 6.75657L11.564 5.25746Z" fill="#0D0E36"/>
</svg>
