<svg width="24" height="24" viewBox="0 0 24 24" fill="none" xmlns="http://www.w3.org/2000/svg">
<path fill-rule="evenodd" clip-rule="evenodd" d="M20.0488 2.33008C20.2485 2.33008 20.4111 2.49182 20.4111 2.69242H20.4102L20.4229 21.9668C20.4229 22.1665 20.2602 22.3292 20.0605 22.3292H3.79686C3.59717 22.3292 3.43453 22.1674 3.43453 21.9668L3.42188 2.69242C3.42188 2.49272 3.58452 2.33008 3.78421 2.33008H20.0488ZM5.30676 7.44167L18.5326 7.42992L18.5308 4.21135L5.30495 4.22309L5.30676 7.44167ZM18.5335 9.3121L5.30766 9.32384L5.30857 9.32475L5.3158 20.466L18.5407 20.4533L18.5335 9.3121ZM15.7392 6.29353C15.7392 6.49413 15.9019 6.65587 16.1016 6.65587H17.2581C17.4578 6.65587 17.6205 6.49322 17.6205 6.29353L17.6078 5.09085C17.6078 4.89026 17.4452 4.72852 17.2455 4.72852H16.0889C15.8892 4.72852 15.7266 4.89116 15.7266 5.09085L15.7392 6.29353ZM15.1626 11.7166C14.287 10.8411 13.1394 10.4028 11.9919 10.4028C10.8443 10.4028 9.69675 10.8411 8.82118 11.7166C7.07002 13.4678 7.07002 16.3078 8.82118 18.0589C9.69675 18.9345 10.8443 19.3727 11.9919 19.3727C13.1394 19.3727 14.287 18.9345 15.1626 18.0589C16.9137 16.3078 16.9137 13.4678 15.1626 11.7166ZM13.8849 16.7813C13.3789 17.2873 12.7066 17.5656 11.9919 17.5656C11.2771 17.5656 10.604 17.2873 10.0989 16.7813C9.05521 15.7376 9.05521 14.0389 10.0989 12.9952C10.6049 12.4892 11.2771 12.2109 11.9919 12.2109C12.7066 12.2109 13.3798 12.4892 13.8849 12.9952C14.9285 14.0389 14.9285 15.7376 13.8849 16.7822V16.7813Z" fill="#0D0E36"/>
</svg>
