<svg width="24" height="24" viewBox="0 0 24 24" fill="none" xmlns="http://www.w3.org/2000/svg">
<path fill-rule="evenodd" clip-rule="evenodd" d="M21.8044 2.35877V3.43867H21.8026L21.8142 21.643C21.8142 21.8398 21.6541 22 21.4554 22H20.3103C20.2799 22 20.2512 21.9955 20.2235 21.9884L3.52451 21.9991H3.51646H2.37129H2.35697C2.16015 21.9991 2 21.839 2 21.6403V20.4951C2 20.4647 2.00447 20.4361 2.01163 20.4083L2.00089 3.52366V3.51651V2.3713C2.00089 2.17357 2.16104 2.01253 2.35787 2.01253L21.4474 2C21.6442 2 21.8044 2.16015 21.8044 2.35877ZM19.9417 3.86365L3.86538 3.87438L3.87612 20.1355L19.9524 20.1247L19.9417 3.86365ZM15.4766 11.4597C16.2576 11.4597 17.0378 11.1618 17.6336 10.5659C18.8253 9.37419 18.8253 7.44344 17.6336 6.25171C17.0378 5.65584 16.2576 5.35791 15.4766 5.35791C14.6956 5.35791 13.9154 5.65584 13.3196 6.25171C12.1279 7.44344 12.1279 9.37419 13.3196 10.5659C13.9154 11.1618 14.6956 11.4597 15.4766 11.4597ZM14.5846 7.5177C14.8226 7.27971 15.1393 7.14819 15.4766 7.14819C15.8139 7.14819 16.1297 7.27971 16.3686 7.5177C16.6066 7.75569 16.7381 8.07241 16.7381 8.40971C16.7381 8.74701 16.6066 9.06284 16.3686 9.30172C16.1306 9.53971 15.8139 9.67123 15.4766 9.67123C15.1393 9.67123 14.8235 9.53971 14.5846 9.30172C14.3466 9.06374 14.2151 8.74701 14.2151 8.40971C14.2151 8.07241 14.3466 7.75659 14.5846 7.5177ZM8.30863 5.35889C7.52759 5.35889 6.74743 5.65682 6.15159 6.25269C4.95989 7.44442 4.95989 9.37517 6.15159 10.5669C6.74743 11.1628 7.52759 11.4607 8.30863 11.4607C9.08967 11.4607 9.86983 11.1628 10.4657 10.5669C11.6574 9.37517 11.6574 7.44442 10.4657 6.25269C9.86983 5.65682 9.08967 5.35889 8.30863 5.35889ZM9.20061 9.30091C8.96263 9.5389 8.64592 9.67042 8.30863 9.67042C7.97134 9.67042 7.65552 9.5389 7.41665 9.30091C7.17866 9.06292 7.04715 8.7462 7.04715 8.4089C7.04715 8.0716 7.17866 7.75577 7.41665 7.51689C7.65463 7.2789 7.97134 7.14738 8.30863 7.14738C8.64592 7.14738 8.96174 7.2789 9.20061 7.51689C9.4386 7.75488 9.57011 8.0716 9.57011 8.4089C9.57011 8.7462 9.4386 9.06203 9.20061 9.30091ZM6.15159 13.4368C6.74743 12.8409 7.52759 12.543 8.30863 12.543C9.08967 12.543 9.86983 12.8409 10.4657 13.4368C11.6574 14.6285 11.6574 16.5593 10.4657 17.751C9.86983 18.3469 9.08967 18.6448 8.30863 18.6448C7.52759 18.6448 6.74743 18.3469 6.15159 17.751C4.95989 16.5593 4.95989 14.6285 6.15159 13.4368ZM8.30863 16.8545C8.64592 16.8545 8.96263 16.723 9.20061 16.485C9.4386 16.2461 9.57011 15.9303 9.57011 15.593C9.57011 15.2557 9.4386 14.939 9.20061 14.701C8.96174 14.463 8.64592 14.3315 8.30863 14.3315C7.97134 14.3315 7.65463 14.463 7.41665 14.701C7.17866 14.9399 7.04715 15.2557 7.04715 15.593C7.04715 15.9303 7.17866 16.247 7.41665 16.485C7.65552 16.723 7.97134 16.8545 8.30863 16.8545ZM15.4766 12.543C14.6956 12.543 13.9154 12.8409 13.3196 13.4368C12.1279 14.6285 12.1279 16.5593 13.3196 17.751C13.9154 18.3469 14.6956 18.6448 15.4766 18.6448C16.2576 18.6448 17.0378 18.3469 17.6336 17.751C18.8253 16.5593 18.8253 14.6285 17.6336 13.4368C17.0378 12.8409 16.2576 12.543 15.4766 12.543ZM16.3686 16.485C16.1306 16.723 15.8139 16.8545 15.4766 16.8545C15.1393 16.8545 14.8235 16.723 14.5846 16.485C14.3466 16.247 14.2151 15.9303 14.2151 15.593C14.2151 15.2557 14.3466 14.9399 14.5846 14.701C14.8226 14.463 15.1393 14.3315 15.4766 14.3315C15.8139 14.3315 16.1297 14.463 16.3686 14.701C16.6066 14.939 16.7381 15.2557 16.7381 15.593C16.7381 15.9303 16.6066 16.2461 16.3686 16.485Z" fill="#0D0E36"/>
</svg>
