<svg width="24" height="24" viewBox="0 0 24 24" fill="none" xmlns="http://www.w3.org/2000/svg">
<path d="M21.9881 16.9523V7.31364V5.55368C21.9881 4.5378 21.4047 3.58964 20.4683 3.19593C19.521 2.7977 18.4411 3.01803 17.7259 3.75218L14.913 6.612L12.1001 3.75218C11.3859 3.01803 10.3059 2.7977 9.35861 3.19593C9.14459 3.28623 8.94954 3.40633 8.77526 3.549C8.60098 3.40633 8.40593 3.28623 8.19192 3.19593C7.24467 2.7977 6.16467 3.01803 5.44949 3.75218L2.13906 7.12762C2.10655 7.16103 2.08217 7.19986 2.06502 7.2405L2 7.23688V16.2182V19.4257C2 20.4416 2.58334 21.3897 3.51976 21.7834C4.46702 22.1817 5.54701 21.9613 6.26219 21.2272L8.92245 18.5136L11.5881 21.2272C12.3033 21.9622 13.3833 22.1817 14.3306 21.7834C14.597 21.6715 14.8335 21.5134 15.0376 21.3229C15.1776 21.4222 15.3284 21.508 15.49 21.5757C16.4373 21.974 17.5173 21.7536 18.2325 21.0195L21.8978 17.2883C21.9881 17.1962 22.0179 17.0679 21.9899 16.9505L21.9881 16.9523ZM4.91491 19.916C4.65936 20.1779 4.36949 20.1002 4.25661 20.0542C4.14374 20.0081 3.88096 19.8618 3.88096 19.4961V8.03785L6.79677 5.06425C7.05232 4.80238 7.34219 4.88004 7.45507 4.92609C7.56794 4.97214 7.83072 5.11843 7.83072 5.48415V7.23779V16.9406L4.91491 19.9151V19.916ZM13.5937 20.0542C13.4808 20.1002 13.1901 20.1788 12.9354 19.916L9.71168 16.6336V8.83611C9.7171 8.81173 9.71981 8.78644 9.71981 8.76116V5.48505C9.71981 5.11933 9.98258 4.97305 10.0955 4.92699C10.2083 4.88094 10.4991 4.80238 10.7538 5.06515L13.9694 8.33494V19.4961C13.9694 19.8618 13.7066 20.0081 13.5937 20.0542ZM16.8843 19.7092C16.6287 19.9711 16.3389 19.8934 16.226 19.8474C16.1131 19.8013 15.8503 19.655 15.8503 19.2893V16.22V8.34216L19.0741 5.06425C19.3296 4.80238 19.6195 4.88004 19.7324 4.92609C19.8452 4.97214 20.108 5.11843 20.108 5.48415V8.76026V16.4268L16.8843 19.7083V19.7092Z" fill="#0D0E36"/>
</svg>
