<svg width="24" height="24" viewBox="0 0 24 24" fill="none" xmlns="http://www.w3.org/2000/svg">
<path d="M21.6745 4.93453L19.9953 4.94263C19.8441 3.29494 18.4556 2 16.7701 2H6.26399V2.0351C4.93757 2.0351 3.85771 3.11406 3.85771 4.44139V4.97773L2.23432 4.98583C2.12003 4.98583 2.02734 5.14781 2.02734 5.34668V6.49854C2.02734 6.69831 2.12003 6.85939 2.23432 6.85939L3.85771 6.85129V8.57098C3.85771 8.66097 3.8712 8.74646 3.8955 8.82835V21.1001C3.8955 21.5969 4.29865 22 4.79538 22H16.1375C16.6342 22 17.0374 21.5969 17.0374 21.1001V18.1215H19.108C19.6048 18.1215 20.0079 17.7183 20.0079 17.2216V6.8171L21.6736 6.809C21.8536 6.809 21.9993 6.64702 21.9993 6.44814V5.29629C21.9993 5.09651 21.8536 4.93543 21.6736 4.93543L21.6745 4.93453ZM6.26399 3.83487C6.59785 3.83487 6.87051 4.10664 6.87051 4.44139V4.97773H5.65837V4.44139C5.65837 4.10754 5.93014 3.83487 6.26489 3.83487H6.26399ZM15.2376 20.2002H5.69617V6.7784H6.86691V17.2216C6.86691 17.7183 7.27006 18.1215 7.7668 18.1215H15.2385V20.2002H15.2376ZM18.2081 16.3217H8.66578V8.64387C8.66758 8.61957 8.66938 8.59528 8.66938 8.57098V4.44139C8.66938 4.21912 8.63878 4.00405 8.58209 3.79978H16.7692C17.5629 3.79978 18.2081 4.44499 18.2081 5.2387V16.3217Z" fill="#0D0E36"/>
</svg>
