<svg width="24" height="24" viewBox="0 0 24 24" fill="none" xmlns="http://www.w3.org/2000/svg">
<path d="M18.852 8.64094H16.1099L11.2644 2.74743C10.5538 2.01792 9.48058 1.79898 8.53931 2.19469C7.6088 2.58592 7.02914 3.52809 7.02914 4.53756L7.50651 8.60953C7.22116 8.57543 6.96543 8.5207 6.76982 8.46955L5.39066 7.89617C4.444 7.54533 3.35916 7.76158 2.66913 8.49826C1.97103 9.24303 1.80323 10.3252 2.24112 11.2458L2.87013 12.4365C2.87282 12.4428 2.8782 12.4482 2.88269 12.4536C3.31699 13.2235 4.40093 14.7372 6.21349 14.7372H7.58727L6.85058 19.4624C6.85058 20.4719 7.43024 21.4141 8.36074 21.8053C9.30202 22.201 10.3752 21.9821 11.0859 21.2526L15.8676 14.879C15.925 14.835 16.1538 14.7381 16.6357 14.7381H18.8529C20.5336 14.7381 21.9011 13.3706 21.9011 11.6909C21.9011 10.0111 20.5336 8.64363 18.8529 8.64363L18.852 8.64094ZM9.27061 3.91393C9.38277 3.86817 9.67171 3.7901 9.92475 4.05122L13.6988 8.64094H9.37829L8.89644 4.46846C8.89644 4.10505 9.15755 3.95969 9.26971 3.91393H9.27061ZM9.74529 19.9479C9.49135 20.2081 9.20331 20.1309 9.09115 20.0852C8.97899 20.0394 8.71787 19.894 8.71787 19.5306L9.45725 14.7372H13.7365L9.74529 19.9488V19.9479ZM18.852 12.9417H16.6348C16.4957 12.9417 16.3665 12.948 16.2427 12.9579V12.9417H6.21259C5.74958 12.9417 5.30362 12.695 4.88637 12.2086C4.51489 11.7752 4.31748 11.3221 4.31479 11.3176L4.30672 11.3212L3.92805 10.4427C3.77192 10.1143 3.9451 9.87114 4.02676 9.78141C4.10841 9.69168 4.33543 9.49786 4.67641 9.62438L5.79355 10.0515C5.8115 10.0578 5.83752 10.065 5.86982 10.0721C6.18926 10.1798 7.04709 10.4355 8.01438 10.4355H18.8511C19.5421 10.4355 20.1047 10.9973 20.1047 11.6882C20.1047 12.3791 19.543 12.9408 18.8511 12.9408L18.852 12.9417Z" fill="#0D0E36"/>
</svg>
