<svg width="24" height="24" viewBox="0 0 24 24" fill="none" xmlns="http://www.w3.org/2000/svg">
<path d="M13.4815 2C8.77412 2 4.84906 5.85122 4.8899 10.5582C4.90714 12.5627 5.62409 14.403 6.80659 15.8477L4.06586 18.5882L4.07493 18.5973L2.11467 20.5574C1.97219 20.6998 1.97219 20.9303 2.11467 21.0719L2.93599 21.8931C3.07847 22.0356 3.30898 22.0356 3.45056 21.8931L8.16698 17.1771C9.61812 18.3078 11.4441 18.9784 13.4252 18.9657C18.1071 18.9367 21.8561 15.0609 21.8561 10.3794V2.57986C21.857 2.25953 21.5975 2 21.2771 2H13.4815ZM20.042 10.3921C20.042 14.0673 17.107 17.12 13.4316 17.1517C11.9496 17.1644 10.5783 16.6898 9.46475 15.8813L9.8568 15.4893L9.84772 15.4802L12.1338 13.1943C12.2763 13.0518 12.2763 12.8214 12.1338 12.6798L11.3125 11.8586C11.17 11.7161 10.9395 11.7161 10.7979 11.8586L8.09892 14.5573C7.24039 13.4475 6.72129 12.0618 6.70495 10.5573C6.66502 6.85033 9.76151 3.81672 13.4688 3.81672H20.042V10.3939V10.3921Z" fill="#0D0E36"/>
</svg>
