<svg width="24" height="24" viewBox="0 0 24 24" fill="none" xmlns="http://www.w3.org/2000/svg">
<path d="M21.8553 9.65249C21.5358 8.67615 20.6632 8.0057 19.6399 7.94614L15.8852 7.85771L14.3917 3.63198C14.0181 2.68721 13.1275 2.02218 12.1123 2.00052C11.0854 1.97977 10.1641 2.58164 9.76973 3.52731L8.16621 7.84959L4.3338 7.94524C3.31051 8.00479 2.4379 8.67524 2.11846 9.65159C1.80263 10.6162 2.13651 11.6774 2.90353 12.3424L6.06186 14.7643L4.77777 18.9269C4.52872 19.9204 4.90772 20.9545 5.74422 21.551C6.5708 22.1411 7.68253 22.1393 8.54701 21.606L11.866 19.2797C11.8867 19.268 11.9066 19.2545 11.9255 19.2382H11.9264L15.3067 21.606C16.1703 22.1393 17.2829 22.1411 18.1095 21.551C18.9451 20.9545 19.325 19.9213 19.076 18.9269L17.8523 14.7689L21.0702 12.3424C21.8372 11.6774 22.1711 10.6162 21.8553 9.65159V9.65249ZM11.505 4.25009C11.6458 3.91261 11.9436 3.87832 12.0663 3.87922C12.1881 3.88013 12.4859 3.91893 12.6212 4.25912L13.8458 7.71875C13.8431 7.75574 13.8449 7.79364 13.8539 7.83154L15.6848 14.0524L11.921 16.893L8.2411 14.0686L10.109 8.01291L11.505 4.24919V4.25009ZM4.08294 10.8779C3.80681 10.6388 3.86818 10.3446 3.90698 10.2291C3.94668 10.1136 4.07662 9.84289 4.44209 9.82214L7.61124 9.74273L6.65292 12.8504L4.08294 10.8779ZM7.50205 20.0431C7.19073 20.2353 6.92814 20.0882 6.83068 20.017C6.73233 19.9448 6.51305 19.739 6.60238 19.3844L7.65185 15.9834L10.3491 18.0516L7.50296 20.0431H7.50205ZM17.2541 19.3844C17.3434 19.739 17.1241 19.9448 17.0258 20.017C16.9274 20.0891 16.6648 20.2353 16.3544 20.0431L13.5047 18.0489L16.2515 15.9771L17.2541 19.3844ZM19.8917 10.8779L17.2856 12.8441L16.3742 9.74724L19.5317 9.82214C19.8971 9.84289 20.028 10.1136 20.0668 10.2291C20.1056 10.3446 20.1678 10.6388 19.8908 10.8779H19.8917Z" fill="#0D0E36"/>
</svg>
