<svg width="24" height="24" viewBox="0 0 24 24" fill="none" xmlns="http://www.w3.org/2000/svg">
<path d="M20.4108 13.8313L18.4307 13.0753L18.4836 12.7417C18.5508 11.7257 17.9966 10.7823 17.0729 10.3473C16.7142 10.1787 16.3286 10.1079 15.9475 10.124C15.865 9.6353 15.6408 9.17256 15.2776 8.80847C14.9153 8.44617 14.4651 8.2148 13.9871 8.12512C13.997 7.75565 13.9253 7.38349 13.762 7.03554C13.3271 6.11186 12.3837 5.55765 11.3676 5.62491L10.9713 5.68768L10.1705 3.58833C9.80815 2.63864 8.91138 2.01179 7.89084 2.00014C6.88197 1.98937 5.97622 2.6225 5.57447 3.54797L4.74674 6.55487C4.7315 6.58895 4.72432 6.62392 4.72073 6.65979C3.48049 7.21759 2.40346 8.61028 2.0878 10.1967C1.79545 11.6647 2.24204 13.0072 3.29575 13.9515H3.27692C3.26885 14.0726 3.10295 16.9593 5.02833 18.8972C6.12419 20.0011 7.63885 20.558 9.53643 20.558C9.72206 20.558 9.91128 20.5518 10.1041 20.5419C10.8287 21.4001 11.8914 21.8817 13.1092 21.8817C13.2859 21.8817 13.467 21.8718 13.6499 21.8512C14.5709 21.7472 15.4776 21.3858 16.204 20.8334C16.7358 20.4289 17.1438 19.9393 17.4021 19.4066C17.4065 19.3976 17.411 19.3887 17.4155 19.3797C17.4361 19.3357 17.4559 19.2909 17.4747 19.2461L20.452 18.4264C21.3775 18.0255 22.0115 17.1189 21.9998 16.11C21.9891 15.0895 21.3613 14.1927 20.4099 13.8313H20.4108ZM7.87829 3.86812C7.99935 3.87081 8.29529 3.91386 8.42353 4.25374L9.08804 5.989L6.71965 6.36565L7.31511 4.22773C7.45949 3.89413 7.75722 3.86454 7.87739 3.86723L7.87829 3.86812ZM3.84638 10.5473C4.01856 9.68283 4.56111 8.91339 5.11083 8.50446L11.4905 7.49021C11.8528 7.46599 12.0151 7.71709 12.068 7.8256C12.1209 7.93411 12.2178 8.2166 11.9748 8.48742L11.573 8.84165L4.65258 12.7498C3.77015 12.0835 3.71634 11.2038 3.84727 10.5473H3.84638ZM5.08124 14.6402L13.2921 10.003C13.6257 9.8577 13.8625 10.0388 13.9495 10.124C14.0356 10.2083 14.2221 10.4415 14.0849 10.7787L9.59831 18.7645C8.17064 18.7744 7.06491 18.3995 6.30803 17.6435C5.37897 16.7145 5.13863 15.3899 5.08034 14.6411L5.08124 14.6402ZM13.4482 20.0684C12.9065 20.1294 12.0008 20.0908 11.4143 19.3169L15.1664 12.6512L15.622 12.1346C15.8919 11.8916 16.1744 11.9884 16.2838 12.0414C16.3923 12.0943 16.6434 12.2566 16.6192 12.6189L15.6202 18.9026C15.187 19.4927 14.3476 19.9671 13.4482 20.0684ZM19.7722 16.6849L17.7662 17.2436L18.1294 14.9577L19.7462 15.5764C20.0861 15.7056 20.1292 16.0006 20.1319 16.1217C20.1345 16.2428 20.1049 16.5396 19.7713 16.684L19.7722 16.6849Z" fill="#0D0E36"/>
</svg>
