<svg width="24" height="24" viewBox="0 0 24 24" fill="none" xmlns="http://www.w3.org/2000/svg">
<path d="M21.8599 10.9249V9.40854C21.8599 9.20923 21.6983 9.04853 21.4999 9.04853H20.8535H20.2978L18.3074 4.86304C17.9169 3.92126 17.0002 3.32154 15.9785 3.34219C14.9685 3.36194 14.0815 4.02361 13.708 4.9627L12.2366 8.14715V2.36001C12.2357 2.1616 12.0741 2 11.8757 2H11.7661H3.38349H2.36001C2.1616 2 2 2.1616 2 2.36001V11.7778H2.01257V21.64C2.01257 21.8393 2.17417 22 2.37258 22H3.52175H11.8397V21.9874H21.0403C21.0636 21.9874 21.0861 21.9847 21.1085 21.9802H21.5125C21.7109 21.9802 21.8725 21.8186 21.8725 21.6202V10.9249H21.8599ZM16.3511 10.9303H19.5419V10.9177H19.9908V11.7571H20.0033V20.1173H16.3511V10.9303ZM15.4704 5.58845C15.6051 5.24999 15.9013 5.21138 16.0225 5.21049C16.1437 5.20959 16.4409 5.2437 16.5801 5.57948L18.2293 9.04763H16.6196L16.0279 9.05301C16.0118 9.05032 15.9956 9.04763 15.9785 9.04763H14.8294C14.6301 9.04763 14.4694 9.20923 14.4694 9.40764V11.7571H14.4819V13.8212H12.2491V12.5687L15.4704 5.58756V5.58845ZM3.88266 20.1308V3.87009H10.3665V11.7787L10.379 13.5734V13.8221H7.96131H6.9477C6.74839 13.8221 6.58769 13.9837 6.58769 14.1821V20.1173H6.03825V20.1299H3.88266V20.1308ZM8.46945 20.1182V17.38H8.45688V15.7038H10.9779V15.6913H14.481V20.1173H8.46945V20.1182Z" fill="#0D0E36"/>
</svg>
