<svg width="24" height="24" viewBox="0 0 24 24" fill="none" xmlns="http://www.w3.org/2000/svg">
<path d="M15.2577 8.66883L21.3432 8.82367C21.9794 8.84045 22.2388 9.65082 21.729 10.0328L16.8591 13.6859C16.6345 13.855 16.5377 14.1453 16.6178 14.415L18.3508 20.2515C18.5327 20.8619 17.8411 21.3587 17.321 20.9922L12.3413 17.49C12.1117 17.3287 11.8058 17.3274 11.5736 17.4862L6.55904 20.938C6.03384 21.2993 5.34864 20.7961 5.53575 20.187L7.32812 14.3685C7.41071 14.1001 7.3178 13.8085 7.09456 13.6382L2.26457 9.93471C1.75873 9.54759 2.02584 8.7398 2.6633 8.72948L8.75015 8.63657C9.03146 8.63269 9.27921 8.45333 9.37341 8.18879L11.4006 2.44778C11.6123 1.84774 12.4639 1.85161 12.6691 2.45423L14.6383 8.2146C14.7286 8.48043 14.9764 8.66108 15.2564 8.66883H15.2577Z" fill="#0D0E36"/>
</svg>
