<svg width="24" height="24" viewBox="0 0 24 24" fill="none" xmlns="http://www.w3.org/2000/svg">
<path fill-rule="evenodd" clip-rule="evenodd" d="M20.5235 11.0658L21.6403 11.0721C21.8385 11.0721 22 11.2326 22 11.4318V12.5799C22 12.7781 21.8394 12.9396 21.6403 12.9396L20.5235 12.9333C20.0911 16.9222 16.9229 20.0903 12.9338 20.5227L12.9275 21.6394C12.9275 21.8377 12.7661 21.9991 12.5678 21.9991H11.4196C11.2214 21.9991 11.0599 21.8386 11.0599 21.6394L11.0662 20.5227C7.07714 20.0903 3.90886 16.9222 3.4765 12.9333L2.35971 12.927C2.16146 12.927 2 12.7665 2 12.5673V11.4192C2 11.221 2.16057 11.0595 2.35971 11.0595L3.4765 11.0658C3.90797 7.07692 7.07625 3.90878 11.0662 3.47643L11.0725 2.35969C11.0725 2.16146 11.233 2 11.4322 2H12.5804C12.7786 2 12.9401 2.16056 12.9401 2.35969L12.9338 3.47643C16.9229 3.90878 20.0911 7.07692 20.5235 11.0658ZM5.21941 11.9996C5.21941 15.7382 8.26121 18.7798 12 18.7798C15.7388 18.7798 18.7806 15.7382 18.7806 11.9996C18.7806 8.26094 15.7388 5.21927 12 5.21927C8.26121 5.21927 5.21941 8.26094 5.21941 11.9996ZM7.50391 12.0005C7.50391 9.51762 9.51682 7.50479 11.9998 7.50479C14.4827 7.50479 16.4957 9.51762 16.4957 12.0005C16.4957 14.4833 14.4827 16.4961 11.9998 16.4961C9.51682 16.4961 7.50391 14.4833 7.50391 12.0005ZM9.29795 11.9996C9.29795 13.4895 10.5098 14.7013 11.9998 14.7013C13.4897 14.7013 14.7016 13.4895 14.7016 11.9996C14.7016 10.5097 13.4897 9.29786 11.9998 9.29786C10.5098 9.29786 9.29795 10.5097 9.29795 11.9996Z" fill="#0D0E36"/>
</svg>
