<svg width="24" height="24" viewBox="0 0 24 24" fill="none" xmlns="http://www.w3.org/2000/svg">
<path d="M18.5049 12.149L17.1035 6.21511H18.4408C18.8067 6.21331 18.954 6.47625 19.0001 6.5892C19.0462 6.70215 19.1248 6.9922 18.8627 7.24791L18.167 7.95271C18.0242 8.09277 18.0206 8.32228 18.1607 8.46505L18.9685 9.29273C19.1085 9.4355 19.338 9.43911 19.4808 9.29906L20.1269 8.64305C20.8543 7.93283 21.1253 6.85214 20.7521 5.90699C20.3763 4.94919 19.4645 4.33023 18.4381 4.33204L15.4743 4.33475C15.2746 4.33475 15.112 4.49739 15.112 4.69799L15.1138 5.85458C15.1138 5.91422 15.13 5.97024 15.1553 6.01994C15.1463 6.06783 15.1472 6.11752 15.1589 6.16813L15.505 7.63465L9.14286 7.64368L8.47962 6.21782L9.8847 6.21421C10.0853 6.21421 10.247 6.05156 10.247 5.85187V4.69437C10.247 4.49468 10.0853 4.33204 9.8847 4.33204L5.28815 4.34469C5.08756 4.34469 4.92582 4.50733 4.92582 4.70702V5.86362C4.92582 6.06421 5.08846 6.22596 5.28815 6.22596L6.4077 6.22324L7.51369 8.60149V9.16533C7.51369 9.17798 7.5164 9.19063 7.5173 9.20328L6.05801 12.1273C6.01825 12.1264 5.97849 12.1246 5.93783 12.1246C3.7629 12.1237 2 13.8866 2 16.0615C2 18.2364 3.7629 19.9993 5.93783 19.9993C8.11277 19.9993 9.87567 18.2364 9.87567 16.0615C9.87567 16.0227 9.87386 15.9838 9.87296 15.9449L11.9548 15.9368C12.112 15.9368 12.244 15.8365 12.2946 15.6974C12.3117 15.6829 12.328 15.6666 12.3434 15.6486L16.2297 10.6987L16.63 12.3938C15.1635 12.9667 14.1243 14.3926 14.1243 16.0624C14.1243 18.2373 15.8872 20.0002 18.0622 20.0002C20.2371 20.0002 22 18.2373 22 16.0624C22 14.0375 20.4711 12.3704 18.5058 12.1499L18.5049 12.149ZM5.93783 18.1931C4.76317 18.1931 3.80717 17.2371 3.80717 16.0624C3.80717 14.8877 4.76317 13.9318 5.93783 13.9318C7.1125 13.9318 8.06849 14.8877 8.06849 16.0624C8.06849 17.2371 7.1125 18.1931 5.93783 18.1931ZM7.90042 12.6487L8.6739 11.0981L10.0528 14.0628L9.33171 14.0655C8.98563 13.4782 8.49137 12.9893 7.90042 12.6487ZM11.7813 13.3173L10.0175 9.52495L14.7641 9.51773L11.7813 13.3164V13.3173ZM18.0613 18.194C16.8866 18.194 15.9306 17.238 15.9306 16.0633C15.9306 14.8887 16.8866 13.9327 18.0613 13.9327C19.2359 13.9327 20.1919 14.8887 20.1919 16.0633C20.1919 17.238 19.2359 18.194 18.0613 18.194Z" fill="#0D0E36"/>
</svg>
