<svg width="24" height="24" viewBox="0 0 24 24" fill="none" xmlns="http://www.w3.org/2000/svg">
<path fill-rule="evenodd" clip-rule="evenodd" d="M21.6268 4.26611C21.8265 4.26611 21.9892 4.42785 21.9892 4.62844L21.9874 4.62934L22 18.5855C22 18.7852 21.8383 18.9478 21.6376 18.9478H20.481C20.4503 18.9478 20.4214 18.9424 20.3924 18.9352L3.53526 18.9469H3.53165H2.37501C2.1753 18.9469 2.01265 18.7852 2.01265 18.5846L2 4.62844C2 4.42875 2.16265 4.26611 2.36235 4.26611H3.5199C3.55063 4.26611 3.57954 4.27153 3.60846 4.27876L20.4665 4.26611H20.4702H21.6268ZM3.88587 7.93813L20.1105 7.92638L20.1087 6.1482L3.88406 6.15995L3.88587 7.93813ZM20.1114 9.80847L3.88678 9.82022L3.8931 17.0649L20.1177 17.0531L20.1114 9.80847ZM14.8311 13.597L17.945 13.5844C18.1447 13.5844 18.3074 13.7461 18.3074 13.9467V15.1032C18.3074 15.3029 18.1456 15.4656 17.945 15.4656L14.8311 15.4782C14.6314 15.4782 14.4688 15.3165 14.4688 15.1159V13.9594C14.4688 13.7597 14.6305 13.597 14.8311 13.597Z" fill="#0D0E36"/>
</svg>
