<svg width="24" height="24" viewBox="0 0 24 24" fill="none" xmlns="http://www.w3.org/2000/svg">
<path d="M21.6385 11.0938H18.4289C18.3593 11.0938 18.2897 11.0974 18.221 11.1028C17.9554 11.047 17.8406 10.84 17.8008 10.7428C17.7547 10.6303 17.6761 10.3405 17.9391 10.0868L20.4367 7.66505C20.5804 7.52556 20.5831 7.29788 20.4439 7.15479L19.637 6.32955C19.4969 6.18647 19.2683 6.18376 19.1246 6.32235L16.6668 8.70536C16.2918 8.1879 15.8327 7.73524 15.3086 7.36807C15.3141 7.36267 15.3195 7.35817 15.3249 7.35277L17.7566 4.86537C17.8966 4.72228 17.893 4.4937 17.7493 4.35511L16.9207 3.55148C16.777 3.41199 16.5475 3.41559 16.4083 3.55868L13.9767 6.04608C13.721 6.30706 13.4309 6.22966 13.3179 6.18377C13.2203 6.14417 13.0116 6.02988 12.9565 5.7653C12.9619 5.6969 12.9655 5.62761 12.9655 5.55832V2.36087C12.9655 2.16109 12.8029 2 12.6032 2H11.423C11.2224 2 11.0607 2.16199 11.0607 2.36087V5.55742C11.0607 5.62671 11.0643 5.696 11.0697 5.7644C11.0137 6.02898 10.8059 6.14327 10.7083 6.18287C10.5953 6.22876 10.3043 6.30706 10.0495 6.04518L7.61785 3.55778C7.47779 3.41469 7.24917 3.41199 7.1055 3.55058L6.27687 4.35421C6.13319 4.4937 6.13048 4.72138 6.26964 4.86447L8.7013 7.35187C8.70673 7.35727 8.71215 7.36177 8.71757 7.36717C8.18895 7.73794 7.72629 8.1942 7.34948 8.71706L4.87805 6.32145C4.73438 6.18197 4.50486 6.18556 4.3657 6.32865L3.55876 7.15389C3.4187 7.29698 3.42231 7.52556 3.56599 7.66415L6.06361 10.0859C6.32567 10.3405 6.24795 10.6294 6.20187 10.7419C6.16211 10.8391 6.04735 11.047 5.78168 11.1019C5.71301 11.0965 5.64343 11.0929 5.57385 11.0929H2.36235C2.16175 11.0929 2 11.2549 2 11.4537V12.629C2 12.8288 2.16265 12.9899 2.36235 12.9899H5.57204C5.64162 12.9899 5.7112 12.9863 5.77988 12.9809C6.04554 13.0367 6.1603 13.2437 6.20006 13.3409C6.24615 13.4534 6.32476 13.7432 6.06181 13.9969L3.56418 16.4186C3.4205 16.5581 3.41779 16.7858 3.55695 16.9289L4.36389 17.7541C4.50395 17.8972 4.73257 17.8999 4.87625 17.7613L7.34767 15.3657C7.71273 15.8724 8.15822 16.3179 8.66697 16.6814L6.26783 19.1355C6.12777 19.2786 6.13139 19.5072 6.27506 19.6458L7.10369 20.4494C7.24737 20.5889 7.47689 20.5853 7.61605 20.4422L10.0477 17.9548C10.3034 17.6938 10.5935 17.7712 10.7065 17.8171C10.804 17.8567 11.0128 17.971 11.0679 18.2356C11.0625 18.304 11.0589 18.3733 11.0589 18.4426V21.6391C11.0589 21.8389 11.2215 22 11.4212 22H12.6014C12.802 22 12.9637 21.838 12.9637 21.6391V18.4426C12.9637 18.3733 12.9601 18.304 12.9547 18.2356C13.0107 17.971 13.2185 17.8567 13.3161 17.8171C13.4291 17.7712 13.7201 17.6929 13.9749 17.9548L16.4065 20.4422C16.5466 20.5853 16.7752 20.588 16.9189 20.4494L17.7475 19.6458C17.8912 19.5063 17.8939 19.2786 17.7548 19.1355L15.3556 16.6814C15.8598 16.3206 16.3026 15.8805 16.6659 15.3783L19.1237 17.7613C19.2674 17.9008 19.4969 17.8972 19.6361 17.7541L20.443 16.9289C20.5831 16.7858 20.5795 16.5572 20.4358 16.4186L17.9382 13.9969C17.6761 13.7423 17.7538 13.4534 17.7999 13.3409C17.8397 13.2437 17.9545 13.0358 18.2201 12.9809C18.2888 12.9863 18.3584 12.9899 18.428 12.9899H21.6376C21.8382 12.9899 22 12.8279 22 12.629V11.4537C22 11.254 21.8373 11.0929 21.6376 11.0929L21.6385 11.0938ZM12.0113 15.9552C9.84439 15.9552 8.08141 14.1994 8.08141 12.0414C8.08141 9.88337 9.84439 8.12761 12.0113 8.12761C14.1782 8.12761 15.9412 9.88337 15.9412 12.0414C15.9412 14.1994 14.1782 15.9552 12.0113 15.9552Z" fill="#0D0E36"/>
</svg>
