<svg width="24" height="24" viewBox="0 0 24 24" fill="none" xmlns="http://www.w3.org/2000/svg">
<path d="M21.9691 15.3535C21.9934 15.2083 21.9826 15.0542 21.9303 14.9054L19.8398 8.96115V6.69485C19.8398 5.63923 18.9807 4.77923 17.9242 4.77923H15.2937V3.91562C15.2937 2.86 14.4346 2 13.3781 2H6.31414C5.25852 2 4.39851 2.8591 4.39851 3.91562V8.43739L2.37291 16.6462C2.3684 16.6633 2.3666 16.6804 2.36299 16.6976C2.16467 17.1582 2.05469 17.6648 2.05469 18.1967C2.05469 20.2935 3.76117 22 5.858 22H20.7647C21.4462 22 22.0007 21.4456 22.0007 20.7641V15.6293C22.0007 15.5347 21.9889 15.4427 21.9682 15.3535H21.9691ZM5.77506 10.3837C5.94634 10.4341 6.12664 10.4621 6.31324 10.4621H8.94373V11.3257C8.94373 12.3813 9.80284 13.2413 10.8594 13.2413H17.9242C18.4371 13.2413 18.9023 13.0376 19.2467 12.7086L19.8389 14.3934H5.858C5.47127 14.3934 5.09715 14.452 4.74468 14.5602L5.77506 10.3846V10.3837ZM18.036 6.69395V11.3257C18.036 11.3879 17.9855 11.4384 17.9233 11.4384H10.8585C10.7963 11.4384 10.7458 11.3879 10.7458 11.3257V6.69395C10.7458 6.63175 10.7963 6.58127 10.8585 6.58127H17.9233C17.9855 6.58127 18.036 6.63175 18.036 6.69395ZM6.20146 3.91562C6.20146 3.85342 6.25194 3.80294 6.31414 3.80294H13.379C13.4412 3.80294 13.4917 3.85342 13.4917 3.91562V4.77923H10.8612C9.80554 4.77923 8.94554 5.63833 8.94554 6.69485V8.65915H6.31504C6.25284 8.65915 6.20236 8.60867 6.20236 8.54647V3.91562H6.20146ZM5.858 20.1971C4.7546 20.1971 3.85763 19.3001 3.85763 18.1967C3.85763 17.0933 4.7546 16.1963 5.858 16.1963H20.1977V17.252L6.62335 17.2637C6.44305 17.2637 6.29701 17.4259 6.29701 17.6252V18.779C6.29701 18.9792 6.44305 19.1405 6.62335 19.1405L20.1977 19.1288V20.1962H5.858V20.1971Z" fill="#0D0E36"/>
</svg>
