<svg width="24" height="24" viewBox="0 0 24 24" fill="none" xmlns="http://www.w3.org/2000/svg">
<path d="M20.8923 18.717C20.8184 18.6187 20.6795 18.5997 20.5793 18.6719C19.1849 19.6703 17.5434 20.1971 15.8161 20.1971C12.3183 20.1971 9.32567 17.9946 8.15132 14.9037L14.3865 14.8991C14.5868 14.8991 14.7482 14.7368 14.7482 14.5375V13.383C14.7482 13.1837 14.5859 13.0213 14.3865 13.0213L7.68321 13.0267C7.64082 12.6903 7.61917 12.3485 7.61917 12.0013C7.61917 11.654 7.64082 11.3104 7.68321 10.9731L14.3856 10.9677C14.5859 10.9677 14.7473 10.8053 14.7473 10.606V9.45152C14.7473 9.25219 14.585 9.08984 14.3856 9.08984L8.15132 9.09435C9.32657 6.00526 12.3183 3.80456 15.8152 3.80456C17.556 3.80456 19.2093 4.3394 20.61 5.35227C20.7101 5.42442 20.8481 5.40638 20.923 5.30807L21.7456 4.23208C21.8213 4.13286 21.8024 3.98856 21.7014 3.9146C20.1275 2.76464 18.2893 2.11255 16.3447 2.01334C11.6707 1.77253 7.55603 4.81742 6.2482 9.09616L2.36259 9.10157C2.16235 9.10157 2.0009 9.26392 2.0009 9.46324V10.6177C2.0009 10.8179 2.16325 10.9794 2.36259 10.9794L5.86848 10.9749C5.84413 11.213 5.82789 11.4529 5.82068 11.6955C5.80715 12.1465 5.82428 12.592 5.86848 13.0286L2.36168 13.0331C2.16145 13.0331 2 13.1954 2 13.3947V14.5492C2 14.7485 2.16235 14.9109 2.36168 14.9109L6.2464 14.9055C7.4947 19.0065 11.3118 22 15.8161 22C17.9375 22 19.9543 21.3488 21.6635 20.1132C21.7654 20.0401 21.7844 19.8967 21.7095 19.7966L20.8923 18.717Z" fill="#0D0E36"/>
</svg>
