<svg width="24" height="24" viewBox="0 0 24 24" fill="none" xmlns="http://www.w3.org/2000/svg">
<path d="M21.9892 4.36232C21.9892 4.16173 21.8265 4 21.6268 4H20.4702C20.4702 4 20.4674 4 20.4665 4L3.60846 4.01265C3.57954 4.00542 3.55063 4 3.5199 4H2.36235C2.16265 4 2 4.16264 2 4.36232L2.01265 19.3124C2.01265 19.513 2.1753 19.6747 2.37501 19.6747H3.53165C3.53165 19.6747 3.53436 19.6747 3.53526 19.6747L20.3924 19.663C20.4214 19.6702 20.4503 19.6756 20.481 19.6756H21.6376C21.8383 19.6756 22 19.513 22 19.3133L21.9874 4.36323L21.9892 4.36232ZM3.88316 5.89383H5.58108L9.68445 14.1766C10.0929 15.1073 11.0092 15.7416 12.0258 15.7253C13.0541 15.7091 13.955 15.073 14.3146 14.1125L18.3322 5.88389H20.1087L20.1186 17.7809L3.894 17.7926L3.88406 5.89383H3.88316ZM7.6775 5.89112L16.2457 5.8848L12.5517 13.452C12.4233 13.7953 12.1261 13.8396 12.0041 13.8432C11.8821 13.8468 11.583 13.8179 11.4357 13.4827L7.6775 5.89112Z" fill="#0D0E36"/>
</svg>
