<svg width="24" height="24" viewBox="0 0 24 24" fill="none" xmlns="http://www.w3.org/2000/svg">
<path d="M20.5452 12.8428C22.1627 10.468 22.058 7.82693 21.9416 6.81508C21.9118 6.55964 21.7078 6.35926 21.4514 6.33579C21.2222 6.31413 20.9081 6.29427 20.5344 6.29427C19.3158 6.29427 17.4519 6.50639 15.7234 7.55704C15.1619 4.67587 13.1238 2.76321 12.334 2.11602C12.149 1.96438 11.8836 1.96077 11.6958 2.1088C10.8943 2.73793 8.83902 4.60366 8.28932 7.56517C6.55717 6.50729 4.68692 6.29427 3.46567 6.29427C3.11996 6.29427 2.82661 6.31142 2.60276 6.33038C2.31391 6.35565 2.08284 6.5813 2.05215 6.87014C1.93842 7.9226 1.86621 10.524 3.46747 12.8618C2.55582 13.7662 2.0332 14.8349 2.0332 15.9903C2.0332 19.3435 6.41817 21.9701 12.0154 21.9701C14.4534 21.9701 16.7921 21.4538 18.6009 20.516L18.7499 20.4393C19.0216 20.2985 19.1669 19.9934 19.1037 19.6928L18.7409 17.9661L21.5814 16.7647C21.8342 16.6582 21.9975 16.41 21.9975 16.1365V15.9903C21.9975 14.8268 21.4677 13.7517 20.5443 12.8428H20.5452ZM20.13 8.89563C19.9341 10.4229 19.3239 11.7082 18.3157 12.7155C16.8751 14.1561 15.0978 14.5506 13.7529 14.6047C14.6826 13.4719 15.6728 11.8021 15.8434 9.69626C17.2154 8.49306 18.8934 8.15277 20.1914 8.10493C20.1842 8.34774 20.1661 8.61311 20.13 8.89563ZM11.4287 4.93041C11.6209 4.68218 11.8141 4.46194 11.9964 4.27149C12.1851 4.47278 12.3863 4.70565 12.5849 4.96741C13.5661 6.25636 14.0634 7.63286 14.0634 9.06081C14.0634 10.4888 13.5643 11.8761 12.5795 13.1777C12.3818 13.4385 12.1833 13.6714 11.9955 13.8736C11.8357 13.7048 11.6688 13.5144 11.5009 13.3022C10.4755 12.0043 9.95647 10.5772 9.95647 9.06081C9.95647 7.5444 10.4511 6.19408 11.4278 4.93131L11.4287 4.93041ZM8.17829 9.71612C8.34708 11.8454 9.3129 13.4927 10.2345 14.6047C8.89047 14.5479 7.11951 14.1516 5.68433 12.7155C4.677 11.7082 4.06682 10.4229 3.87005 8.89563C3.83394 8.61401 3.81589 8.34774 3.80867 8.10493C5.11297 8.15368 6.80178 8.49667 8.17829 9.71612ZM16.784 17.4326L17.1558 19.2027C15.6936 19.8264 13.8964 20.1649 12.0154 20.1649C9.74164 20.1649 7.61776 19.6775 6.03545 18.7929C4.61832 18.0004 3.83845 17.0048 3.83845 15.9903C3.83845 15.3819 4.12007 14.7798 4.65082 14.2256C6.66278 16.0769 9.08453 16.4181 10.5928 16.4181C11.342 16.4181 11.8646 16.3342 12 16.3098C12.1354 16.3342 12.658 16.4181 13.4072 16.4181C14.9191 16.4181 17.3508 16.0751 19.3664 14.2103C19.7401 14.5975 19.9937 15.0073 20.1128 15.4261L17.1865 16.6636C16.886 16.7909 16.7172 17.1131 16.7849 17.4326H16.784Z" fill="#0D0E36"/>
</svg>
