<svg width="24" height="24" viewBox="0 0 24 24" fill="none" xmlns="http://www.w3.org/2000/svg">
<path fill-rule="evenodd" clip-rule="evenodd" d="M18.3755 2.36235C18.3755 2.16175 18.2129 2 18.0132 2H5.36236C5.16265 2 5 2.16265 5 2.36235L5.01265 21.6376C5.01265 21.8383 5.1753 22 5.37501 22H6.53165H6.53346L16.7797 21.9883C16.8077 21.9955 16.8376 22 16.8683 22H18.0249C18.2246 22 18.3873 21.8373 18.3873 21.6376L18.3746 2.36235H18.3755ZM16.4978 9.0239L6.88678 9.03474L6.88317 3.8931L16.4951 3.88226L16.4987 9.0239H16.4978ZM6.88768 10.917L16.4987 10.9062L16.505 20.1069L6.89311 20.1177L6.88678 10.917H6.88768ZM13.2744 7.34508C13.2744 7.54569 13.437 7.70744 13.6367 7.70744H14.7934C14.9931 7.70744 15.1557 7.54479 15.1557 7.34508L15.1431 5.50982C15.1431 5.30921 14.9804 5.14746 14.7807 5.14746H13.6241C13.4244 5.14746 13.2617 5.31011 13.2617 5.50982L13.2744 7.34508ZM14.7807 12.2334C14.9804 12.2334 15.1431 12.3951 15.1431 12.5958L15.1557 14.431C15.1557 14.6307 14.9931 14.7934 14.7934 14.7934H13.6367C13.437 14.7934 13.2744 14.6316 13.2744 14.431L13.2617 12.5958C13.2617 12.3961 13.4244 12.2334 13.6241 12.2334H14.7807Z" fill="#0D0E36"/>
</svg>
