<svg width="24" height="24" viewBox="0 0 24 24" fill="none" xmlns="http://www.w3.org/2000/svg">
<path fill-rule="evenodd" clip-rule="evenodd" d="M6.61515 11.118H18.7L18.6984 11.1188C19.6132 11.1188 20.4671 10.5935 20.8216 9.75019C21.1802 8.89715 20.9826 7.92457 20.3207 7.28052L18.073 5.09223C17.9437 4.96699 17.738 4.96943 17.6119 5.09873L16.8858 5.84443C16.7605 5.97372 16.763 6.17946 16.8923 6.30551L19.1399 8.49381C19.3766 8.72313 19.3058 8.98497 19.2644 9.08662C19.2229 9.18827 19.0911 9.42491 18.7618 9.42491H6.61515C6.43544 9.42491 6.28906 9.57047 6.28906 9.751V10.7919C6.28906 10.9716 6.43462 11.118 6.61515 11.118ZM17.3823 12.5936H5.29824L5.29986 12.5928C4.38502 12.5928 3.53117 13.1181 3.17662 13.9614C2.818 14.8144 3.01561 15.787 3.67755 16.431L5.92521 18.6193C6.0545 18.7446 6.26024 18.7421 6.38629 18.6128L7.11247 17.8671C7.2377 17.7378 7.23526 17.5321 7.10596 17.4061L4.8583 15.2178C4.62166 14.9884 4.69241 14.7266 4.73388 14.6249C4.77535 14.5233 4.90709 14.2867 5.23643 14.2867H17.3823C17.562 14.2867 17.7084 14.1411 17.7084 13.9606V12.9197C17.7084 12.74 17.5628 12.5936 17.3823 12.5936Z" fill="#0D0E36"/>
</svg>
