<svg width="24" height="24" viewBox="0 0 24 24" fill="none" xmlns="http://www.w3.org/2000/svg">
<path fill-rule="evenodd" clip-rule="evenodd" d="M10.695 16.2703H8.15723C5.8622 16.2703 3.9372 14.4545 3.89569 12.1595C3.85327 9.81571 5.74759 7.89432 8.08232 7.89432H10.686C10.8927 7.89432 11.0596 7.72646 11.0596 7.51979V6.37363C11.0596 6.16696 10.8918 6 10.686 6H8.17798C4.83247 6 2.04198 8.66143 2.00047 12.006C1.95895 15.3507 4.698 18.1655 8.08322 18.1655H10.6959C10.9026 18.1655 11.0696 17.9977 11.0696 17.791V16.643C11.0686 16.4364 10.9008 16.2694 10.695 16.2694V16.2703ZM8.95565 11.1494C8.75529 11.1494 8.59375 11.3118 8.59375 11.5113V12.6664C8.59375 12.8668 8.7562 13.0283 8.95565 13.0283L15.0556 13.0157C15.2559 13.0157 15.4174 12.8532 15.4174 12.6538V11.4986C15.4174 11.2983 15.255 11.1367 15.0556 11.1367L8.95565 11.1494ZM15.842 7.89522H13.3042V7.89612C13.0985 7.89612 12.9306 7.72916 12.9297 7.52249V6.37453C12.9297 6.16786 13.0966 6 13.3033 6H15.916C19.3012 6 22.0412 8.81666 21.9997 12.1613C21.9582 15.5059 19.1677 18.1673 15.8222 18.1673H13.3141C13.1084 18.1673 12.9405 18.0004 12.9396 17.7937V16.6457C12.9396 16.4391 13.1066 16.2712 13.3132 16.2712H15.9169C18.2516 16.2712 20.146 14.3498 20.1036 12.006C20.062 9.71102 18.137 7.89522 15.842 7.89522Z" fill="#0D0E36"/>
</svg>
