<svg width="24" height="24" viewBox="0 0 24 24" fill="none" xmlns="http://www.w3.org/2000/svg">
<path fill-rule="evenodd" clip-rule="evenodd" d="M12.5273 8.56419V9.43364C15.8068 9.59604 19.002 10.575 19.002 12.5139C19.002 14.6467 15.1357 15.6185 11.5439 15.6185C7.95222 15.6185 4.08594 14.6467 4.08594 12.5139C4.08594 10.5561 7.34478 9.5772 10.6584 9.42915L10.6566 8.04736C10.6512 8.00789 10.6485 7.96751 10.6485 7.92623V2.94194C10.6485 2.63148 10.801 2.34167 11.0567 2.1658C11.3125 1.98994 11.6382 1.95136 11.928 2.06262L18.2518 4.48702C18.6134 4.6261 18.853 4.97155 18.8566 5.35827C18.8602 5.74499 18.6269 6.09492 18.268 6.24028L12.5273 8.56419ZM15.3447 5.39146L12.5327 4.31295V6.52919L15.3447 5.39146ZM5.89391 12.5148C6.14156 12.9195 8.04105 13.8248 11.5439 13.8248H11.5448C15.0468 13.8248 16.9463 12.9186 17.1949 12.5148C16.9706 12.1505 15.4039 11.378 12.53 11.23L12.5318 12.4027C12.5318 12.5821 12.3703 12.7275 12.172 12.7275H11.0235C10.8252 12.7275 10.6637 12.5821 10.6637 12.4027L10.6619 11.2255C7.72252 11.3601 6.12092 12.1461 5.89391 12.5148ZM8.75 19.1623C8.75 17.5957 10.0205 16.3252 11.5871 16.3252C13.1537 16.3252 14.4243 17.5957 14.4243 19.1623C14.4243 20.729 13.1537 21.9995 11.5871 21.9995C10.0205 21.9995 8.75 20.729 8.75 19.1623ZM10.5445 19.1623C10.5445 19.7375 11.012 20.205 11.5871 20.205C12.1623 20.205 12.6297 19.7375 12.6297 19.1623C12.6297 18.5872 12.1623 18.1197 11.5871 18.1197C11.012 18.1197 10.5445 18.5872 10.5445 19.1623Z" fill="#0D0E36"/>
</svg>
