<svg width="24" height="24" viewBox="0 0 24 24" fill="none" xmlns="http://www.w3.org/2000/svg">
<path fill-rule="evenodd" clip-rule="evenodd" d="M21.7232 15.2976L18.4261 8.65379C18.4126 8.62036 18.3349 8.43513 18.1885 8.17491L18.1641 8.12612C18.1524 8.10263 18.1388 8.08094 18.1225 8.06197C17.6581 7.27769 16.6498 6.00098 15.0098 6.00098H8.67055C6.98995 6.00098 5.95539 7.62013 5.59578 8.6059L2.27615 15.2976C1.82437 16.2083 1.92557 17.317 2.58968 18.0868C3.26192 18.8648 4.3272 19.1485 5.2949 18.8078L10.0132 16.361L13.9644 16.3502L18.7035 18.8087C19.6712 19.1494 20.7365 18.8666 21.4087 18.0877C22.0728 17.3179 22.174 16.2092 21.7223 15.2985L21.7232 15.2976ZM19.9802 16.8634C19.8989 16.9547 19.6739 17.1544 19.3288 17.0324L14.4867 14.5214C14.4836 14.5204 14.4805 14.5197 14.4773 14.5189L14.4773 14.5189L14.4695 14.5169C14.4171 14.4862 14.3566 14.4672 14.2906 14.4672L9.68342 14.4799C9.6274 14.4799 9.57409 14.4943 9.52711 14.5178C9.52474 14.5188 9.52237 14.5192 9.51988 14.5197L9.51986 14.5197C9.5176 14.5201 9.51523 14.5206 9.51265 14.5214L4.67055 17.0324C4.32539 17.1544 4.0995 16.9547 4.01909 16.8634C3.93867 16.7722 3.7679 16.5237 3.93054 16.1957L7.36582 9.27272L7.37215 9.27453L7.37592 9.26422L7.37592 9.26421C7.38136 9.24925 7.38762 9.23205 7.39564 9.21308L7.52033 8.9619C7.52846 8.94473 7.53479 8.92756 7.54021 8.90949C7.767 8.48573 8.18353 7.89662 8.67145 7.89662H15.0107C16.0174 7.89662 16.6508 9.32619 16.6684 9.3659L16.6687 9.36669L16.6787 9.36307L20.0688 16.1948C20.2314 16.5228 20.0616 16.7712 19.9802 16.8625V16.8634ZM15.8417 13.7083C16.4899 13.7083 17.0154 13.1828 17.0154 12.5345C17.0154 11.8863 16.4899 11.3608 15.8417 11.3608C15.1935 11.3608 14.668 11.8863 14.668 12.5345C14.668 13.1828 15.1935 13.7083 15.8417 13.7083ZM14.7849 10.3036C14.7849 10.9518 14.2594 11.4773 13.6112 11.4773C12.963 11.4773 12.4375 10.9518 12.4375 10.3036C12.4375 9.65537 12.963 9.12988 13.6112 9.12988C14.2594 9.12988 14.7849 9.65537 14.7849 10.3036Z" fill="#0D0E36"/>
</svg>
