<svg width="24" height="24" viewBox="0 0 24 24" fill="none" xmlns="http://www.w3.org/2000/svg">
<path d="M21.7992 7.05166C22.0197 6.78253 22.0656 6.41077 21.9171 6.09573C21.7686 5.78068 21.4517 5.58085 21.1034 5.58085H18.691L20.5453 3.26391C20.6641 3.10369 20.6308 2.87776 20.4715 2.75894L19.547 2.07124C19.3868 1.95242 19.1609 1.98573 19.042 2.14505L16.2921 5.58175H10.8219C10.4304 3.56726 8.65438 2.04154 6.52915 2.04154C4.11766 2.04154 2.15625 4.00292 2.15625 6.41437C2.15625 8.82582 4.11766 10.7872 6.52915 10.7872C7.23036 10.7872 7.91357 10.618 8.52566 10.3038L12.9724 15.7262V20.118L10.0802 20.1225C9.88128 20.1225 9.71925 20.2845 9.71925 20.4834V21.6356C9.71925 21.8354 9.88128 21.9965 10.0802 21.9965L17.5793 21.9839C17.7791 21.9839 17.9403 21.8219 17.9403 21.623V20.4708C17.9403 20.271 17.7782 20.1099 17.5793 20.1099L14.7727 20.1144V15.6209L21.8001 7.05076L21.7992 7.05166ZM12.8148 10.5235L13.7393 11.2112C13.8995 11.33 14.1255 11.2967 14.2443 11.1374L17.2508 7.38111H19.2014L13.8293 13.9332L8.45725 7.38111H14.851L12.741 10.0185C12.6222 10.1787 12.6555 10.4046 12.8148 10.5235ZM6.52915 8.98694C5.11052 8.98694 3.95654 7.83298 3.95654 6.41437C3.95654 4.99577 5.11052 3.8418 6.52915 3.8418C7.65613 3.8418 8.61478 4.57 8.96223 5.57995H6.55525C6.20689 5.57995 5.89094 5.78068 5.74152 6.09482C5.593 6.40897 5.6389 6.78162 5.85944 7.05076L7.33837 8.85463C7.08003 8.94014 6.80729 8.98694 6.52915 8.98694Z" fill="#0D0E36"/>
</svg>
