<svg width="24" height="24" viewBox="0 0 24 24" fill="none" xmlns="http://www.w3.org/2000/svg">
<path d="M21.9874 4.3063C21.9874 4.13734 21.8247 4 21.625 4H20.4685C20.2688 4 20.1062 4.13734 20.1062 4.3063V5.36345L3.88299 5.3761V4.3063C3.88299 4.13734 3.71945 4 3.51977 4H2.36232C2.16264 4 2 4.13734 2 4.3063L2.01265 20.6135C2.01265 20.7825 2.17529 20.9198 2.37497 20.9198H3.53151C3.7312 20.9198 3.89383 20.7825 3.89383 20.6135V19.3937L20.1098 19.3811C20.1125 19.3811 20.1143 19.3811 20.117 19.3811V20.6144C20.1179 20.7834 20.2806 20.9207 20.4802 20.9207H21.6368C21.8365 20.9207 21.9991 20.7834 21.9991 20.6144L21.9864 4.30721L21.9874 4.3063ZM11.1728 7.25276L12.9157 7.25096L12.9266 17.5044H11.1836L11.1728 7.25186V7.25276ZM9.30246 17.508L7.53874 17.5098L7.5279 7.25638L9.29072 7.25457L9.30156 17.508H9.30246ZM14.7978 7.25005H16.5119L16.5227 17.5026H14.8087L14.7978 7.25005ZM3.8848 7.25818L5.64671 7.25638L5.65756 17.5098L3.89293 17.5116L3.8848 7.25818ZM20.1107 17.499H18.4039L18.393 7.24644H20.108L20.1161 17.499C20.1143 17.499 20.1125 17.499 20.1107 17.499Z" fill="#0D0E36"/>
</svg>
