<svg width="24" height="24" viewBox="0 0 24 24" fill="none" xmlns="http://www.w3.org/2000/svg">
<path fill-rule="evenodd" clip-rule="evenodd" d="M21.9991 12.7525C21.9971 12.0999 21.737 11.4617 21.2477 10.986L18.7514 8.55566C18.7243 8.52946 18.6936 8.5096 18.6611 8.49334L16.8702 6.76925C16.1377 6.0648 15.0504 5.82727 14.1174 6.22917C13.1736 6.63558 12.583 7.56582 12.6164 8.59088V13.3811H3.89388V8.57914H3.88124V5.36216C3.88124 5.16256 3.71867 5 3.51818 5H2.36216C2.16166 5 2 5.16256 2 5.36216V14.9119C2 14.9436 2.00542 14.9734 2.01264 15.0023V17.5943C2.01264 17.7948 2.17521 17.9564 2.3748 17.9564H3.53082C3.73132 17.9564 3.89298 17.7939 3.89298 17.5943V15.2741H12.4601V15.2615H20.1197V17.6548C20.1197 17.8553 20.2822 18.0169 20.4818 18.0169H21.6378C21.8383 18.0169 22 17.8544 22 17.6548V12.7525H21.9991ZM15.5164 8.07609C15.2527 7.82231 14.9646 7.90991 14.8535 7.95958C14.7424 8.00926 14.4841 8.16369 14.4949 8.52947V13.3676H19.5155C19.8812 13.3676 20.0275 13.1048 20.0736 12.9919C20.1197 12.879 20.1973 12.5891 19.9354 12.3335L19.3312 11.7446C19.3284 11.7424 19.3255 11.7404 19.3227 11.7385C19.3175 11.7348 19.3124 11.7313 19.3077 11.7266L15.5164 8.07609ZM11.2641 9.22761C11.2641 10.9508 9.86697 12.348 8.14378 12.348C6.42059 12.348 5.02344 10.9508 5.02344 9.22761C5.02344 7.50442 6.42059 6.10727 8.14378 6.10727C9.86697 6.10727 11.2641 7.50442 11.2641 9.22761ZM9.45785 9.22852C9.45785 8.5042 8.8681 7.91445 8.14378 7.91445C7.41946 7.91445 6.82971 8.5042 6.82971 9.22852C6.82971 9.95283 7.41946 10.5426 8.14378 10.5426C8.8681 10.5426 9.45785 9.95283 9.45785 9.22852Z" fill="#0D0E36"/>
</svg>
