<svg width="24" height="24" viewBox="0 0 24 24" fill="none" xmlns="http://www.w3.org/2000/svg">
<path fill-rule="evenodd" clip-rule="evenodd" d="M21.5732 10.9765C21.89 11.1862 22.0489 11.562 21.9862 11.9306L21.9844 11.9324L21.9953 20.4468C21.9962 20.4522 21.9971 20.4568 21.9971 20.4622V21.6242V21.6388C21.9971 21.8385 21.8346 22.001 21.6331 22.001H20.4711C20.4402 22.001 20.4112 21.9964 20.383 21.9892L3.54675 22.0001H3.53948H2.37749C2.17686 22.0001 2.01345 21.8376 2.01345 21.6379L2.00074 11.8117C1.99802 11.7363 2.00256 11.6601 2.01799 11.5847C3.2163 5.59318 8.1893 2.96416 8.39991 2.85522C8.70675 2.69726 9.07532 2.71633 9.3631 2.90697L21.5732 10.9765ZM6.07954 12.725H3.89262H3.89172L3.90079 20.1082L20.1052 20.0973L20.0962 12.725H10.92C10.9245 12.7295 10.93 12.734 10.9345 12.7386C12.279 14.083 12.279 16.2636 10.9345 17.6081C10.2618 18.2808 9.38125 18.6167 8.49977 18.6167C7.61828 18.6167 6.7377 18.2808 6.06502 17.6081C4.72055 16.2636 4.72055 14.083 6.06502 12.7386C6.06729 12.7363 6.06979 12.734 6.07228 12.7318C6.07478 12.7295 6.07727 12.7272 6.07954 12.725ZM8.49977 16.801C8.93461 16.801 9.34312 16.6322 9.65087 16.3244C10.2854 15.689 10.2854 14.6568 9.65087 14.0222C9.34312 13.7145 8.93461 13.5456 8.49977 13.5456C8.06493 13.5456 7.65641 13.7145 7.34866 14.0222C6.7141 14.6577 6.7141 15.6899 7.34866 16.3244C7.65641 16.6322 8.06493 16.801 8.49977 16.801ZM17.8766 10.8185L8.81478 4.82881H8.81387C7.77624 5.51057 5.2616 7.44875 4.18221 10.8185H17.8766ZM16.2424 13.9034C16.9187 13.9034 17.5941 14.1613 18.1098 14.6769C19.141 15.7082 19.141 17.3804 18.1098 18.4116C17.5941 18.9273 16.9187 19.1851 16.2424 19.1851C15.5661 19.1851 14.8907 18.9273 14.375 18.4116C13.3437 17.3804 13.3437 15.7082 14.375 14.6769C14.8907 14.1613 15.5661 13.9034 16.2424 13.9034ZM16.2424 17.3686C16.3704 17.3686 16.6155 17.3377 16.8261 17.1271C17.1475 16.8057 17.1475 16.2819 16.8261 15.9605C16.6155 15.7508 16.3704 15.7191 16.2424 15.7191C16.1144 15.7191 15.8693 15.7499 15.6587 15.9605C15.3373 16.2819 15.3373 16.8057 15.6587 17.1271C15.8693 17.3368 16.1144 17.3686 16.2424 17.3686Z" fill="#0D0E36"/>
</svg>
