<svg width="24" height="24" viewBox="0 0 24 24" fill="none" xmlns="http://www.w3.org/2000/svg">
<path d="M21.7695 10.4006C21.3643 8.87119 20.5529 7.83757 20.5191 7.79458L20.5172 7.79641C20.4166 7.69396 20.2611 7.65555 20.1193 7.71134L14.9494 9.55264C14.7144 9.64594 14.4976 9.77034 14.3018 9.92127C14.203 9.81333 14.0969 9.71272 13.9844 9.61942C14.0832 9.47581 14.1692 9.32122 14.2378 9.15566L16.2858 3.90618C16.348 3.75708 16.3032 3.59152 16.1879 3.48998L16.1934 3.48267C14.0247 1.75296 11.8458 1.84718 10.4006 2.23044C8.87123 2.63565 7.83761 3.44699 7.79462 3.48084L7.79645 3.48267C7.694 3.58328 7.65558 3.73878 7.71138 3.88056L9.55177 9.05047C9.64872 9.29561 9.78136 9.52246 9.94143 9.72461C9.83624 9.82065 9.73745 9.92401 9.64689 10.0347C9.49597 9.92767 9.33132 9.8362 9.15478 9.76211L3.9053 7.71409C3.7562 7.65189 3.59064 7.69671 3.48911 7.81196L3.48179 7.80647C1.753 9.97524 1.84721 12.1541 2.23048 13.5993C2.63569 15.1287 3.44703 16.1623 3.48088 16.2053L3.4827 16.2035C3.58332 16.3059 3.73882 16.3443 3.8806 16.2885L9.05051 14.4472C9.29656 14.3493 9.52341 14.2167 9.72556 14.0566C9.82069 14.1627 9.92313 14.2625 10.032 14.3548C9.92588 14.5058 9.83441 14.6686 9.76123 14.8442L7.71321 20.0937C7.65101 20.2428 7.69583 20.4083 7.81108 20.5099L7.8056 20.5172C9.22522 21.6487 10.6485 21.999 11.8687 21.999C12.5127 21.999 13.0999 21.9011 13.5993 21.7685C15.1287 21.3633 16.1623 20.552 16.2053 20.5181L16.2035 20.5163C16.3059 20.4157 16.3444 20.2602 16.2886 20.1184L14.4482 14.9485C14.3549 14.7134 14.2296 14.4948 14.0786 14.299C14.1875 14.2012 14.2899 14.096 14.3841 13.9844C14.5268 14.0823 14.6805 14.1682 14.8452 14.2368L20.0946 16.2849C20.2437 16.3471 20.4093 16.3022 20.5108 16.187L20.5182 16.1925C22.246 14.0228 22.1527 11.8449 21.7695 10.3987V10.4006ZM13.2792 12.0004C13.2792 12.6928 12.7157 13.2554 12.0242 13.2554C11.3327 13.2554 10.7692 12.6919 10.7692 12.0004C10.7692 11.3089 11.3327 10.7454 12.0242 10.7454C12.7157 10.7454 13.2792 11.3089 13.2792 12.0004ZM14.0896 4.29675L12.4797 8.4239C12.337 8.766 12.0343 8.80076 11.9108 8.79984C11.7873 8.79893 11.4854 8.75959 11.3482 8.41475L9.89752 4.34706C10.8607 3.89977 12.4267 3.47992 14.0887 4.29767L14.0896 4.29675ZM8.41296 12.6517L4.34527 14.1024C3.89798 13.1392 3.47813 11.5732 4.29588 9.91121L8.42302 11.5211C8.76512 11.6638 8.79988 11.9656 8.79896 12.09C8.79805 12.2135 8.75872 12.5154 8.41387 12.6526L8.41296 12.6517ZM13.131 20.0013C11.9922 20.3032 10.9128 20.2035 9.90941 19.7059L11.5202 15.5769C11.6629 15.2348 11.9657 15.2 12.0892 15.2009C12.2126 15.2019 12.5145 15.2412 12.6517 15.586L14.1006 19.6491C13.8225 19.7781 13.496 19.9043 13.1319 20.0013H13.131ZM15.201 11.9107C15.2019 11.7873 15.2412 11.4854 15.5861 11.3482L19.6538 9.89749C20.101 10.8607 20.5209 12.4266 19.7031 14.0887L15.576 12.4788C15.2339 12.3361 15.1991 12.0333 15.2001 11.9098L15.201 11.9107Z" fill="#0D0E36"/>
</svg>
