<svg width="24" height="24" viewBox="0 0 24 24" fill="none" xmlns="http://www.w3.org/2000/svg">
<path d="M18.6943 5.62313L8.54195 5.63301L8.0777 2.25478C8.05346 2.08865 7.87476 1.9764 7.67721 2.00424L6.53949 2.16857C6.34283 2.19731 6.20275 2.35535 6.227 2.52148L6.65443 5.63391H5.93336C5.76544 5.63391 5.62895 5.79555 5.62895 5.9949V7.14432C5.62895 7.34368 5.76544 7.50442 5.93336 7.50442H6.91035L7.459 11.5023C7.46978 11.575 7.51109 11.6361 7.56945 11.681L5.63524 21.364C5.59842 21.5283 5.72593 21.6962 5.91989 21.7402L7.04145 21.9908C7.23541 22.0339 7.42308 21.936 7.4599 21.7717L8.59044 16.1161L15.3656 16.1054L16.4979 21.7717C16.5347 21.936 16.7215 22.0339 16.9155 21.9908L18.0379 21.7402C18.2319 21.6971 18.3594 21.5283 18.3226 21.364L16.4494 11.989H17.0978C17.2657 11.989 17.4022 11.8264 17.4022 11.628V10.4786C17.4022 10.2792 17.2657 10.1185 17.0978 10.1185H16.5374L16.9307 7.49544L18.6952 7.49364C18.8632 7.49364 18.9996 7.332 18.9996 7.13355V5.98412C18.9996 5.78477 18.8632 5.62403 18.6952 5.62403L18.6943 5.62313ZM14.992 14.2366L8.96489 14.2456L9.41387 11.9988L14.5439 11.9917L14.9929 14.2366H14.992ZM14.6454 10.1212L9.15885 10.1283L8.79877 7.50262L15.0396 7.49634L14.6463 10.1212H14.6454Z" fill="#0D0E36"/>
</svg>
