<svg width="24" height="24" viewBox="0 0 24 24" fill="none" xmlns="http://www.w3.org/2000/svg">
<path fill-rule="evenodd" clip-rule="evenodd" d="M21.6371 3.15918C21.8368 3.15918 21.9994 3.32091 21.9994 3.52149H21.9985V4.67797C21.9985 4.70779 21.994 4.7367 21.9867 4.76471L21.9985 15.9076C21.9985 16.1073 21.8368 16.2699 21.6362 16.2699H20.4798C20.2801 16.2699 20.1175 16.1082 20.1175 15.9076L20.1066 5.04118L7.13572 5.05293C6.93606 5.05293 6.77344 4.8912 6.77344 4.69062V3.53413C6.77344 3.33446 6.93516 3.17183 7.13572 3.17183L21.6371 3.15918ZM17.3488 7.01173H17.6605C17.8602 7.01173 18.0228 7.17345 18.0228 7.37403L18.0355 19.6129C18.0355 19.8126 17.8737 19.9752 17.6732 19.9752H16.5167C16.486 19.9752 16.4571 19.9707 16.4291 19.9635L3.53588 19.9752H3.53136H2.37493C2.17527 19.9752 2.01265 19.8135 2.01265 19.6129L2 7.37403C2 7.17436 2.16172 7.01173 2.36229 7.01173H3.51871C3.54943 7.01173 3.57924 7.01624 3.60725 7.02347L16.4969 7.01173H16.5041H17.3443H17.3488ZM16.1436 8.89463L3.8828 8.90547L3.89274 18.0932L16.1536 18.0824L16.1436 8.89463Z" fill="#0D0E36"/>
</svg>
