<svg width="24" height="24" viewBox="0 0 24 24" fill="none" xmlns="http://www.w3.org/2000/svg">
<path fill-rule="evenodd" clip-rule="evenodd" d="M12.242 2C16.2354 2 19.4839 5.24822 19.4839 9.24134V9.24044C19.4839 10.2441 19.2728 11.2424 18.872 12.1553C18.8693 12.1832 18.8639 12.211 18.854 12.2389L14.6907 20.2943C14.351 21.2467 13.4884 21.9404 12.4783 21.9961C11.4575 22.0527 10.5193 21.4858 10.0943 20.5585L5.72339 12.4356C5.70901 12.4051 5.70182 12.3737 5.69643 12.3422C5.23993 11.3781 5 10.3151 5 9.24134C5 5.24822 8.24851 2 12.242 2ZM12.3669 20.129C12.4873 20.1236 12.7829 20.0741 12.9052 19.7309H12.9043L17.0909 11.6108C17.1008 11.5838 17.1134 11.5596 17.1287 11.5362C17.4683 10.8183 17.6418 10.0473 17.6418 9.24134C17.6418 6.26447 15.2191 3.84201 12.242 3.84201C9.26485 3.84201 6.84217 6.26447 6.84217 9.24134C6.84217 10.0518 7.02549 10.8524 7.37236 11.5766C7.39213 11.6009 7.411 11.627 7.42448 11.6566L11.7954 19.7794C11.9472 20.111 12.2456 20.1343 12.3669 20.129ZM8.85938 9.42466C8.85938 7.55569 10.3744 6.03986 12.2445 6.03986C14.1136 6.03986 15.6296 7.55569 15.6296 9.42466C15.6296 11.2936 14.1136 12.8095 12.2445 12.8095C10.3753 12.8095 8.85938 11.2936 8.85938 9.42466ZM10.6566 9.42556C10.6566 10.3007 11.3683 11.0133 12.2445 11.0133C13.1197 11.0133 13.8323 10.3007 13.8323 9.42556C13.8323 8.55038 13.1197 7.83784 12.2445 7.83784C11.3692 7.83784 10.6566 8.55038 10.6566 9.42556Z" fill="#0D0E36"/>
</svg>
