<svg width="24" height="24" viewBox="0 0 24 24" fill="none" xmlns="http://www.w3.org/2000/svg">
<path d="M21.821 21.8165L21.8084 2.67407C21.8084 2.47534 21.6473 2.3151 21.4495 2.3151H21.402C21.3626 2.29989 21.3197 2.29004 21.274 2.29004L2.37955 2.30257C2.30794 2.30257 2.2408 2.32495 2.1853 2.36165C2.07519 2.42342 2 2.5389 2 2.67407L2.01253 21.8165C2.01253 21.8469 2.0179 21.8765 2.02506 21.9051V21.9311C2.02506 22.1298 2.18351 22.29 2.37955 22.29L21.274 22.2775C21.3734 22.2775 21.4629 22.2354 21.5273 22.1692C21.6947 22.1388 21.821 21.9928 21.821 21.8165ZM18.1633 13.2336L16.475 11.4799C15.766 10.7512 14.6954 10.5337 13.7563 10.9285C12.828 11.3188 12.2498 12.2587 12.2498 13.2658V20.4191H11.402V13.2658C11.402 12.2587 10.8237 11.3188 9.89544 10.9285C8.95641 10.5337 7.88578 10.7521 7.1768 11.4799L5.4885 13.2336C5.34975 13.3759 5.35333 13.6033 5.49566 13.7411L6.31653 14.5405C6.45887 14.6793 6.68624 14.6757 6.8241 14.5333L8.5124 12.7797C8.76573 12.5201 9.05308 12.5971 9.16498 12.6427C9.27688 12.6884 9.53737 12.8334 9.53737 13.196V20.4191L3.8745 20.4227L3.86375 4.16364L19.9438 4.1529L19.9545 20.412L14.1135 20.4155V13.1951C14.1135 12.8325 14.374 12.6875 14.4859 12.6418C14.5978 12.5962 14.886 12.5183 15.1385 12.7788L16.8268 14.5325C16.9655 14.6748 17.192 14.6775 17.3343 14.5396L18.1552 13.7402C18.2976 13.6015 18.3002 13.375 18.1624 13.2327L18.1633 13.2336Z" fill="#0D0E36"/>
<path d="M11.9083 5.11328C10.3838 5.11328 9.14844 6.34862 9.14844 7.87311C9.14844 9.39759 10.3838 10.6329 11.9083 10.6329C13.4327 10.6329 14.6681 9.39759 14.6681 7.87311C14.6681 6.34862 13.4327 5.11328 11.9083 5.11328ZM11.9083 8.84258C11.3738 8.84258 10.9388 8.40752 10.9388 7.87311C10.9388 7.33869 11.3738 6.90363 11.9083 6.90363C12.4427 6.90363 12.8777 7.33869 12.8777 7.87311C12.8777 8.40752 12.4427 8.84258 11.9083 8.84258Z" fill="#0D0E36"/>
</svg>
