<svg width="207" height="30" viewBox="0 0 207 30" fill="none" xmlns="http://www.w3.org/2000/svg">
<g clip-path="url(#clip0_256_2940)">
<path opacity="0.5" d="M20.8663 18.3202C19.4638 16.9177 17.5411 16.4829 15.8445 17.1866C15.0377 17.5209 14.3566 18.0889 13.874 18.8279C13.3839 19.5794 13.125 20.4817 13.125 21.4343V29.2585C13.125 29.6682 13.4568 30 13.8665 30H16.0833C16.493 30 16.8247 29.6682 16.8247 29.2585V22.4296C16.8247 21.7661 17.3626 21.2257 18.0287 21.2257C18.3604 21.2257 18.6595 21.3589 18.8757 21.575L18.8807 21.57C20.6602 23.347 24.7998 27.4715 26.2651 28.9318C26.5566 29.2208 27.0266 29.2208 27.3157 28.9318L28.879 27.3609C29.1681 27.0693 29.1681 26.6019 28.879 26.3103C27.19 24.6263 21.9496 19.4035 20.8638 18.3202H20.8663Z" fill="#0057FF"/>
<path d="M9.0967 11.6798C10.4992 13.0823 12.4219 13.5171 14.1185 12.8133C14.9253 12.4791 15.6064 11.911 16.089 11.1721C16.5791 10.4206 16.838 9.51827 16.838 8.56569V0.741455C16.838 0.331769 16.5062 0 16.0965 0H13.8797C13.47 0 13.1383 0.331769 13.1383 0.741455V7.57038C13.1383 8.23392 12.6004 8.7743 11.9343 8.7743C11.6026 8.7743 11.3035 8.64109 11.0873 8.42493L11.0823 8.42996C9.3028 6.65298 5.16322 2.52849 3.69791 1.0682C3.40635 0.779156 2.93635 0.779156 2.64731 1.0682L1.08397 2.63908C0.794927 2.93063 0.794927 3.39812 1.08397 3.68968C2.77298 5.37366 8.01343 10.5965 9.09922 11.6798H9.0967Z" fill="#0057FF"/>
<path d="M11.6798 20.904C13.0823 19.5015 13.5171 17.5788 12.8133 15.8822C12.4791 15.0754 11.911 14.3943 11.1721 13.9117C10.4206 13.4216 9.51827 13.1627 8.56569 13.1627H0.741455C0.331769 13.1627 0 13.4945 0 13.9042V16.121C0 16.5307 0.331769 16.8625 0.741455 16.8625H7.57038C8.23392 16.8625 8.7743 17.4028 8.7743 18.0664C8.7743 18.3981 8.64109 18.6972 8.42493 18.9134L8.42996 18.9184C6.65298 20.6979 2.52849 24.8375 1.0682 26.3028C0.779156 26.5944 0.779156 27.0644 1.0682 27.3534L2.63908 28.9167C2.93063 29.2058 3.39812 29.2058 3.68968 28.9167C5.37366 27.2277 10.5965 21.9873 11.6798 20.9015V20.904Z" fill="#0057FF"/>
<path d="M18.3205 9.13369C16.918 10.5362 16.4832 12.4589 17.1869 14.1555C17.5212 14.9623 18.0893 15.6434 18.8282 16.126C19.5797 16.6161 20.482 16.875 21.4346 16.875H29.2588C29.6685 16.875 30.0003 16.5432 30.0003 16.1335V13.9167C30.0003 13.507 29.6685 13.1752 29.2588 13.1752H22.4299C21.7664 13.1752 21.226 12.6349 21.226 11.9713C21.226 11.6396 21.3592 11.3405 21.5753 11.1243L21.5703 11.1193C23.3473 9.33979 27.4718 5.20021 28.9321 3.7349C29.2211 3.44334 29.2211 2.97334 28.9321 2.68429L27.3612 1.12096C27.0697 0.831914 26.6022 0.831914 26.3106 1.12096C24.6266 2.80996 19.4038 8.05041 18.3205 9.1362V9.13369Z" fill="#0057FF"/>
<path d="M41.2215 6.71332H38.4492C38.2896 6.71332 38.1602 6.84273 38.1602 7.00236V22.588C38.1602 22.7476 38.2896 22.877 38.4492 22.877H41.2215C41.3811 22.877 41.5105 22.7476 41.5105 22.588V7.00236C41.5105 6.84273 41.3811 6.71332 41.2215 6.71332Z" fill="#0D0E36"/>
<path d="M52.2259 11.6521C51.3311 11.1645 50.283 10.9157 49.1118 10.9157C47.9405 10.9157 46.9427 11.1771 46.0177 11.6898C45.0903 12.2051 44.3514 12.939 43.816 13.869C43.2832 14.7964 43.0117 15.8721 43.0117 17.0685C43.0117 18.2649 43.2756 19.3507 43.7934 20.2756C44.3137 21.2056 45.0476 21.9395 45.975 22.4573C46.8974 22.97 47.9682 23.2314 49.1545 23.2314C50.1297 23.2314 51.0219 23.068 51.8086 22.7463C52.6029 22.4221 53.2689 21.9521 53.7917 21.3539C54.317 20.7532 54.6789 20.0369 54.87 19.225C54.8901 19.1396 54.87 19.0491 54.8147 18.9787C54.7594 18.9083 54.6764 18.8681 54.5885 18.8681H51.8614C51.7332 18.8681 51.6201 18.9511 51.5824 19.0742C51.497 19.3582 51.3487 19.5945 51.1325 19.7981C50.9114 20.0067 50.6349 20.1701 50.3081 20.2857C49.9739 20.4038 49.5918 20.4641 49.1746 20.4641C48.6166 20.4641 48.1215 20.346 47.7042 20.1123C47.2845 19.8785 46.9678 19.5593 46.7341 19.1371C46.5833 18.8656 46.4802 18.5615 46.4274 18.2322H54.7041C54.8499 18.2322 54.973 18.1242 54.9931 17.9784L55.0208 17.7823C55.0333 17.7019 55.0409 17.6139 55.0509 17.5159C55.0585 17.3852 55.0635 17.257 55.0685 17.1314C55.071 17.0057 55.0735 16.8825 55.0735 16.7569C55.0735 15.6258 54.8247 14.6079 54.3321 13.7257C53.837 12.841 53.1307 12.1423 52.2309 11.6521H52.2259ZM46.7919 14.9171C47.0256 14.5224 47.3473 14.2108 47.7495 13.9896C48.1516 13.7659 48.6242 13.6528 49.1545 13.6528C49.6848 13.6528 50.1448 13.7609 50.5419 13.9745C50.939 14.1857 51.2381 14.4797 51.4618 14.8693C51.6176 15.1433 51.7207 15.4499 51.7709 15.7867H46.4526C46.5204 15.47 46.6335 15.1784 46.7894 14.9145L46.7919 14.9171Z" fill="#0D0E36"/>
<path d="M63.9849 16.3271C63.3364 16.028 62.4517 15.7817 61.3508 15.5982C60.8205 15.5077 60.4033 15.4047 60.1168 15.2916C59.8604 15.1911 59.6769 15.0704 59.5739 14.9347C59.4758 14.8065 59.4281 14.6381 59.4281 14.4194C59.4281 14.241 59.4783 14.0927 59.5789 13.9645C59.6895 13.8263 59.8503 13.7182 60.0589 13.6403C60.2826 13.5573 60.5566 13.5146 60.8733 13.5146C61.3684 13.5146 61.748 13.6202 61.9968 13.8263C62.2456 14.0299 62.409 14.3667 62.4819 14.8241C62.5045 14.9648 62.6251 15.0679 62.7684 15.0679H65.4401C65.5231 15.0679 65.6035 15.0327 65.6588 14.9699C65.7141 14.907 65.7392 14.8241 65.7292 14.7412C65.5683 13.5121 65.0656 12.557 64.2312 11.8985C63.4068 11.25 62.2707 10.9208 60.8507 10.9208C59.9458 10.9208 59.134 11.0691 58.4378 11.3631C57.7265 11.6622 57.1635 12.0945 56.7689 12.6475C56.3668 13.2055 56.1632 13.8564 56.1632 14.5853C56.1632 15.3142 56.3215 15.9576 56.6332 16.4578C56.9448 16.9605 57.445 17.3752 58.1161 17.6894C58.7595 17.991 59.6266 18.2398 60.6948 18.4283C61.2553 18.5263 61.6876 18.6344 61.9817 18.7551C62.2456 18.8631 62.4291 18.9863 62.5246 19.1195C62.6176 19.2477 62.6628 19.4261 62.6628 19.6498C62.6628 19.8434 62.61 20.0042 62.4995 20.1425C62.3838 20.2908 62.2079 20.4089 61.9792 20.4918C61.7329 20.5848 61.4338 20.6301 61.0894 20.6301C60.6772 20.6301 60.3203 20.5697 60.0288 20.4516C59.7473 20.3385 59.5311 20.1802 59.3678 19.9715C59.2044 19.7629 59.0988 19.5041 59.0486 19.205C59.0259 19.0642 58.9053 18.9612 58.762 18.9612H56.0149C55.9294 18.9612 55.849 18.9989 55.7937 19.0617C55.7384 19.1245 55.7133 19.21 55.7258 19.2929C55.8465 20.1073 56.1431 20.8211 56.603 21.4117C57.063 22.0024 57.6838 22.4598 58.4453 22.774C59.1968 23.0806 60.0791 23.2365 61.0668 23.2365C61.9993 23.2365 62.8413 23.0806 63.5677 22.7715C64.3066 22.4573 64.8922 22.0099 65.3094 21.4419C65.7317 20.8663 65.9479 20.2028 65.9479 19.4764C65.9479 18.75 65.7895 18.0714 65.4778 17.5662C65.1637 17.0585 64.661 16.6413 63.9849 16.3296V16.3271Z" fill="#0D0E36"/>
<path d="M79.5513 16.3271C78.9028 16.028 78.0181 15.7817 76.9172 15.5982C76.3869 15.5077 75.9697 15.4047 75.6832 15.2916C75.4268 15.1911 75.2433 15.0704 75.1403 14.9347C75.0422 14.8065 74.9945 14.6381 74.9945 14.4194C74.9945 14.241 75.0448 14.0927 75.1453 13.9645C75.2559 13.8263 75.4167 13.7182 75.6254 13.6403C75.849 13.5573 76.123 13.5146 76.4397 13.5146C76.9348 13.5146 77.3144 13.6202 77.5632 13.8263C77.812 14.0299 77.9754 14.3667 78.0483 14.8241C78.0709 14.9648 78.1915 15.0679 78.3348 15.0679H81.0065C81.0895 15.0679 81.1699 15.0327 81.2252 14.9699C81.2805 14.907 81.3057 14.8241 81.2956 14.7412C81.1347 13.5121 80.6321 12.557 79.7976 11.8985C78.9732 11.25 77.8372 10.9208 76.4171 10.9208C75.5123 10.9208 74.7004 11.0691 74.0042 11.3631C73.2929 11.6622 72.7299 12.0945 72.3353 12.6475C71.9332 13.2055 71.7296 13.8564 71.7296 14.5853C71.7296 15.3142 71.8879 15.9576 72.1996 16.4578C72.5112 16.9605 73.0114 17.3752 73.6825 17.6894C74.3259 17.991 75.193 18.2398 76.2612 18.4283C76.8217 18.5263 77.254 18.6344 77.5481 18.7551C77.812 18.8631 77.9955 18.9863 78.091 19.1195C78.184 19.2477 78.2292 19.4261 78.2292 19.6498C78.2292 19.8434 78.1765 20.0042 78.0659 20.1425C77.9503 20.2908 77.7743 20.4089 77.5456 20.4918C77.2993 20.5848 77.0002 20.6301 76.6558 20.6301C76.2436 20.6301 75.8867 20.5697 75.5952 20.4516C75.3137 20.3385 75.0975 20.1802 74.9342 19.9715C74.7708 19.7629 74.6652 19.5041 74.615 19.205C74.5923 19.0642 74.4717 18.9612 74.3284 18.9612H71.5813C71.4958 18.9612 71.4154 18.9989 71.3601 19.0617C71.3048 19.1245 71.2797 19.21 71.2922 19.2929C71.4129 20.1073 71.7095 20.8211 72.1694 21.4117C72.6294 22.0024 73.2502 22.4598 74.0117 22.774C74.7633 23.0806 75.6455 23.2365 76.6332 23.2365C77.5657 23.2365 78.4077 23.0806 79.1341 22.7715C79.873 22.4573 80.4586 22.0099 80.8759 21.4419C81.2981 20.8663 81.5143 20.2028 81.5143 19.4764C81.5143 18.75 81.3559 18.0714 81.0443 17.5662C80.7301 17.0585 80.2274 16.6413 79.5513 16.3296V16.3271Z" fill="#0D0E36"/>
<path d="M90.0023 20.062C89.7735 20.1098 89.5549 20.15 89.3513 20.1776C88.7606 20.2555 88.1725 20.2204 87.8357 20.0545C87.6371 19.9565 87.4964 19.8006 87.4034 19.5794C87.3004 19.3281 87.2476 18.9813 87.2476 18.5489V14.1078H89.8766C90.0374 14.1078 90.1656 13.9771 90.1656 13.8187V11.5667C90.1656 11.4058 90.0349 11.2777 89.8766 11.2777H87.2476V8.44255C87.2476 8.28169 87.1169 8.1535 86.9585 8.1535H85.0735C84.9227 8.1535 84.797 8.26912 84.7844 8.41992C84.7568 8.76929 84.709 9.15635 84.6462 9.57358C84.5834 9.98578 84.5205 10.3276 84.4602 10.5739C84.3873 10.8353 84.2742 11.0188 84.1259 11.1168C83.9676 11.2249 83.7137 11.2777 83.3719 11.2777H82.1328C81.9719 11.2777 81.8438 11.4084 81.8438 11.5667V13.8187C81.8438 13.9796 81.9744 14.1078 82.1328 14.1078H83.945V18.7978C83.945 19.7654 84.0983 20.5672 84.3999 21.183C84.7115 21.8189 85.1891 22.2914 85.82 22.588C86.4257 22.8745 87.2023 23.0203 88.1273 23.0203C88.4791 23.0203 88.8486 22.9926 89.2306 22.9374C89.6177 22.8821 89.9319 22.8092 90.1656 22.7237C90.2787 22.681 90.3567 22.5729 90.3567 22.4523V20.3511C90.3567 20.2631 90.3164 20.1801 90.2486 20.1249C90.1807 20.0696 90.0927 20.0469 90.0048 20.067L90.0023 20.062Z" fill="#0D0E36"/>
<path d="M96.5955 10.9157C95.6253 10.9157 94.7532 11.0841 94.0042 11.4159C93.2477 11.7502 92.6294 12.2227 92.1619 12.8184C91.6969 13.4115 91.3827 14.1102 91.2219 14.8894C91.2043 14.9749 91.2269 15.0628 91.2822 15.1307C91.3375 15.1986 91.4204 15.2363 91.5059 15.2363H94.2656C94.3988 15.2363 94.5144 15.1458 94.5471 15.0151C94.6527 14.5853 94.8688 14.2585 95.2056 14.0173C95.5449 13.7735 95.9898 13.6503 96.5302 13.6503C97.151 13.6503 97.6059 13.8086 97.9226 14.1329C98.2041 14.4219 98.3599 14.8442 98.3901 15.3896C98.2267 15.4248 98.0181 15.4625 97.7492 15.5027C97.1535 15.5906 96.412 15.661 95.5449 15.7113C94.5395 15.7691 93.685 15.9425 93.0089 16.224C92.3076 16.5131 91.7723 16.9278 91.4154 17.4556C91.056 17.9834 90.875 18.6293 90.875 19.3758C90.875 20.1625 91.066 20.8587 91.443 21.4418C91.82 22.025 92.3504 22.4749 93.0164 22.7765C93.6699 23.073 94.4214 23.2213 95.2483 23.2213C96.025 23.2213 96.7061 23.0932 97.2691 22.8393C97.8396 22.5829 98.3323 22.1833 98.7344 21.6505C98.8048 21.5575 98.8475 21.5122 98.8752 21.4896C98.8802 21.5022 98.8852 21.5173 98.8928 21.5374C98.9104 21.6002 98.928 21.6781 98.943 21.7761C98.9606 21.8842 98.9757 21.9998 98.9933 22.1406C99.0059 22.2084 99.0134 22.2763 99.0159 22.3467C99.0209 22.4321 99.026 22.5201 99.0335 22.6106C99.0461 22.7614 99.1718 22.877 99.3226 22.877H101.348C101.509 22.877 101.637 22.7463 101.637 22.588V15.8294C101.637 14.2611 101.2 13.037 100.338 12.19C99.4759 11.3455 98.2167 10.9157 96.5955 10.9157ZM95.9973 18.0588C96.8871 17.9784 97.5531 17.8979 98.0307 17.8125C98.1614 17.7899 98.282 17.7647 98.3926 17.7396C98.3851 18.0638 98.3549 18.3579 98.3046 18.6143C98.2468 18.9134 98.1538 19.1848 98.0281 19.4286C97.817 19.8433 97.5456 20.1349 97.1987 20.3158C96.8443 20.5018 96.4196 20.5948 95.937 20.5948C95.565 20.5948 95.2433 20.5395 94.9794 20.434C94.7281 20.3334 94.5421 20.1902 94.4088 19.9941C94.2756 19.8006 94.2128 19.5643 94.2128 19.2703C94.2128 19.0265 94.2631 18.8254 94.3661 18.6696C94.4641 18.5162 94.6401 18.3881 94.8839 18.29C95.1578 18.1794 95.5323 18.104 95.9973 18.0613V18.0588Z" fill="#0D0E36"/>
<path d="M110.58 20.062C110.352 20.1098 110.133 20.15 109.929 20.1776C109.339 20.2555 108.751 20.2204 108.414 20.0545C108.215 19.9565 108.075 19.8006 107.982 19.5794C107.878 19.3281 107.826 18.9813 107.826 18.5489V14.1078H110.455C110.616 14.1078 110.744 13.9771 110.744 13.8187V11.5667C110.744 11.4058 110.613 11.2777 110.455 11.2777H107.826V8.44255C107.826 8.28169 107.695 8.1535 107.537 8.1535H105.652C105.501 8.1535 105.375 8.26912 105.363 8.41992C105.335 8.76929 105.287 9.15635 105.224 9.57358C105.161 9.98578 105.099 10.3276 105.038 10.5739C104.965 10.8353 104.852 11.0188 104.704 11.1168C104.546 11.2249 104.292 11.2777 103.95 11.2777H102.711C102.55 11.2777 102.422 11.4084 102.422 11.5667V13.8187C102.422 13.9796 102.553 14.1078 102.711 14.1078H104.523V18.7978C104.523 19.7654 104.676 20.5672 104.978 21.183C105.29 21.8189 105.767 22.2914 106.398 22.588C107.004 22.8745 107.78 23.0203 108.705 23.0203C109.057 23.0203 109.427 22.9926 109.809 22.9374C110.196 22.8821 110.51 22.8092 110.744 22.7237C110.857 22.681 110.935 22.5729 110.935 22.4523V20.3511C110.935 20.2631 110.895 20.1801 110.827 20.1249C110.759 20.0696 110.671 20.0469 110.583 20.067L110.58 20.062Z" fill="#0D0E36"/>
<path d="M115.257 11.2726H112.484C112.325 11.2726 112.195 11.4021 112.195 11.5617V22.588C112.195 22.7476 112.325 22.877 112.484 22.877H115.257C115.416 22.877 115.546 22.7476 115.546 22.588V11.5617C115.546 11.4021 115.416 11.2726 115.257 11.2726Z" fill="#0D0E36"/>
<path d="M114.886 6.79627C114.286 6.46952 113.466 6.46952 112.861 6.79627C112.551 6.95964 112.31 7.18836 112.139 7.47488C111.968 7.76141 111.883 8.08816 111.883 8.44757C111.883 8.80699 111.968 9.12619 112.139 9.41523C112.31 9.70427 112.554 9.93551 112.861 10.1014C113.165 10.2648 113.506 10.3452 113.876 10.3452C114.245 10.3452 114.587 10.2623 114.886 10.0989C115.19 9.93551 115.432 9.70427 115.605 9.41775C115.779 9.12871 115.869 8.80196 115.869 8.44757C115.869 8.09318 115.781 7.7589 115.605 7.47237C115.432 7.18836 115.19 6.96215 114.886 6.79627Z" fill="#0D0E36"/>
<path d="M126.744 11.7049C125.771 11.1821 124.663 10.9157 123.449 10.9157C122.235 10.9157 121.127 11.1821 120.159 11.7049C119.186 12.2302 118.412 12.9717 117.859 13.9092C117.306 14.8442 117.027 15.9098 117.027 17.0811C117.027 18.2523 117.306 19.3155 117.859 20.2455C118.412 21.1779 119.186 21.9194 120.159 22.4447C121.127 22.9675 122.235 23.2339 123.449 23.2339C124.663 23.2339 125.771 22.9675 126.744 22.4447C127.722 21.9194 128.496 21.1779 129.044 20.2455C129.592 19.3155 129.871 18.2498 129.871 17.0811C129.871 15.9124 129.592 14.8467 129.044 13.9117C128.493 12.9742 127.719 12.2327 126.744 11.7074V11.7049ZM125.038 19.8785C124.583 20.1449 124.047 20.2807 123.449 20.2807C122.851 20.2807 122.318 20.1449 121.866 19.8785C121.416 19.6146 121.061 19.2376 120.813 18.76C120.559 18.2775 120.43 17.712 120.43 17.0786C120.43 16.4452 120.559 15.8696 120.813 15.3871C121.061 14.9095 121.418 14.5325 121.866 14.2686C122.318 14.0022 122.851 13.8664 123.449 13.8664C124.047 13.8664 124.583 14.0022 125.038 14.2686C125.49 14.535 125.844 14.9095 126.091 15.3845C126.342 15.8696 126.468 16.4377 126.468 17.0786C126.468 17.7195 126.342 18.2775 126.091 18.76C125.844 19.2351 125.49 19.6121 125.038 19.876V19.8785Z" fill="#0D0E36"/>
<path d="M140.417 11.4888C139.756 11.1092 138.954 10.9157 138.031 10.9157C137.23 10.9157 136.518 11.064 135.918 11.3556C135.314 11.6471 134.782 12.0895 134.337 12.6625C134.226 12.7983 134.183 12.8284 134.151 12.836C134.143 12.8259 134.105 12.7731 134.07 12.6248C134.043 12.4665 134.017 12.2905 133.997 12.0995C133.977 11.9085 133.962 11.7275 133.955 11.5541C133.95 11.3983 133.821 11.2751 133.666 11.2751H131.617C131.456 11.2751 131.328 11.4058 131.328 11.5642V22.588C131.328 22.7488 131.459 22.877 131.617 22.877H134.387C134.548 22.877 134.676 22.7463 134.676 22.588V17.619C134.676 17.0258 134.734 16.493 134.849 16.0305C134.963 15.5806 135.141 15.1885 135.382 14.8618C135.611 14.5551 135.885 14.3264 136.192 14.1781C136.805 13.884 137.73 13.8664 138.28 14.2007C138.549 14.3641 138.75 14.6029 138.891 14.9296C139.039 15.2714 139.115 15.7012 139.115 16.2039V22.5829C139.115 22.7438 139.245 22.872 139.404 22.872H142.163C142.324 22.872 142.452 22.7413 142.452 22.5829V15.7389C142.452 14.7436 142.279 13.8765 141.94 13.1627C141.593 12.4338 141.078 11.8683 140.412 11.4837L140.417 11.4888Z" fill="#0D0E36"/>
<path d="M153.419 17.5637C153.105 17.056 152.602 16.6388 151.926 16.3271C151.278 16.028 150.393 15.7817 149.292 15.5982C148.762 15.5077 148.345 15.4047 148.058 15.2916C147.802 15.1911 147.618 15.0704 147.515 14.9347C147.417 14.8065 147.369 14.6381 147.369 14.4194C147.369 14.241 147.42 14.0927 147.52 13.9645C147.631 13.8263 147.792 13.7182 148 13.6403C148.224 13.5573 148.498 13.5146 148.815 13.5146C149.31 13.5146 149.689 13.6202 149.938 13.8263C150.187 14.0299 150.35 14.3667 150.423 14.8241C150.446 14.9648 150.567 15.0679 150.71 15.0679H153.382C153.464 15.0679 153.545 15.0327 153.6 14.9699C153.656 14.907 153.681 14.8241 153.671 14.7412C153.51 13.5121 153.007 12.557 152.173 11.8985C151.348 11.25 150.212 10.9208 148.792 10.9208C147.887 10.9208 147.075 11.0691 146.379 11.3631C145.668 11.6622 145.105 12.0945 144.71 12.6475C144.308 13.2055 144.105 13.8564 144.105 14.5853C144.105 15.3142 144.263 15.9576 144.575 16.4578C144.886 16.9605 145.386 17.3752 146.057 17.6894C146.701 17.991 147.568 18.2398 148.636 18.4283C149.197 18.5263 149.629 18.6344 149.923 18.7551C150.187 18.8631 150.371 18.9863 150.466 19.1195C150.559 19.2477 150.604 19.4261 150.604 19.6498C150.604 19.8434 150.551 20.0042 150.441 20.1425C150.325 20.2908 150.149 20.4089 149.921 20.4918C149.674 20.5848 149.375 20.6301 149.031 20.6301C148.619 20.6301 148.262 20.5697 147.97 20.4516C147.689 20.3385 147.473 20.1802 147.309 19.9715C147.146 19.7629 147.04 19.5041 146.99 19.205C146.967 19.0642 146.847 18.9612 146.703 18.9612H143.956C143.871 18.9612 143.79 18.9989 143.735 19.0617C143.68 19.1245 143.655 19.21 143.667 19.2929C143.788 20.1073 144.084 20.8211 144.544 21.4117C145.004 22.0024 145.625 22.4598 146.387 22.774C147.138 23.0806 148.02 23.2365 149.008 23.2365C149.941 23.2365 150.783 23.0806 151.509 22.7715C152.248 22.4573 152.834 22.0099 153.251 21.4419C153.673 20.8663 153.889 20.2028 153.889 19.4764C153.889 18.75 153.731 18.0714 153.419 17.5662V17.5637Z" fill="#0D0E36"/>
<path d="M159.007 19.3055C158.364 18.9536 157.484 18.9611 156.853 19.3055C156.531 19.4814 156.275 19.7252 156.091 20.0293C155.905 20.336 155.812 20.6853 155.812 21.0674C155.812 21.4494 155.905 21.7988 156.091 22.1079C156.275 22.4145 156.531 22.6583 156.853 22.8318C157.172 23.0052 157.537 23.0932 157.936 23.0932C158.336 23.0932 158.688 23.0052 159.007 22.8318C159.329 22.6558 159.585 22.412 159.769 22.1079C159.955 21.8013 160.048 21.4519 160.048 21.0699C160.048 20.6878 159.955 20.3385 159.769 20.0318C159.585 19.7277 159.329 19.4814 159.007 19.308V19.3055Z" fill="#0D0E36"/>
<path d="M165.594 14.2686C166.038 14.0022 166.559 13.869 167.142 13.869C167.607 13.869 168.032 13.9569 168.399 14.1279C168.763 14.2963 169.062 14.5401 169.288 14.8492C169.52 15.1634 169.675 15.5454 169.753 15.9777C169.778 16.116 169.899 16.2165 170.04 16.2165H172.767C172.847 16.2165 172.925 16.1838 172.98 16.1235C173.036 16.0632 173.063 15.9853 173.056 15.9023C172.988 15.0478 172.714 14.2309 172.242 13.4744C171.766 12.7153 171.085 12.092 170.216 11.622C169.346 11.152 168.298 10.9132 167.097 10.9132C165.895 10.9132 164.784 11.1771 163.837 11.6974C162.884 12.2202 162.13 12.9591 161.597 13.8916C161.064 14.8216 160.793 15.8923 160.793 17.0761C160.793 18.2599 161.064 19.318 161.597 20.248C162.13 21.1805 162.884 21.9194 163.837 22.4447C164.784 22.965 165.883 23.2289 167.097 23.2289C168.311 23.2289 169.346 22.9901 170.216 22.5201C171.085 22.0501 171.769 21.4268 172.242 20.6677C172.714 19.9112 172.988 19.0943 173.056 18.2423C173.061 18.1619 173.036 18.0814 172.98 18.0211C172.925 17.9608 172.847 17.9281 172.767 17.9281H170.04C169.899 17.9281 169.778 18.0287 169.753 18.1669C169.675 18.6017 169.52 18.9812 169.288 19.2954C169.06 19.6046 168.76 19.8484 168.399 20.0168C168.029 20.1877 167.607 20.2756 167.142 20.2756C166.559 20.2756 166.036 20.1424 165.594 19.8785C165.151 19.6171 164.807 19.2426 164.568 18.7651C164.329 18.2875 164.201 17.7069 164.201 17.0736C164.201 16.4402 164.324 15.8621 164.568 15.377C164.807 14.902 165.154 14.525 165.596 14.2611L165.594 14.2686Z" fill="#0D0E36"/>
<path d="M183.436 11.7049C182.463 11.1821 181.354 10.9157 180.14 10.9157C178.927 10.9157 177.818 11.1821 176.85 11.7049C175.878 12.2302 175.104 12.9717 174.551 13.9092C173.998 14.8442 173.719 15.9098 173.719 17.0811C173.719 18.2523 173.998 19.3155 174.551 20.2455C175.104 21.1779 175.878 21.9194 176.85 22.4447C177.818 22.9675 178.927 23.2339 180.14 23.2339C181.354 23.2339 182.463 22.9675 183.436 22.4447C184.413 21.9194 185.187 21.1779 185.735 20.2455C186.283 19.3155 186.562 18.2498 186.562 17.0811C186.562 15.9124 186.283 14.8467 185.735 13.9117C185.185 12.9742 184.411 12.2327 183.436 11.7074V11.7049ZM181.729 19.8785C181.274 20.1449 180.739 20.2807 180.14 20.2807C179.542 20.2807 179.009 20.1449 178.557 19.8785C178.107 19.6146 177.753 19.2376 177.504 18.76C177.25 18.2775 177.122 17.712 177.122 17.0786C177.122 16.4452 177.25 15.8696 177.504 15.3871C177.753 14.9095 178.11 14.5325 178.557 14.2686C179.009 14.0022 179.542 13.8664 180.14 13.8664C180.739 13.8664 181.274 14.0022 181.729 14.2686C182.181 14.535 182.536 14.9095 182.782 15.3845C183.033 15.8696 183.159 16.4377 183.159 17.0786C183.159 17.7195 183.033 18.2775 182.782 18.76C182.536 19.2351 182.181 19.6121 181.729 19.876V19.8785Z" fill="#0D0E36"/>
<path d="M205.567 13.1602C205.238 12.4388 204.755 11.8758 204.13 11.4913C203.506 11.1092 202.762 10.9157 201.915 10.9157C201.159 10.9157 200.485 11.069 199.915 11.3706C199.347 11.6697 198.814 12.1498 198.331 12.8008C198.206 12.9692 198.143 13.0219 198.128 13.032L198.301 13.2657L198.062 13.0421C198.062 13.0421 198.007 12.9893 197.904 12.8033C197.673 12.381 197.394 12.0241 197.074 11.7476C196.75 11.4687 196.371 11.2575 195.943 11.1193C195.524 10.9861 195.039 10.9157 194.503 10.9157C193.784 10.9157 193.131 11.064 192.56 11.3581C191.995 11.6496 191.472 12.097 191.02 12.6751C190.897 12.8133 190.856 12.846 190.844 12.846C190.836 12.836 190.796 12.7756 190.761 12.6022C190.733 12.4338 190.708 12.2579 190.688 12.0744C190.668 11.8859 190.648 11.7074 190.635 11.539C190.623 11.3882 190.497 11.2726 190.346 11.2726H188.32C188.159 11.2726 188.031 11.4033 188.031 11.5617V22.5855C188.031 22.7463 188.162 22.8745 188.32 22.8745H191.09C191.251 22.8745 191.379 22.7438 191.379 22.5855V17.541C191.379 16.9881 191.429 16.4829 191.527 16.0355C191.623 15.6007 191.781 15.2161 191.995 14.8919C192.214 14.5702 192.467 14.3289 192.749 14.1681C193.03 14.0097 193.347 13.9318 193.717 13.9318C194.086 13.9318 194.38 14.0147 194.624 14.1756C194.87 14.339 195.051 14.5702 195.177 14.8869C195.31 15.2212 195.378 15.6359 195.378 16.121V22.588C195.378 22.7488 195.509 22.877 195.667 22.877H198.427C198.588 22.877 198.716 22.7463 198.716 22.588V17.5436C198.716 16.9655 198.769 16.4452 198.869 15.9978C198.97 15.563 199.12 15.1935 199.321 14.8944C199.54 14.5752 199.794 14.3314 200.081 14.1706C200.367 14.0097 200.686 13.9318 201.053 13.9318C201.42 13.9318 201.712 14.0122 201.953 14.1731C202.197 14.3365 202.375 14.5702 202.501 14.8894C202.634 15.2262 202.702 15.6409 202.702 16.1185V22.5855C202.702 22.7463 202.833 22.8745 202.991 22.8745H205.761C205.922 22.8745 206.05 22.7438 206.05 22.5855V15.666C206.05 14.711 205.886 13.8664 205.565 13.1577L205.567 13.1602Z" fill="#0D0E36"/>
</g>
<defs>
<clipPath id="clip0_256_2940">
<rect width="206.051" height="30" fill="white"/>
</clipPath>
</defs>
</svg>
